<?xml version="1.0" encoding="UTF-8" standalone="no"?>
<!-- Created with Inkscape (http://www.inkscape.org/) -->

<svg
   version="1.1"
   id="svg1"
   width="1920"
   height="600"
   viewBox="0 0 1920 600"
   xmlns="http://www.w3.org/2000/svg"
   xmlns:svg="http://www.w3.org/2000/svg">
  <defs
     id="defs1" />
  <g
     id="g1">
    <path
       style="fill:#000000"
       d="m 1528.8234,435.26752 c -0.792,-0.33723 -1.7311,-0.97647 -2.0869,-1.42053 -0.5826,-0.72698 -0.7326,-0.7684 -1.5064,-0.41583 -0.7801,0.35543 -0.965,0.2988 -2.0042,-0.61357 -1.3387,-1.17544 -1.7625,-1.25682 -1.7625,-0.33848 0,1.0918 -0.6533,0.58208 -3.3442,-2.6093 -1.3992,-1.65955 -3.6075,-4.0587 -4.9071,-5.33145 l -2.363,-2.31409 -0.5047,-4.40591 c -0.755,-6.59101 -0.7352,-25.93027 0.034,-33.20591 0.7761,-7.34064 1.6011,-11.73892 3.0613,-16.32 0.6732,-2.112 1.978,-7.08 2.8995,-11.04 3.3696,-14.48074 4.831,-20.20245 6.3819,-24.98652 1.8432,-5.68572 1.8115,-6.17053 -0.3714,-5.68331 -1.3984,0.31212 -4.0087,1.06547 -9.7228,2.80607 -4.0654,1.23838 -8.8274,2.2522 -10.6095,2.25874 -1.2817,0.005 -1.3542,-0.0423 -1.1741,-0.76007 0.2612,-1.04042 -0.2745,-1.28152 -1.1865,-0.53404 -0.6404,0.52491 -0.6956,0.71228 -0.3681,1.2502 0.3633,0.5968 0.091,0.74182 -4.8,2.55253 -7.1142,2.63398 -12.5498,3.95089 -17.1052,4.14418 -3.4309,0.14558 -3.6,0.18529 -3.6,0.84542 0,0.62979 -0.8498,0.95022 -9.36,3.52947 -5.148,1.56024 -13.464,4.09295 -18.48,5.62825 -5.016,1.5353 -13.728,4.18518 -19.36,5.88862 -5.632,1.70344 -10.7089,3.24439 -11.2821,3.42432 -0.8739,0.27436 -1.2147,0.69739 -2.1116,2.62165 -2.0952,4.49508 -4.9591,7.46452 -10.0463,10.41648 l -2.32,1.34624 v 1.42588 c 0,1.37451 -0.035,1.42589 -0.9708,1.42589 -0.7716,0 -1.1074,0.23147 -1.6365,1.12827 -0.7583,1.28532 -1.5927,1.83907 -2.3394,1.55256 -0.4379,-0.16807 -0.4825,-0.006 -0.3047,1.10604 0.3157,1.97409 -0.012,2.71719 -2.311,5.24782 -1.1622,1.27892 -2.3125,2.78997 -2.5565,3.3579 -0.412,0.95916 -0.5019,1.00597 -1.2652,0.65819 -0.969,-0.44151 -1.403,-0.002 -1.411,1.42922 -0.01,1.06982 -0.8716,1.19654 -1.685,0.24665 -0.3292,-0.38456 -0.7477,-0.55451 -1.0653,-0.43264 -0.5189,0.19912 -0.5082,0.99747 0.038,2.85953 0.1572,0.53556 -0.044,0.81616 -0.9823,1.36972 -0.9032,0.53293 -1.1401,0.8486 -1.01,1.34608 0.1331,0.50888 -0.2543,0.97544 -1.7852,2.15027 -3.7982,2.91466 -4.0801,3.21947 -3.7164,4.01783 0.2924,0.64157 0.059,0.99147 -2.1781,3.26062 -1.4014,1.42182 -3.844,4.50813 -5.5431,7.00392 -3.7538,5.51406 -6.1262,7.94773 -9.3355,9.57668 -2.4037,1.22006 -2.4038,1.22008 -3.8411,0.73213 -0.7905,-0.26839 -3.2246,-0.64732 -5.4091,-0.84208 -4.8748,-0.43461 -7.0741,-1.02004 -7.9327,-2.11161 -0.5814,-0.73913 -0.7522,-0.78703 -1.7872,-0.50126 -0.6819,0.18828 -1.5342,0.20413 -2.1092,0.0392 -1.0642,-0.30522 -3.069,-1.86298 -2.9428,-2.2866 0.1038,-0.34846 -0.2801,-0.33459 -0.8578,0.031 -0.3342,0.2115 -0.9819,-0.1866 -2.4,-1.47511 -2.0442,-1.85749 -3.9231,-2.96342 -6.1822,-3.63898 l -1.36,-0.4067 v -2.31397 c 0,-1.4034 0.3001,-3.46956 0.7627,-5.2506 l 0.7628,-2.93663 4.3034,-4.21875 c 6.3036,-6.17951 9.3793,-9.86561 21.4102,-25.65874 2.1451,-2.816 5.3598,-6.632 7.1437,-8.48 1.7839,-1.848 4.8214,-5.304 6.7499,-7.68 1.9285,-2.376 4.6226,-5.48733 5.9868,-6.91407 1.3643,-1.42673 2.4805,-2.66659 2.4805,-2.75523 0,-0.0887 -0.5254,-0.71829 -1.1676,-1.3992 -1.3968,-1.48103 -3.3124,-5.33484 -3.3124,-6.66386 0,-2.55835 5.2711,-8.91976 8.744,-10.55266 1.8079,-0.85006 1.9475,-0.86653 4.64,-0.54784 2.8599,0.33851 6.4536,0.0792 7.6304,-0.5506 0.3467,-0.18559 2.0566,-1.89423 3.7997,-3.79699 4.051,-4.42217 10.7587,-11.56775 18.8659,-20.0976 11.4957,-12.09499 21.2175,-22.68766 25.92,-28.24195 1.2293,-1.452 2.4726,-2.64 2.7628,-2.64 0.2902,0 1.2515,-0.72002 2.1361,-1.60005 0.9474,-0.94237 1.7937,-1.52897 2.0591,-1.42713 0.2957,0.11346 1.2669,-0.90437 2.8243,-2.95995 2.2934,-3.02691 5.7316,-6.58933 17.5851,-18.22057 3.0759,-3.01824 6.3126,-6.422 7.1926,-7.56393 1.1208,-1.45433 1.8798,-2.13579 2.5341,-2.27512 0.5137,-0.10939 1.6657,-0.75473 2.56,-1.43409 0.8942,-0.67935 1.9859,-1.32318 2.4259,-1.43072 0.5224,-0.12769 1.1886,-0.82496 1.92,-2.00962 2.1243,-3.44075 7.4516,-8.2324 14.56,-13.09607 1.76,-1.20421 4.2907,-3.20496 5.6239,-4.44611 8.3419,-7.76631 17.9855,-14.7542 35.3181,-25.59206 6.3098,-3.94538 7.0997,-4.35543 7.7868,-4.04236 0.6643,0.30271 1.1076,0.14193 3.3779,-1.22521 8.2973,-4.99641 13.8642,-6.61837 18.2948,-5.33035 1.0399,0.30231 2.181,0.75298 2.5358,1.00149 0.425,0.29768 1.5215,0.45231 3.2139,0.45322 2.3143,10e-4 2.7112,0.0958 4.0064,0.95503 0.7906,0.52452 3.3106,1.75226 5.6,2.72831 5.2163,2.22396 7.279,3.61793 8.9086,6.02066 1.2595,1.857 1.4141,1.93048 2.8304,1.34567 0.4442,-0.18341 0.5745,0.0445 0.7568,1.3237 0.4094,2.87319 1.7798,4.58526 3.6702,4.58526 0.5484,0 0.6522,0.12427 0.4674,0.56 -0.4821,1.13668 -0.3475,1.84605 0.329,1.7338 2.0983,-0.34819 2.1934,-0.29696 2.9458,1.58636 0.3956,0.99009 0.8144,2.61009 0.9308,3.6 0.1782,1.51669 0.1319,1.79984 -0.2944,1.79984 -0.8964,0 -1.5022,-1.31155 -1.5022,-3.25232 0,-1.00645 -0.144,-1.91891 -0.32,-2.02768 -0.2095,-0.12948 -0.3201,2.15674 -0.3203,6.62111 -4e-4,10.60584 -0.6505,15.86176 -2.5481,20.60088 -0.5484,1.36951 -0.9269,2.67299 -0.8411,2.89661 0.1077,0.28061 0.533,0.34593 1.3728,0.21081 1.0471,-0.16848 1.1625,-0.12995 0.8281,0.27645 -0.2137,0.25972 -0.3577,0.8955 -0.32,1.41285 0.056,0.76369 -0.07,0.96039 -0.6699,1.04564 -0.4062,0.0578 -1.0851,-0.1221 -1.5087,-0.39967 -0.4237,-0.27758 -0.8113,-0.50348 -0.8615,-0.502 -0.05,0.001 -0.1101,1.18948 -0.1332,2.64 -0.035,2.21949 -0.276,3.33499 -1.52,7.04101 -0.8129,2.42204 -1.4781,4.61804 -1.4781,4.88 0,0.30467 0.3128,0.47631 0.868,0.47631 0.8548,0 0.845,0.0233 -0.64,1.53099 -1.4734,1.49586 -1.7874,2.3323 -1.2149,3.23643 0.1997,0.31548 0.012,0.67606 -0.6381,1.22274 -0.6376,0.53647 -1.1215,1.44695 -1.5707,2.95547 -0.3571,1.19908 -0.8642,2.35848 -1.1268,2.57644 -0.6088,0.5053 -0.6079,1.09131 0,1.59793 0.6183,0.51315 0.6289,1.31705 0.014,1.08118 -0.7034,-0.26995 -2.0942,1.29749 -2.0942,2.36027 0,0.5008 0.1593,1.06987 0.3541,1.26461 0.2587,0.25875 0.01,0.66455 -0.9226,1.50745 -0.7022,0.63437 -1.4531,1.57924 -1.6687,2.09972 -0.3958,0.95544 -0.3228,2.87116 0.1507,3.9556 0.2141,0.49025 0.129,0.57227 -0.5082,0.48988 -0.4209,-0.0544 -0.9453,0.0131 -1.1653,0.15005 -0.4736,0.29484 -0.544,2.45124 -0.08,2.45124 0.176,0 0.32,-0.2448 0.32,-0.544 0,-0.448 0.071,-0.46918 0.4,-0.12 0.32,0.3392 0.32,0.45333 0,0.57066 -0.6171,0.22629 -0.4734,1.5277 0.24,2.17334 0.352,0.31855 0.64,0.83975 0.64,1.15822 0,0.55854 0.048,0.55851 1.36,-10e-4 1.7692,-0.75461 3.8313,-1.19438 7.7194,-1.6462 1.7377,-0.20193 3.7358,-0.57051 4.4402,-0.81906 1.6255,-0.57351 1.5665,-0.58702 1.3421,0.30719 l -0.1905,0.7591 1.7044,-0.58865 c 0.9458,-0.32667 2.6301,-0.59447 3.7844,-0.60172 3.1852,-0.02 7.6311,-0.60609 8.6689,-1.14277 0.9095,-0.4703 0.9311,-0.4627 0.9311,0.32673 0,1.0143 0.2211,1.0189 7.52,0.15651 12.7807,-1.51007 15.4452,-1.70653 23.4262,-1.7273 7.3048,-0.019 8.1053,0.0315 8.48,0.53538 0.3816,0.51303 0.5362,0.51926 1.9847,0.08 2.2977,-0.69682 5.6813,-0.5852 10.8068,0.3565 2.555,0.46944 5.0188,0.75407 5.6461,0.65227 0.8809,-0.14295 1.3082,-0.0163 2.0492,0.60722 1.2869,1.08283 2.2179,1.2522 4.3711,0.79525 l 1.8452,-0.39157 3.1753,-5.31757 c 1.7465,-2.92466 5.2369,-8.70627 7.7565,-12.84802 4.5123,-7.41756 4.5732,-7.54245 4.06,-8.33045 -1.3911,-2.13578 -4.695,-9.43768 -5.4213,-11.98147 -1.4261,-4.99438 -1.7727,-10.93803 -0.7895,-13.5352 0.6684,-1.76546 16.3723,-8.18623 31.1697,-12.7442 4.4763,-1.37881 4.3148,-1.243 9.2871,-7.80764 3.1423,-4.14855 4.6396,-5.78878 6.6919,-7.33088 1.1079,-0.83241 1.7681,-0.74611 5.0827,0.66441 1.734,0.73787 2.5983,0.92526 3.8658,0.83816 1.4758,-0.1014 1.7093,-0.0223 2.4325,0.8241 0.44,0.51495 0.9104,1.22011 1.0454,1.56702 0.2273,0.58411 0.4757,0.61864 3.36,0.46703 2.0558,-0.10805 4.6375,-0.55152 7.5946,-1.30453 2.464,-0.62745 5.3991,-1.28798 6.5224,-1.46785 2.3511,-0.37648 2.5176,-0.4742 1.9576,-1.14895 -0.5062,-0.60995 -0.5181,-0.59983 1.44,-1.22254 3.2524,-1.0343 7.0205,-1.85151 14.2979,-3.10084 4.1041,-0.70458 8.9021,-1.63639 10.6621,-2.0707 2.1231,-0.5239 5.3494,-0.95597 9.5867,-1.28384 3.5127,-0.2718 12.2247,-1.15245 19.36,-1.957 14.8171,-1.67071 19.3817,-1.85412 24.2302,-0.97362 2.6834,0.48731 3.5523,0.52813 4.934,0.23181 1.5956,-0.3422 1.7179,-0.32043 2.5206,0.44854 0.9718,0.93107 1.3717,0.99912 1.9285,0.32819 0.2191,-0.264 0.5846,-0.48 0.8121,-0.48 0.2276,0 1.5601,1.05243 2.9612,2.33874 2.0703,1.90075 3.3761,2.75256 6.9728,4.54846 5.1425,2.56769 6.924,4.05296 7.476,6.2328 0.5393,2.13002 0.9675,2.81376 1.9838,3.16804 0.5027,0.17527 0.9141,0.54158 0.9141,0.81404 0,1.06535 1.4904,4.76563 4.325,10.73792 1.6289,3.432 3.1783,6.90303 3.443,7.71339 0.4711,1.44194 0.4626,1.50344 -0.3967,2.88 -1.9428,3.11222 -5.8314,5.68559 -9.8923,6.54633 -1.1654,0.24704 -3.595,0.45166 -5.399,0.45472 -2.7198,0.005 -3.28,-0.0773 -3.28,-0.47948 0,-0.26677 -0.18,-1.07094 -0.4,-1.78704 -0.3895,-1.26772 -0.4295,-1.29627 -1.52,-1.08486 -2.997,0.58103 -2.8484,0.58516 -2.6759,-0.0745 0.1149,-0.43921 -0.1688,-0.86978 -0.9813,-1.48948 -0.6285,-0.47943 -1.1428,-1.08036 -1.1428,-1.3354 0,-0.39175 -1.163,-0.46371 -7.4945,-0.46371 -11.2618,0 -19.6816,0.67761 -37.5148,3.01912 -4.5489,0.59726 -11.2947,1.3958 -14.9907,1.77451 -4.2208,0.4325 -7.7316,0.97468 -9.44,1.45785 -6.5549,1.85386 -12.7624,3.09268 -21.5936,4.30944 -4.029,0.55509 -4.9223,0.77906 -5.6,1.40399 -0.6453,0.59502 -1.4226,0.81619 -3.8912,1.10728 -1.6967,0.20007 -4.7927,0.87478 -6.88,1.49937 -2.0874,0.62459 -5.2434,1.50799 -7.0135,1.96312 l -3.2182,0.82751 -2.4293,3.3989 c -3.4643,4.84708 -7.9193,11.74873 -12.0054,18.59891 -10.0085,16.77839 -14.4888,24.42671 -14.3753,24.54018 0.3641,0.36412 12.8913,-2.06948 25.0065,-4.85791 12.6342,-2.90788 20.6385,-4.34909 28.4793,-5.1278 1.2317,-0.12232 2.7753,-0.4958 3.4303,-0.82996 1.909,-0.97392 4.6057,-1.55269 8.8904,-1.90811 6.2392,-0.51755 10.1811,-1.18253 12.0314,-2.02962 l 1.6939,-0.77549 1.205,0.61436 c 1.6975,0.86545 5.9354,0.80942 11.6843,-0.15448 7.3639,-1.2347 10.3821,-1.57344 12.2769,-1.37787 0.9774,0.10088 2.2126,0.0316 2.7447,-0.15387 0.675,-0.23532 2.0304,-0.23706 4.4833,-0.006 2.0031,0.1889 3.9212,0.21526 4.4581,0.0613 0.9143,-0.26221 0.9424,-0.23709 0.9424,0.84193 0,0.79215 -0.2532,1.35891 -0.88,1.96952 -0.484,0.47152 -1.1247,1.21343 -1.4239,1.64869 l -0.5439,0.79138 -0.3313,-0.87144 c -0.369,-0.97073 -1.0316,-1.34684 -1.8317,-1.03981 -0.4571,0.17541 -0.407,0.3329 0.361,1.1346 0.6498,0.67824 0.8494,1.15338 0.7352,1.75054 -0.1286,0.67287 -0.034,0.81964 0.5278,0.81964 0.3764,0 1.0201,-0.23514 1.4304,-0.52254 0.6253,-0.43794 0.7914,-0.45089 1.026,-0.08 0.4274,0.6755 0.2032,0.9978 -1.3096,1.88254 -1.6085,0.94071 -2.1158,1.78224 -0.9218,1.52903 0.419,-0.0889 0.9692,-0.21724 1.2228,-0.28529 0.2535,-0.0681 0.5145,0.12005 0.5799,0.41801 0.09,0.40868 -0.1807,0.59653 -1.1009,0.7647 -0.671,0.12262 -2.9064,0.85083 -4.9675,1.61824 -3.0126,1.12169 -4.1569,1.39531 -5.8357,1.39531 -2.0014,0 -2.1346,0.0499 -3.2038,1.2 -0.6136,0.66 -1.1196,1.46201 -1.1243,1.78225 -0.014,0.91201 -1.3749,0.55968 -1.6315,-0.42225 -0.195,-0.74605 -0.2249,-0.75684 -0.4431,-0.16 -0.1288,0.352 -0.3751,1.01908 -0.5473,1.4824 -0.7696,2.06956 -2.9043,3.23863 -6.9169,3.78803 -4.8276,0.66099 -6.485,1.39251 -8.05,3.55295 -0.5147,0.71049 -1.0188,1.13261 -1.1326,0.94846 -0.3651,-0.59073 -1.1317,-0.35234 -1.5055,0.46816 -0.4394,0.96438 -0.7892,1.01896 -1.0601,0.16541 -0.1948,-0.61385 -0.2609,-0.6049 -2.0215,0.27413 -1.0011,0.4998 -3.1882,1.37652 -4.8602,1.94828 -4.5962,1.57171 -6.3231,2.53372 -8.5586,4.76773 -1.1203,1.11956 -2.0707,1.98356 -2.112,1.92 -0.041,-0.0636 -0.2162,-0.54755 -0.3887,-1.07555 -0.204,-0.62465 -0.5628,-0.99572 -1.0271,-1.06226 -0.7371,-0.10562 -1.0252,0.67193 -0.3936,1.06226 0.5658,0.34969 0.341,1.12 -0.3269,1.12 -0.3794,0 -0.7975,-0.33072 -1.0113,-0.8 -0.4615,-1.01293 -0.9018,-1.02939 -0.9018,-0.0337 0,0.84135 -1.1058,4.56917 -1.5665,5.28076 -0.2322,0.35859 -0.5544,0.37979 -1.6286,0.10714 -1.1578,-0.29388 -1.4193,-0.25982 -1.9306,0.25153 -0.5184,0.51836 -0.6402,0.5327 -0.986,0.11605 -0.3154,-0.37995 -0.2875,-0.815 0.1386,-2.16671 0.5025,-1.59431 0.7084,-3.39506 0.3882,-3.39506 -0.08,0 -0.5125,0.16746 -0.9617,0.37214 -0.9743,0.44389 -1.5406,2.19622 -1.4078,4.35598 l 0.09,1.45656 -1.9899,0.74416 c -1.0944,0.40928 -4.1805,1.19065 -6.8579,1.73637 -5.1445,1.04854 -8.0624,2.14762 -10.2032,3.84317 -1.063,0.84187 -1.4647,0.97958 -2.4098,0.8262 -0.8705,-0.14126 -1.4063,-0.005 -2.3043,0.58718 -0.6436,0.42418 -2.4661,1.07094 -4.0501,1.43725 -4.8647,1.125 -5.2758,1.27883 -6.5905,2.46659 -1.1652,1.05272 -1.581,1.20234 -4.8618,1.74962 -5.0074,0.83527 -12.1411,2.52361 -21.5077,5.09024 -11.1074,3.04364 -10.4984,2.796 -10.865,4.41866 -0.3049,1.34934 -0.3058,1.35003 -1.5194,1.145 -1.1896,-0.20098 -1.2266,-0.17689 -1.8165,1.18286 -0.3312,0.76341 -2.1462,4.62802 -4.0334,8.58802 -4.6664,9.79213 -8.5494,18.49701 -10.563,23.68 -5.9344,15.27592 -8.5188,27.26923 -8.6021,39.91962 l -0.041,6.15963 -0.7622,3.7e-4 c -0.4626,2.3e-4 -1.1965,0.46082 -1.8671,1.17183 l -1.1048,1.17145 -1.8129,-0.36604 c -0.9972,-0.20132 -3.0173,-0.72847 -4.4893,-1.17145 -1.4719,-0.44298 -3.0057,-0.80541 -3.4083,-0.80541 -0.4952,0 -0.9425,-0.35649 -1.382,-1.10142 -0.4813,-0.81572 -0.946,-1.15698 -1.7916,-1.31561 -0.8866,-0.16633 -1.1417,-0.36716 -1.1413,-0.89859 2e-4,-0.37641 -0.3926,-1.49405 -0.873,-2.48363 -0.7787,-1.60414 -0.9753,-1.795 -1.8134,-1.76 -0.7392,0.0309 -1.0702,-0.18019 -1.5489,-0.98771 -0.554,-0.93436 -2.1628,-5.2279 -3.812,-10.17304 -0.6834,-2.04917 -0.912,-5.33338 -0.5046,-7.24859 0.2339,-1.09942 0.1818,-1.20988 -0.8805,-1.86643 -1.1519,-0.71189 -1.6784,-1.8233 -1.3138,-2.77339 0.1847,-0.48128 0.2428,-0.47586 0.634,0.0591 0.4161,0.56911 0.4366,0.56807 0.6081,-0.0309 0.098,-0.3409 0.2754,-1.53174 0.3951,-2.64631 0.2042,-1.90292 0.1655,-2.08075 -0.6352,-2.91651 l -0.8527,-0.89002 0.8085,-2.84349 c 0.4447,-1.56392 1.3915,-5.72349 2.1041,-9.24349 1.7066,-8.43098 2.8048,-11.66644 5.105,-15.04 0.36,-0.528 0.6555,-1.35852 0.6567,-1.84559 0,-1.47472 1.2381,-6.69962 2.3732,-10.04325 1.3763,-4.05441 3.4959,-8.89568 7.4741,-17.07116 1.7556,-3.608 3.8563,-8.241 4.6681,-10.29556 1.3387,-3.38786 3.0867,-9.26585 3.0867,-10.37948 0,-0.95293 -20.7157,-0.44538 -40.8,0.99963 -17.572,1.26426 -17.0004,1.18323 -16.2698,2.3063 0.2036,0.31301 0.5417,0.52843 0.7512,0.47871 0.2095,-0.0497 1.0297,-0.17931 1.8225,-0.28798 1.2965,-0.17771 1.4298,-0.13644 1.3255,0.4104 -0.09,0.47171 -0.4739,0.64511 -1.7127,0.77368 -0.8782,0.0911 -1.7858,0.28524 -2.0169,0.43135 -0.5356,0.33865 -1.6598,-0.64114 -1.6598,-1.44665 0,-0.71162 -0.089,-0.71392 -4.8162,-0.12417 -4.2284,0.5275 -5.2341,0.84086 -6.4638,2.01399 -0.484,0.46174 -0.88,0.67599 -0.88,0.47613 0,-0.19986 -0.3387,-0.72881 -0.7526,-1.17545 l -0.7526,-0.81207 0.1438,1.51558 0.1437,1.51559 -1.3739,0.0773 c -0.8188,0.0461 -1.4803,-0.0832 -1.6372,-0.32 -0.1973,-0.29761 -0.3846,-0.23825 -0.7465,0.23648 -1.2157,1.59464 0.2454,2.11565 3.6836,1.31357 1.1353,-0.26484 2.1295,-0.41623 2.2093,-0.33642 0.266,0.266 -1.0615,1.48865 -2.3576,2.1714 -1.0478,0.55197 -1.9933,0.69693 -5.2126,0.7992 -4.7986,0.15245 -6.1474,-0.0485 -6.1474,-0.91606 0,-0.48167 0.2208,-0.6255 0.96,-0.6255 1.0336,0 1.2281,-0.50122 0.6287,-1.62104 -0.4613,-0.86196 -1.1072,-0.77236 -1.882,0.26104 -1.4293,1.90649 -1.8037,2.10493 -2.1701,1.15015 -0.1311,-0.34163 0.065,-0.74737 0.5529,-1.14223 0.6254,-0.50642 0.6762,-0.66307 0.2934,-0.90526 -0.7995,-0.50581 -1.7369,-0.33454 -3.7933,0.69304 -1.4058,0.70249 -2.259,0.94242 -2.8973,0.81477 -0.7815,-0.15631 -0.8822,-0.0951 -0.7399,0.44928 0.2173,0.8308 0.6585,1.07593 1.1711,0.65057 0.409,-0.33947 0.8365,-0.16932 0.8365,0.33297 0,0.14114 -0.216,0.17373 -0.48,0.0724 -0.264,-0.10131 -0.48,-0.0248 -0.48,0.17004 0,0.21604 -0.6866,0.35424 -1.76,0.35424 -1.7004,0 -2.2981,0.36504 -1.2538,0.76576 0.8088,0.31038 2.3872,0.20683 4.4538,-0.29216 1.056,-0.25498 2.4103,-0.46586 3.0096,-0.4686 1.0712,-0.005 1.0798,0.006 0.5075,0.63819 -0.7762,0.85765 -3.0487,1.49903 -6.2945,1.77648 -3.4934,0.29862 -4.2366,0.57201 -3.7955,1.39627 0.5537,1.03454 0.3789,2.20825 -0.5343,3.58822 -0.6557,0.99088 -0.8992,1.8129 -0.9984,3.37093 -0.1117,1.75331 -0.2475,2.13668 -0.9112,2.57158 -1.0158,0.66554 -1.7862,2.2244 -2.6343,5.33035 -0.378,1.38436 -0.8684,2.86271 -1.0898,3.28523 -0.355,0.67759 -0.4723,0.71718 -0.994,0.33564 -0.6428,-0.47003 -0.7981,-1.74381 -0.3971,-3.25789 0.4912,-1.85497 -0.685,0.14513 -1.3842,2.3537 -0.7959,2.51432 -0.7957,2.6063 0.01,2.6063 0.7573,0 0.8557,0.23295 1.0364,2.45324 l 0.1345,1.65324 -0.8129,-0.30907 c -0.6336,-0.2409 -0.9889,-0.17775 -1.6103,0.28622 -1.1342,0.84684 -1.2106,1.35637 -0.2033,1.35637 0.9735,0 2.0856,0.51788 2.0856,0.97126 0,0.1698 -0.3069,0.30874 -0.6821,0.30874 -1.1444,0 -3.3389,2.49555 -3.9225,4.46055 -0.5534,1.8635 -0.6936,4.99154 -0.2364,5.2741 0.4031,0.24915 1.3263,-2.36413 1.7742,-5.02211 0.4403,-2.61329 0.8268,-2.25315 0.8268,0.77046 0,2.60672 -0.8183,6.04998 -2.1052,8.85839 -1.0572,2.30711 -2.6561,4.21861 -3.5286,4.21861 -0.3072,0 -0.4462,0.3987 -0.4462,1.28 0,1.064 0.1073,1.28 0.636,1.28 0.5813,0 0.545,0.14471 -0.421,1.68 -1.409,2.23942 -2.2612,4.32742 -3.0856,7.55997 -0.6565,2.57415 -0.9569,7.28363 -0.5107,8.00558 0.113,0.18287 -0.084,0.9007 -0.4387,1.59518 -0.3543,0.69448 -1.0889,2.39142 -1.6325,3.77098 -0.5436,1.37956 -1.3094,3.01229 -1.7018,3.62829 -0.71,1.11457 -0.7133,1.1844 -0.6795,14.4 0.034,13.1419 0.042,13.31494 0.8603,16.64 0.9588,3.89807 0.8804,4.30696 -1.3105,6.83837 -0.9369,1.08251 -1.2807,1.72886 -1.1457,2.1541 0.236,0.74343 -0.7316,0.86505 -1.0146,0.12753 -0.1013,-0.264 -0.4605,-0.48 -0.7982,-0.48 -0.5744,0 -0.583,0.0597 -0.1341,0.92781 0.4153,0.80326 0.4183,0.97879 0.022,1.30755 -0.615,0.51042 -1.1256,0.14107 -1.1256,-0.81425 0,-0.50459 -0.1823,-0.78111 -0.515,-0.78111 -0.3977,0 -0.4817,0.23688 -0.3688,1.04 0.081,0.572 0.2556,1.292 0.3893,1.6 0.3637,0.83818 -0.6382,0.71851 -1.2457,-0.14879 -0.273,-0.38984 -0.8724,-1.69276 -1.332,-2.89538 -0.8422,-2.20406 -1.6507,-2.75501 -1.4741,-1.0046 0.3267,3.23997 0.3495,3.17234 -1.0537,3.13164 -0.704,-0.0204 -1.7106,-0.0924 -2.2368,-0.16 -0.8573,-0.11009 -0.9738,-0.0194 -1.12,0.87124 l -0.1632,0.99411 z m 11.84,-6.00381 c 0,-0.92687 -0.1668,-1.35801 -0.619,-1.6 -0.9492,-0.50799 -1.0266,-0.42326 -0.7938,0.86874 0.4007,2.2237 1.4128,2.74757 1.4128,0.73126 z m 2.4,-0.33126 c 0.1088,-0.176 -0.018,-0.32 -0.2822,-0.32 -0.264,0 -0.569,0.144 -0.6778,0.32 -0.1088,0.176 0.018,0.32 0.2822,0.32 0.264,0 0.569,-0.144 0.6778,-0.32 z m 3.876,-43.68999 c 0.2919,-0.44549 0.4532,-0.88747 0.3585,-0.98217 -0.3155,-0.31547 -1.5145,0.65765 -1.5145,1.22913 0,0.80877 0.5398,0.69345 1.156,-0.24696 z m 94.7842,-5.99001 c 0.074,-0.38759 -0.097,-0.56 -0.5567,-0.56 -0.3649,0 -0.6635,0.0602 -0.6635,0.13382 0,0.0736 -0.092,0.37428 -0.205,0.66816 -0.1617,0.42132 -0.044,0.51146 0.5567,0.42618 0.419,-0.0595 0.8098,-0.36016 0.8685,-0.66816 z m -87.9671,-18.76225 c 0.5438,-0.76364 1.6048,-4.22191 1.6222,-5.28735 0.01,-0.61626 -1.3966,0.9942 -1.9299,2.2096 -0.7167,1.63314 -1.1163,4 -0.6753,4 0.1795,0 0.6218,-0.41501 0.983,-0.92225 z m -140.892,-1.48598 c -0.1,-0.25947 -0.4015,-0.47177 -0.6711,-0.47177 -0.5097,0 -0.6269,0.55095 -0.2989,1.4056 0.1698,0.44262 0.2444,0.44462 0.6711,0.0179 0.264,-0.264 0.3985,-0.6923 0.2989,-0.95178 z m 12.7872,-7.43015 c -0.3442,-0.34416 -0.5269,0.13784 -0.2853,0.75258 0.2266,0.57666 0.2438,0.57765 0.3558,0.0208 0.065,-0.32177 0.033,-0.66977 -0.071,-0.77333 z m 12.805,-3.51496 c -0.3253,-0.32528 -0.5936,0.16445 -0.3268,0.59629 0.2017,0.32621 0.277,0.32646 0.3854,0.001 0.074,-0.22234 0.048,-0.49124 -0.059,-0.59758 z m 4.9267,-0.40666 c 0,-0.42667 -0.2133,-0.64 -0.64,-0.64 -0.4267,0 -0.64,0.21333 -0.64,0.64 0,0.42666 0.2133,0.64 0.64,0.64 0.4267,0 0.64,-0.21334 0.64,-0.64 z m 15.68,-5.44 c 0,-0.35556 -0.2133,-0.64 -0.48,-0.64 -0.2667,0 -0.48,0.28444 -0.48,0.64 0,0.35555 0.2133,0.64 0.48,0.64 0.2667,0 0.48,-0.28445 0.48,-0.64 z m 1.7933,-0.87334 c -0.3253,-0.32528 -0.5936,0.16445 -0.3268,0.59629 0.2017,0.32621 0.277,0.32646 0.3854,10e-4 0.074,-0.22234 0.048,-0.49124 -0.059,-0.59758 z m 8.7058,-2.24666 c -0.059,-0.308 -0.3199,-0.56 -0.5791,-0.56 -0.2592,0 -0.5198,0.252 -0.5791,0.56 -0.076,0.39291 0.097,0.56 0.5791,0.56 0.482,0 0.6547,-0.16709 0.5791,-0.56 z m 89.2395,-0.46 c -0.1022,-0.25528 -0.178,-0.17945 -0.1933,0.19333 -0.014,0.33733 0.062,0.52633 0.168,0.42 0.1064,-0.10633 0.1177,-0.38233 0.025,-0.61333 z m -79.5786,-5.06 c 0,-0.42667 -0.2133,-0.64 -0.64,-0.64 -0.4267,0 -0.64,0.21333 -0.64,0.64 0,0.42666 0.2133,0.64 0.64,0.64 0.4267,0 0.64,-0.21334 0.64,-0.64 z m 7.36,-0.64 c 0,-0.42667 -0.2133,-0.64 -0.64,-0.64 -0.4267,0 -0.64,0.21333 -0.64,0.64 0,0.42666 0.2133,0.64 0.64,0.64 0.4267,0 0.64,-0.21334 0.64,-0.64 z m 6.72,0.17888 c 0,-0.25361 -0.144,-0.55011 -0.32,-0.65888 -0.176,-0.10878 -0.32,0.0987 -0.32,0.46111 0,0.36239 0.144,0.65889 0.32,0.65889 0.176,0 0.32,-0.2075 0.32,-0.46112 z m 10.5319,-5.42498 c 0.2865,-0.3452 0.2485,-0.56779 -0.1678,-0.98413 -0.5041,-0.50404 -0.578,-0.49811 -1.1699,0.0938 -0.3475,0.34752 -0.5339,0.79038 -0.4141,0.98413 0.3047,0.49305 1.3094,0.43925 1.7518,-0.0938 z m 9.2067,-0.2539 c -0.1022,-0.25528 -0.178,-0.17945 -0.1933,0.19333 -0.014,0.33733 0.062,0.52633 0.168,0.42 0.1064,-0.10633 0.1177,-0.38233 0.025,-0.61333 z m -2.6385,-1.1275 c 2.6484,-0.79795 2.8286,-1.53481 0.3006,-1.22866 -2.0138,0.24386 -3.101,0.76772 -3.6249,1.74665 -0.2972,0.55528 -0.2476,0.58535 0.5487,0.33251 0.4815,-0.15289 1.7306,-0.53562 2.7756,-0.8505 z m 49.7799,-0.59139 c 0,-0.27439 -0.1463,-0.40844 -0.3252,-0.29789 -0.1789,0.11055 -0.2424,0.33505 -0.1411,0.49889 0.2743,0.44385 0.4663,0.36109 0.4663,-0.201 z m -61.6137,-1.079 c 0.1013,-0.16384 0.038,-0.38834 -0.1411,-0.49889 -0.1789,-0.11055 -0.3252,0.0235 -0.3252,0.29789 0,0.56209 0.192,0.64485 0.4663,0.201 z m 26.2188,-0.21301 c 0.2736,-0.10499 0.5924,-0.71699 0.7083,-1.36 0.116,-0.64301 0.341,-1.4211 0.5,-1.7291 0.203,-0.3932 0.1666,-0.55854 -0.1221,-0.5551 -0.9345,0.0111 -1.6146,0.98193 -1.9582,2.7951 -0.1985,1.0472 -0.042,1.19976 0.872,0.8491 z m 40.5149,-0.4491 c 0,-0.42667 -0.2133,-0.64 -0.64,-0.64 -0.4267,0 -0.64,0.21333 -0.64,0.64 0,0.42666 0.2133,0.64 0.64,0.64 0.4267,0 0.64,-0.21334 0.64,-0.64 z m -62.5081,-1.04 c -0.089,-0.22 -0.1614,-0.04 -0.1614,0.4 0,0.44 0.073,0.62 0.1614,0.4 0.089,-0.22 0.089,-0.58 0,-0.8 z m 3.3081,-0.88 c 0,-0.42667 -0.2133,-0.64 -0.64,-0.64 -0.4267,0 -0.64,0.21333 -0.64,0.64 0,0.42666 0.2133,0.64 0.64,0.64 0.4267,0 0.64,-0.21334 0.64,-0.64 z m 59.9117,-0.96669 c -0.1376,-1.43214 -0.026,-1.81507 1.0295,-3.52476 0.6511,-1.05494 1.1377,-2.156 1.0813,-2.4468 -0.2088,-1.07696 -0.8929,-0.73604 -1.8414,0.91766 -0.919,1.60238 -2.4597,5.65124 -2.214,5.81814 0.2362,0.16042 1.7216,0.80011 1.9059,0.82079 0.1062,0.0119 0.1236,-0.70135 0.039,-1.58503 z m -47.3153,-1.65796 c 0.4412,-0.70484 0.1046,-1.0231 -0.8215,-0.77661 -1.1193,0.29793 -1.6419,0.72926 -1.3857,1.14382 0.3266,0.52842 1.8,0.28329 2.2072,-0.36721 z m -18.0364,-2.17535 c 0,-0.42667 -0.2133,-0.64 -0.64,-0.64 -0.4267,0 -0.64,0.21333 -0.64,0.64 0,0.42666 0.2133,0.64 0.64,0.64 0.4267,0 0.64,-0.21334 0.64,-0.64 z m 2.1319,-1.68 c -0.089,-0.22 -0.1614,-0.04 -0.1614,0.4 0,0.44 0.073,0.62 0.1614,0.4 0.089,-0.22 0.089,-0.58 0,-0.8 z m 24.4281,-0.88 c -0.1884,-0.352 -0.6255,-0.64 -0.9713,-0.64 -0.4154,0 -0.6287,0.21715 -0.6287,0.64 0,0.49942 0.2133,0.64 0.9713,0.64 0.8721,0 0.9362,-0.0653 0.6287,-0.64 z m -13.482,-1.38945 c 0.1961,-0.23619 0.2617,-0.52419 0.1459,-0.64 -0.2296,-0.22961 -1.3839,-0.29361 -1.3839,-0.0767 0,0.0736 -0.087,0.36161 -0.1942,0.64 -0.246,0.64085 0.9126,0.70292 1.4322,0.0767 z m -11.5794,-0.59055 c -0.1022,-0.25528 -0.178,-0.17945 -0.1933,0.19333 -0.014,0.33733 0.062,0.52633 0.168,0.42 0.1064,-0.10633 0.1177,-0.38233 0.025,-0.61333 z m 14.1814,0.20111 c 0,-0.27439 -0.1463,-0.40844 -0.3252,-0.29789 -0.1789,0.11055 -0.2424,0.33505 -0.1411,0.49889 0.2743,0.44385 0.4663,0.36109 0.4663,-0.201 z m 70.0878,-0.54111 c 0.3701,-0.396 1.107,-1.42463 1.6378,-2.28584 l 0.9649,-1.56584 -2.0425,0.16396 c -1.8385,0.14757 -3.448,0.72342 -3.448,1.23358 0,0.10556 0.5131,0.55702 1.1403,1.00325 l 1.1403,0.81132 -0.8203,0.20588 c -0.4512,0.11323 -0.8203,0.41914 -0.8203,0.67978 0,0.73509 1.4827,0.57276 2.2478,-0.24609 z m -79.1906,-0.69924 c 0.2255,-1.20202 0.018,-1.78076 -0.6398,-1.78076 -0.4378,0 -0.7606,1.33087 -0.5626,2.32 0.1944,0.9711 0.9856,0.61627 1.2024,-0.53924 z m 12.8863,0.0327 c 0.07,-0.35971 -0.1127,-0.53348 -0.56,-0.53348 -0.3649,0 -0.6635,0.192 -0.6635,0.42666 0,0.98008 1.0366,1.07058 1.2235,0.10682 z m 3.4165,-0.21346 c 0.1088,-0.176 -0.018,-0.32 -0.2822,-0.32 -0.264,0 -0.569,0.144 -0.6778,0.32 -0.1088,0.176 0.018,0.32 0.2822,0.32 0.264,0 0.569,-0.144 0.6778,-0.32 z m 247.541,-0.65126 c 0.6252,-0.33459 0.8454,-1.41104 0.3511,-1.71651 -0.4477,-0.2767 -1.6521,0.76282 -1.6521,1.42591 0,0.69595 0.3836,0.78162 1.301,0.2906 z m -241.6787,-0.89381 c 0.068,-0.4615 -0.066,-0.69493 -0.4,-0.69493 -0.3268,0 -0.5023,0.2889 -0.5023,0.82666 0,1.00247 0.7515,0.89275 0.9023,-0.13173 z m 62.0072,-0.72756 c 0.6038,-0.66714 0.6023,-0.6717 -0.1871,-0.56 -0.4444,0.0629 -0.843,0.35991 -0.9026,0.67263 -0.1443,0.75693 0.3489,0.70596 1.0897,-0.11263 z m -13.1703,-1.23945 c 0.5819,-0.22126 0.8208,-0.5472 0.8208,-1.12 0,-0.9737 -0.4192,-1.0287 -1.28,-0.16792 -0.8657,0.86572 -0.96,0.81857 -0.96,-0.48 v -1.12 h 1.56 c 1.4709,0 1.5708,0.0538 1.7485,0.94259 0.1915,0.95746 1.2492,1.80491 1.8157,1.45479 0.4803,-0.2968 -0.8185,-2.57003 -1.9139,-3.35006 -0.5303,-0.37762 -1.4336,-0.76205 -2.0073,-0.8543 -0.9895,-0.15912 -1.091,-0.0787 -1.9776,1.56659 -1.0138,1.88136 -0.9633,2.63754 0.2075,3.10779 0.9571,0.38439 1.0273,0.38512 1.9863,0.0205 z m -4.0432,-1.35192 c 0.2112,-0.2112 0.384,-0.8192 0.384,-1.35111 0,-0.95798 -0.01,-0.96115 -0.6066,-0.336 -0.8219,0.85525 -1.1736,2.07111 -0.599,2.07111 0.2407,0 0.6104,-0.1728 0.8216,-0.384 z m 10.7851,-0.57772 c 0.1104,-0.17862 -0.1544,-0.31828 -0.6033,-0.31828 -0.86,0 -1.3182,0.44153 -0.9973,0.96086 0.2142,0.3466 1.245,-0.0672 1.6006,-0.64258 z m 3.4186,-0.70571 c 0.077,-0.79326 0.2826,-1.06974 0.9003,-1.21312 0.5062,-0.11749 0.8376,-0.44531 0.9023,-0.89257 0.125,-0.86473 -0.132,-0.88149 -1.4252,-0.0929 -0.9298,0.56692 -2.6771,2.53564 -2.6771,3.01625 0,0.11539 0.4949,0.2098 1.0997,0.2098 1.0038,0 1.1085,-0.0896 1.2,-1.02743 z m 3.4603,0.42661 c 0,-0.33045 -0.2232,-0.78608 -0.4961,-1.01251 -0.4088,-0.33934 -0.5852,-0.32247 -1.0037,0.096 -0.685,0.685 -0.3066,1.51733 0.6898,1.51733 0.5791,0 0.81,-0.1713 0.81,-0.60082 z m -133.4219,-0.75918 c 0.718,-0.86067 0.7721,-1.2 0.1915,-1.2 -0.6031,0 -1.596,1.16888 -1.3421,1.57983 0.3013,0.48738 0.4749,0.43004 1.1506,-0.37983 z m 138.3764,-0.12639 c 0.2778,0.10661 0.511,-0.35141 0.7219,-1.41807 0.2834,-1.43339 0.2579,-1.57554 -0.2824,-1.57554 -0.3267,0 -0.594,0.13945 -0.594,0.3099 0,0.17045 -0.792,0.89499 -1.76,1.6101 -0.968,0.7151 -1.76,1.43188 -1.76,1.59284 0,0.16096 0.7344,0.0746 1.6321,-0.19202 0.8976,-0.26657 1.8167,-0.41381 2.0424,-0.32721 z m 2.4055,-0.43361 c 0,-0.42667 -0.2133,-0.64 -0.64,-0.64 -0.4267,0 -0.64,0.21333 -0.64,0.64 0,0.42666 0.2133,0.64 0.64,0.64 0.4267,0 0.64,-0.21334 0.64,-0.64 z m -14.4,-0.64 c 0,-0.42667 -0.2133,-0.64 -0.64,-0.64 -0.4267,0 -0.64,0.21333 -0.64,0.64 0,0.42666 0.2133,0.64 0.64,0.64 0.4267,0 0.64,-0.21334 0.64,-0.64 z m 16.16,0.32 c 0.1088,-0.176 -0.018,-0.32 -0.2822,-0.32 -0.264,0 -0.569,0.144 -0.6778,0.32 -0.1088,0.176 0.018,0.32 0.2822,0.32 0.264,0 0.569,-0.144 0.6778,-0.32 z m 5.536,-0.384 c 0.5724,-0.57236 0.4681,-0.82857 -0.336,-0.82597 -0.396,10e-4 -1.044,-0.10274 -1.44,-0.23117 -0.5803,-0.18821 -0.72,-0.11247 -0.72,0.39048 0,0.3432 0.096,0.71999 0.2133,0.83732 0.3536,0.35355 1.872,0.24002 2.2827,-0.17066 z m -3.456,-1.15484 c 0,-0.67036 0.2114,-1.49836 0.4698,-1.84 0.4414,-0.5836 0.4705,-0.58588 0.48,-0.0377 0.01,0.36998 0.2054,0.54561 0.5437,0.48 0.8086,-0.15682 0.9042,-0.92213 0.1402,-1.12193 -0.5524,-0.14447 -0.6737,-0.42247 -0.6737,-1.54462 0,-0.90793 -0.1581,-1.4291 -0.4698,-1.5487 -0.6075,-0.23315 -0.692,-0.0619 -0.9639,1.95375 -0.1248,0.92508 -0.4965,2.00508 -0.826,2.4 l -0.599,0.71804 -0.011,-0.70874 c -0.01,-0.38981 -0.2986,-0.86288 -0.6506,-1.05126 -0.5456,-0.292 -0.64,-0.24336 -0.64,0.32978 0,1.01701 0.5696,1.87665 1.7004,2.56614 1.3901,0.84759 1.4996,0.80415 1.4996,-0.59476 z m 9.5403,0.5766 c 2.8706,-0.6882 5.9241,-0.82557 7.2389,-0.32568 0.5124,0.19481 0.8208,0.19789 0.8208,0.008 0,-0.16712 0.4184,-0.5202 0.9297,-0.78462 2.0077,-1.03823 2.6194,-2.67507 1.2696,-3.39745 -0.7647,-0.40926 -1.2256,0.009 -1.2344,1.12115 -0.01,0.80798 -1.2319,2.10063 -1.9915,2.10063 -0.344,0 -0.8819,-0.4863 -1.2753,-1.153 -0.6733,-1.14122 -0.6842,-1.14567 -1.0644,-0.43523 -0.836,1.56214 -3.312,2.02614 -5.9137,1.10823 -0.7483,-0.264 -1.4504,-0.47888 -1.5602,-0.47751 -0.2928,0.004 -0.9998,1.63107 -0.9998,2.3013 0,0.73289 0.4829,0.72445 3.7803,-0.066 z m -145.2203,-0.43858 c 0,-0.87666 0.7513,-1.62774 1.385,-1.38458 0.6786,0.26043 5.1655,-0.32746 7.8548,-1.02918 1.3421,-0.3502 5.4624,-1.63797 9.1561,-2.8617 5.1744,-1.71425 6.8538,-2.1512 7.3165,-1.90359 0.8206,0.43918 1.982,0.23441 6.3563,-1.12069 2.0617,-0.63872 7.9657,-2.03399 13.12,-3.10062 10.4171,-2.15574 14.3131,-3.09595 17.8211,-4.3007 1.808,-0.62093 2.4737,-0.72764 2.808,-0.45014 0.241,0.20004 1.0106,0.39601 1.7102,0.43548 1.0402,0.0587 1.272,-0.0337 1.272,-0.50696 0,-0.80994 0.3392,-0.93694 1.6892,-0.63248 l 1.1738,0.26474 3.5005,-8.84438 c 6.455,-16.30895 12.6254,-32.999 18.5643,-50.21335 3.1215,-9.04814 3.412,-9.99103 3.0778,-9.99103 -0.7907,0 -10.8327,6.83232 -19.0384,12.95332 -7.438,5.5483 -10.1921,7.48226 -13.7913,9.6841 l -2.104,1.28721 -0.3482,-0.92232 c -0.422,-1.11797 -0.7459,-1.14774 -1.8794,-0.17274 -0.6308,0.54258 -0.8077,0.91566 -0.6407,1.35103 0.179,0.4665 0.2898,0.50604 0.4936,0.17622 0.3311,-0.53568 2.2628,-0.17329 2.2628,0.4245 0,1.1105 -17.5704,16.48883 -22.7725,19.93141 -0.6824,0.45158 -1.8928,1.80191 -2.6898,3.00074 -1.6952,2.55004 -3.6153,4.3308 -6.0365,5.59845 -1.4555,0.76204 -1.7693,1.08409 -1.9393,1.99044 -0.2594,1.3829 -2.53,3.62448 -4.4807,4.4236 -1.101,0.45099 -1.4298,0.74541 -1.3657,1.22264 0.08,0.59512 -0.2706,0.80291 -2.2355,1.32502 -0.22,0.0585 -0.4,0.51087 -0.4,1.00536 0,1.25097 -1.0558,2.62175 -3.7424,4.85876 -2.0503,1.7072 -2.3243,1.84842 -2.5016,1.28969 -0.2419,-0.76208 -0.5772,-0.78554 -1.6048,-0.11225 -0.7589,0.49729 -1.7512,0.42782 -1.7512,-0.12261 0,-0.41691 2.1236,-2.63257 2.5232,-2.63257 0.1962,0 0.3568,0.432 0.3568,0.96 0,1.29877 0.345,1.20332 1.1747,-0.32494 l 0.6946,-1.27966 -0.6483,-0.34699 c -1.5404,-0.8244 -3.6636,0.47166 -5.3157,3.24494 l -0.6751,1.13335 2.2175,0.41011 c 1.2196,0.22556 2.3648,0.31906 2.5449,0.20776 0.6464,-0.39948 0.3083,0.45098 -0.7198,1.81055 -0.7719,1.02076 -1.4426,1.51108 -2.5511,1.86488 -1.2526,0.39983 -1.5385,0.64033 -1.7118,1.44 -0.3677,1.69685 -1.3389,3.23685 -2.9614,4.6956 -1.6694,1.50099 -3.3348,2.1844 -5.3229,2.1844 -1.1024,0 -1.1807,0.0587 -0.9606,0.72 0.1318,0.396 0.2757,1.152 0.3196,1.68 0.1175,1.41097 0.1271,1.44 0.4754,1.44 0.176,0 0.32,-0.34237 0.32,-0.76082 z m 127.1771,0.25796 c 0.6878,-0.6878 0.6308,-1.09714 -0.153,-1.09714 -0.9124,0 -2.6054,0.9219 -2.3757,1.29363 0.3004,0.48602 1.9765,0.35579 2.5287,-0.19649 z m -136.0075,-0.65318 c 0.1557,-0.40599 0.2948,-0.43571 0.6519,-0.13934 0.3606,0.29926 0.5242,0.24521 0.7962,-0.26292 0.4732,-0.88413 0.437,-1.0017 -0.3077,-1.0017 -0.3576,0 -0.733,0.216 -0.8343,0.48 -0.1013,0.264 -0.4483,0.48 -0.7711,0.48 -0.6392,0 -1.0493,0.42867 -0.7226,0.75536 0.3731,0.37305 0.9866,0.21216 1.1876,-0.3114 z m 149.9568,-0.9317 c 0.2226,-0.26825 0.3323,-0.56028 0.2436,-0.64895 -0.2539,-0.25388 -1.85,0.44389 -1.85,0.80877 0,0.50347 1.151,0.38897 1.6064,-0.15982 z m 20.7539,-0.63309 c 0.6225,-0.91409 0.6879,-1.20369 0.3608,-1.59781 -0.7697,-0.92745 -4.7208,-0.2876 -4.3407,0.70295 0.099,0.25742 0.1796,0.60025 0.1796,0.76186 0,0.5597 0.8518,0.29021 1.6,-0.50617 0.8737,-0.93001 1.4314,-1.0436 1.1782,-0.24 -0.5928,1.88209 -0.6032,1.99995 -0.1755,1.99781 0.2405,-0.001 0.7794,-0.50459 1.1976,-1.11864 z m 2.7298,0.67818 c -0.093,-0.24345 0.055,-0.98104 0.33,-1.63908 0.5371,-1.28551 0.6635,-2.71827 0.2398,-2.71827 -0.1431,0 -0.6445,0.40121 -1.1143,0.89157 -1.1105,1.15905 -1.4273,2.66098 -0.7123,3.37605 0.6457,0.64565 1.4933,0.70617 1.2568,0.0897 z m 5.3099,-0.67735 c 0.1947,-1.10392 0.8145,-1.39114 1.0509,-0.48702 0.153,0.58499 0.2662,0.61641 1.0061,0.27927 0.7099,-0.32345 0.897,-0.29339 1.2595,0.20241 0.3281,0.44861 0.4841,0.48802 0.6796,0.17168 0.1563,-0.25291 0.052,-0.52344 -0.2712,-0.70438 -0.2887,-0.16157 -0.5249,-0.48498 -0.5249,-0.71868 0,-0.84378 -0.9729,-1.19631 -3.5192,-1.27523 l -2.5915,-0.0803 0.095,1.44112 c 0.1064,1.60827 0.7088,2.11763 1.0232,0.86507 0.3014,-1.20096 0.8321,-0.98876 0.8321,0.33273 0,1.37881 0.7156,1.35894 0.96,-0.0267 z m 7.5499,0.0208 c 0.047,-0.32147 0.2163,-0.71501 0.3758,-0.87455 0.3628,-0.36274 2.0153,0.22003 2.5262,0.89087 0.3324,0.43651 0.4794,0.43277 1.3844,-0.0352 0.9236,-0.47763 1.0799,-0.47937 1.7813,-0.0198 0.7417,0.48602 0.7754,0.47268 0.9577,-0.37917 0.104,-0.4856 0.3249,-1.21769 0.4909,-1.62688 0.738,-1.81841 -1.1578,-1.85948 -2.5862,-0.056 -1.1856,1.49694 -2.0853,1.75642 -1.5921,0.45917 0.4549,-1.19634 0.4039,-1.33078 -0.5679,-1.4976 -0.484,-0.0831 -1.1131,-0.25157 -1.3979,-0.37441 -0.3682,-0.15874 -0.571,-0.0208 -0.7011,0.477 -0.1455,0.5561 -0.3354,0.65614 -0.9221,0.48565 -0.4064,-0.1181 -1.1954,-0.29809 -1.7534,-0.39999 l -1.0144,-0.18527 0.3078,1.36983 c 0.3803,1.69286 0.495,1.88154 1.3538,2.22662 0.9082,0.3649 1.2532,0.24789 1.3572,-0.46017 z m -32.5713,-0.74083 c -0.4973,-1.80916 -1.5386,-2.32288 -1.5386,-0.75903 0,0.59293 0.2565,1.09986 0.72,1.42321 1.0693,0.74591 1.1812,0.65512 0.8186,-0.66418 z m 20.76,0.5 c -0.1022,-0.25528 -0.178,-0.17945 -0.1933,0.19333 -0.014,0.33733 0.062,0.52633 0.168,0.42 0.1064,-0.10633 0.1177,-0.38233 0.025,-0.61333 z m 22.6411,-0.59909 0.7417,0.69681 0.2275,-2.12403 c 0.2386,-2.22878 0.051,-2.89521 -0.5751,-2.04565 -0.2056,0.27887 -0.9858,0.89245 -1.7338,1.36351 -1.5723,0.99016 -1.8149,2.09356 -0.641,2.91575 0.6925,0.48506 0.7285,0.46668 0.979,-0.4998 l 0.26,-1.0034 z m 9.9376,0.57909 c 0.1275,-0.396 0.2127,-0.8389 0.1892,-0.98422 -0.023,-0.14531 0.321,-0.69636 0.7654,-1.22455 1.398,-1.66135 1.0014,-2.01454 -0.8979,-0.79961 -1.326,0.84824 -1.7714,0.99908 -2,0.67727 -0.1617,-0.22771 -0.762,-0.50981 -1.334,-0.62688 -0.8609,-0.17621 -1.04,-0.11561 -1.04,0.35194 0,0.31064 -0.3062,0.89075 -0.6805,1.28914 -1.0862,1.15626 -0.6004,1.6692 1.7044,1.79956 1.1089,0.0627 2.2513,0.14178 2.5388,0.17569 0.2936,0.0346 0.6243,-0.25393 0.7546,-0.65834 z m -3.012,-1.06667 c 0.015,-0.37278 0.091,-0.44861 0.1933,-0.19333 0.092,0.231 0.081,0.507 -0.025,0.61333 -0.1063,0.10633 -0.1819,-0.0827 -0.168,-0.42 z m -46.6115,1.27243 c 0.7952,-0.30512 0.6027,-1.08576 -0.2676,-1.08576 -1.1047,0 -1.7862,0.31829 -1.7862,0.83423 0,0.46164 1.1419,0.60148 2.0538,0.25153 z m -30.2138,-0.62465 c 0,-0.27439 -0.1463,-0.40844 -0.3252,-0.29789 -0.1789,0.11055 -0.2424,0.33505 -0.1411,0.49889 0.2743,0.44385 0.4663,0.36109 0.4663,-0.201 z m 73.5407,-0.50831 c 1.4685,-1.72126 1.4924,-1.8728 0.2945,-1.8728 -0.9194,0 -1.1562,0.16686 -1.6212,1.14197 -0.9111,1.91052 -0.074,2.37191 1.3267,0.73083 z m -195.1407,-0.47054 c 0,-0.264 -0.144,-0.39101 -0.32,-0.28223 -0.176,0.10877 -0.32,0.41377 -0.32,0.67777 0,0.264 0.144,0.391 0.32,0.28223 0.176,-0.10878 0.32,-0.41377 0.32,-0.67777 z m 127.519,-0.75903 c 0.1113,-0.35061 0.1125,-0.78276 0,-0.96034 -0.2448,-0.39601 -1.1218,-0.42953 -1.1218,-0.0429 0,0.154 -0.093,0.74646 -0.2073,1.31658 -0.1947,0.97343 -0.1668,1.01488 0.4583,0.68034 0.3661,-0.19593 0.7567,-0.64311 0.868,-0.99372 z m 1.441,0.45791 c 0,-0.27439 -0.144,-0.40989 -0.32,-0.30111 -0.176,0.10877 -0.32,0.33327 -0.32,0.49888 0,0.16562 0.144,0.30112 0.32,0.30112 0.176,0 0.32,-0.2245 0.32,-0.49889 z m 13.0186,-0.20111 c -0.1022,-0.25528 -0.178,-0.17945 -0.1933,0.19333 -0.014,0.33733 0.062,0.52633 0.168,0.42 0.1064,-0.10633 0.1177,-0.38233 0.025,-0.61333 z m 3.252,-0.0834 c 0.071,-0.36481 -0.045,-0.51867 -0.32,-0.42697 -0.2368,0.0789 -0.4804,0.40002 -0.5412,0.71371 -0.071,0.3648 0.045,0.51867 0.32,0.42696 0.2368,-0.0788 0.4804,-0.40002 0.5412,-0.7137 z m -10.1906,-0.0105 c 0,-0.47114 -1.4683,-1.04442 -1.8072,-0.70558 -0.2874,0.28747 0.6385,1.15408 1.2472,1.16732 0.308,0.007 0.56,-0.20109 0.56,-0.46174 z m 69.9063,-0.14398 c 0.2367,-0.38291 -0.3653,-0.76231 -0.7915,-0.49889 -0.3579,0.22118 -0.123,0.79678 0.3252,0.79678 0.1552,0 0.3651,-0.13405 0.4663,-0.29789 z m -51.6663,-1.79216 c 0,-0.58405 -0.7629,-0.93404 -1.4562,-0.66802 -0.4108,0.15766 -0.4246,0.27153 -0.08,0.66207 0.5492,0.62233 1.5362,0.62616 1.5362,0.006 z m 9.76,0.17005 c 0.1088,-0.176 -0.099,-0.32 -0.4611,-0.32 -0.3624,0 -0.6589,0.144 -0.6589,0.32 0,0.176 0.2075,0.32 0.4611,0.32 0.2536,0 0.5501,-0.144 0.6589,-0.32 z m 3.68,-0.30112 c 0,-0.16561 -0.144,-0.39011 -0.32,-0.49888 -0.176,-0.10878 -0.32,0.0267 -0.32,0.30111 0,0.27439 0.144,0.49889 0.32,0.49889 0.176,0 0.32,-0.1355 0.32,-0.30112 z m -165.8197,-1.05626 c -0.1234,-1.2764 -1.2203,-1.71694 -1.2203,-0.49009 0,0.76004 0.5247,1.52747 1.0443,1.52747 0.1519,0 0.2311,-0.46682 0.176,-1.03738 z m 3.0122,0.14594 c 0.3038,-0.26075 0.4753,-0.59885 0.3811,-0.75133 -0.2502,-0.40481 -0.7736,-0.3388 -0.7736,0.0976 0,0.20614 -0.252,0.66289 -0.56,1.01501 -0.6213,0.71031 -0.039,0.48934 0.9525,-0.36125 z m 138.4875,0.63543 c 0,-0.45222 -0.7505,-1.024 -1.344,-1.024 -0.3627,0 -0.576,0.23703 -0.576,0.64 0,0.49777 0.2133,0.64 0.96,0.64 0.528,0 0.96,-0.1152 0.96,-0.256 z m -180.8,-0.56504 c 0,-0.41657 -0.6861,-1.41896 -0.9713,-1.41896 -0.3489,0 -0.4219,1.06016 -0.095,1.38666 0.2597,0.25965 1.0667,0.28408 1.0667,0.0323 z m 212.16,-1.40892 c 0,-0.17048 -0.216,-0.22707 -0.48,-0.12576 -0.264,0.1013 -0.48,0.24078 -0.48,0.30995 0,0.0692 0.216,0.12577 0.48,0.12577 0.264,0 0.48,-0.13948 0.48,-0.30996 z m 14.08,-0.19351 c 0,-0.29799 -0.2177,-0.46124 -0.5335,-0.4 -0.8028,0.1557 -0.913,0.90347 -0.1332,0.90347 0.3931,0 0.6667,-0.20662 0.6667,-0.50347 z m -29.6535,-1.09653 c 0.8235,0 1.2484,0.18211 1.4935,0.64 0.7101,1.32692 1.8762,0.67476 2.3504,-1.31462 0.175,-0.73406 0.1125,-0.81808 -0.5187,-0.69741 -0.4785,0.0915 -0.9752,-0.1369 -1.4905,-0.68539 -0.9094,-0.96804 -1.6212,-1.06608 -1.6212,-0.2233 0,0.48625 -0.3054,0.62863 -1.6188,0.75484 -1.971,0.18938 -2.2885,0.46957 -2.025,1.7871 l 0.2043,1.02123 1.0375,-0.64123 c 0.5707,-0.35267 1.5555,-0.64122 2.1885,-0.64122 z m -151.9008,0.48 c 0.264,-0.264 0.9737,-0.48 1.5772,-0.48 0.8802,0 1.0971,-0.12529 1.0971,-0.63391 0,-0.41357 -0.2853,-0.7055 -0.8208,-0.83991 -0.6335,-0.15898 -1.0353,-6e-4 -1.76,0.69377 -0.5166,0.49488 -0.9392,1.08884 -0.9392,1.31992 0,0.54916 0.2547,0.53113 0.8457,-0.0599 z m 134.5143,-0.48 c 0,-0.94442 -0.4103,-1.2705 -0.8018,-0.63714 -0.2575,0.41673 0.1145,1.59714 0.5034,1.59714 0.1641,0 0.2984,-0.432 0.2984,-0.96 z m 10.0114,0.31501 c -0.1801,-0.68876 -0.6656,-1.12748 -0.9419,-0.85117 -0.092,0.0924 -0.073,0.46678 0.043,0.83204 0.2775,0.87418 1.1274,0.89227 0.8991,0.0191 z m -3.6114,-0.3339 c 0,-0.36239 -0.1377,-0.57377 -0.306,-0.46975 -0.1683,0.10402 -0.2249,0.40052 -0.1258,0.65888 0.2538,0.66148 0.4318,0.58353 0.4318,-0.18913 z m 27.4598,-0.70479 c 0.074,-0.384 -0.098,-0.55632 -0.5563,-0.55632 -0.458,0 -0.6635,0.20551 -0.6635,0.66346 0,0.82005 1.0591,0.72702 1.2198,-0.10714 z m 22.4602,0.0197 c 0,-0.51694 -0.095,-0.60938 -0.3561,-0.34789 -0.1959,0.19587 -0.2594,0.51267 -0.1411,0.704 0.331,0.53558 0.4972,0.41653 0.4972,-0.35611 z m 4.6919,-0.336 c -0.089,-0.22 -0.1614,-0.04 -0.1614,0.4 0,0.44 0.073,0.62 0.1614,0.4 0.089,-0.22 0.089,-0.58 0,-0.8 z m -196.8,-0.64 c -0.089,-0.22 -0.1614,-0.04 -0.1614,0.4 0,0.44 0.073,0.62 0.1614,0.4 0.089,-0.22 0.089,-0.58 0,-0.8 z m 140.4019,0.84576 c 0.2784,-0.10683 0.5062,-0.39483 0.5062,-0.64 0,-0.52293 -2.0869,-0.63229 -2.4,-0.12576 -0.4739,0.76675 0.6778,1.23241 1.8938,0.76576 z m 20.6947,-0.53566 c 1.0914,-0.73555 1.9,-2.24823 1.445,-2.70327 -0.1351,-0.13512 -0.5356,0.15231 -0.8899,0.63871 -0.3543,0.48641 -0.8826,1.01211 -1.1739,1.16822 -0.4481,0.2401 -0.5297,0.10371 -0.5297,-0.88496 0,-0.93302 -0.1221,-1.1688 -0.6051,-1.1688 -1.0764,0 -1.3427,0.91911 -0.6873,2.37248 0.6805,1.50906 0.9604,1.5753 2.4409,0.57762 z m 22.9671,-0.4701 c 0.7692,-3.07426 0.7696,-3.01634 -0.024,-2.90384 -0.4555,0.0646 -0.9671,0.54271 -1.3541,1.26544 -0.5921,1.10587 -0.5956,1.20183 -0.073,2 0.7478,1.14123 1.0959,1.05443 1.4502,-0.3616 z m 4.7363,0.16 c -0.089,-0.22 -0.1614,-0.04 -0.1614,0.4 0,0.44 0.073,0.62 0.1614,0.4 0.089,-0.22 0.089,-0.58 0,-0.8 z m -43.4713,-0.32 c 0.09,-0.47372 -0.1438,-0.56 -1.5171,-0.56 -1.4246,0 -1.6235,0.0806 -1.6235,0.65753 0,0.58463 0.1682,0.64672 1.5171,0.56 1.1432,-0.0735 1.5434,-0.23558 1.6235,-0.65753 z m 21.8194,-0.33884 c 0,-0.60107 -0.8299,-1.65266 -1.0336,-1.30964 -0.2385,0.40167 0.3014,1.72848 0.7033,1.72848 0.1817,0 0.3303,-0.18848 0.3303,-0.41884 z m 10.732,-0.18327 c -0.1206,-0.37999 -0.011,-0.6714 0.2985,-0.78995 0.5458,-0.20946 0.6765,-1.16794 0.1592,-1.16794 -0.1816,0 -0.8526,0.21825 -1.4911,0.48501 l -1.1607,0.48501 0.7468,0.79499 c 0.8993,0.95722 1.7248,1.06724 1.4473,0.19288 z m 14.0464,-0.67789 c 0.479,0 0.9402,-0.26373 1.1514,-0.6584 0.3355,-0.62689 0.2793,-0.65369 -1.1758,-0.56 -1.3251,0.0853 -1.5551,0.20475 -1.7303,0.8984 -0.2702,1.06957 0.3556,1.94224 0.7085,0.98813 0.1602,-0.43314 0.5282,-0.66813 1.0462,-0.66813 z m -5.0984,0.16 c 0,-0.32267 -0.18,-0.64667 -0.4,-0.72 -0.2533,-0.0845 -0.4,0.17955 -0.4,0.72 0,0.54044 0.1467,0.80444 0.4,0.72 0.22,-0.0733 0.4,-0.39734 0.4,-0.72 z m 6.56,0.32 c 0,-0.264 -0.144,-0.48 -0.32,-0.48 -0.176,0 -0.32,0.216 -0.32,0.48 0,0.264 0.144,0.48 0.32,0.48 0.176,0 0.32,-0.216 0.32,-0.48 z m 4.24,-0.41258 c 1.4005,-1.217 0,-1.7889 -2.1703,-0.88375 -1.2659,0.52893 -1.2935,0.58685 -0.6066,1.27376 0.5742,0.57411 1.8781,0.39097 2.7769,-0.39001 z m -193.4667,-0.95123 c -0.663,-0.66309 -0.9883,-0.3378 -0.7223,0.7223 0.1913,0.76212 0.2492,0.78705 0.7242,0.31205 0.475,-0.47501 0.4748,-0.55765 0,-1.03435 z m 198.1818,0.32381 c 0.01,-0.57155 -0.5303,-0.49477 -0.7619,0.10887 -0.2665,0.69454 0.1265,1.28612 0.4819,0.72529 0.1513,-0.23879 0.2773,-0.61416 0.28,-0.83416 z m -28.164,-0.57076 c -0.2142,-0.25808 -0.6958,-0.46406 -1.0703,-0.45773 -0.6213,0.0105 -0.5969,0.0801 0.2792,0.79639 0.961,0.78574 1.5242,0.54465 0.7911,-0.33866 z m -37.4856,-0.276 c 0.086,-0.7485 0.01,-0.88302 -0.4262,-0.71727 -0.2924,0.11222 -0.5919,0.20403 -0.6655,0.20403 -0.074,0 -0.1338,0.37056 -0.1338,0.82346 0,1.19272 1.0848,0.9181 1.2255,-0.31022 z m 44.5409,0.27902 c 0.5143,-0.61962 0.3175,-0.81704 -0.5804,-0.58225 -0.3883,0.10155 -0.706,0.38384 -0.706,0.62731 0,0.59103 0.7812,0.56367 1.2864,-0.0451 z m -51.8464,-0.46222 c 0,-0.17048 -0.216,-0.22707 -0.48,-0.12576 -0.264,0.1013 -0.48,0.24078 -0.48,0.30995 0,0.0692 0.216,0.12577 0.48,0.12577 0.264,0 0.48,-0.13948 0.48,-0.30996 z m -1.92,-1.16428 c 0,-0.0692 -0.216,-0.12576 -0.48,-0.12576 -0.264,0 -0.48,0.13948 -0.48,0.30995 0,0.17048 0.216,0.22707 0.48,0.12577 0.264,-0.10131 0.48,-0.24079 0.48,-0.30996 z m 25.6,0 c 0,-0.0692 -0.216,-0.12576 -0.48,-0.12576 -0.264,0 -0.48,0.13948 -0.48,0.30995 0,0.17048 0.216,0.22707 0.48,0.12577 0.264,-0.10131 0.48,-0.24079 0.48,-0.30996 z m 8,-0.61702 c 0,-0.69847 -0.9748,-2.09737 -1.315,-1.88711 -0.4519,0.27927 -0.3323,1.15567 0.2446,1.79317 0.6462,0.71409 1.0704,0.75131 1.0704,0.0939 z m 4.7506,-0.61211 c 0.071,-0.36481 -0.045,-0.51867 -0.32,-0.42697 -0.2368,0.0788 -0.4804,0.40002 -0.5412,0.71371 -0.071,0.3648 0.045,0.51867 0.32,0.42696 0.2368,-0.0789 0.4804,-0.40002 0.5412,-0.7137 z m 26.1294,0.14335 c 0.1088,-0.176 -0.027,-0.32 -0.3011,-0.32 -0.2744,0 -0.4989,0.144 -0.4989,0.32 0,0.176 0.1355,0.32 0.3011,0.32 0.1656,0 0.3901,-0.144 0.4989,-0.32 z m -76.7481,-1.36 c -0.089,-0.22 -0.1614,-0.04 -0.1614,0.4 0,0.44 0.073,0.62 0.1614,0.4 0.089,-0.22 0.089,-0.58 0,-0.8 z m 79.3414,0.16666 c -0.3253,-0.32528 -0.5936,0.16445 -0.3268,0.59629 0.2017,0.32621 0.277,0.32646 0.3854,0.001 0.074,-0.22234 0.048,-0.49124 -0.059,-0.59758 z m -35.8733,-0.0867 c 0.1088,-0.176 -0.099,-0.32 -0.4611,-0.32 -0.3624,0 -0.6589,0.144 -0.6589,0.32 0,0.176 0.2075,0.32 0.4611,0.32 0.2536,0 0.5501,-0.144 0.6589,-0.32 z m 188,-0.35777 c 0,-0.176 -0.144,-0.23101 -0.32,-0.12223 -0.176,0.10877 -0.32,0.34177 -0.32,0.51777 0,0.176 0.144,0.231 0.32,0.12223 0.176,-0.10878 0.32,-0.34177 0.32,-0.51777 z m -160.64,-0.14112 c 0,-0.27439 -0.1463,-0.40844 -0.3252,-0.29789 -0.1789,0.11055 -0.2424,0.33505 -0.1411,0.49889 0.2743,0.44385 0.4663,0.36109 0.4663,-0.201 z m -57.28,-1.10111 c 0,-0.35556 -0.2133,-0.64 -0.48,-0.64 -0.2667,0 -0.48,0.28444 -0.48,0.64 0,0.35555 0.2133,0.64 0.48,0.64 0.2667,0 0.48,-0.28445 0.48,-0.64 z m 4.9284,-0.51317 c 0.2543,-0.66249 -0.8877,-0.55895 -1.5182,0.13765 -0.5021,0.55484 -0.4813,0.5775 0.4089,0.44684 0.5158,-0.0757 1.015,-0.33873 1.1093,-0.58449 z m -118.2084,-0.61178 c 0,-0.22362 -0.216,-0.48947 -0.48,-0.59077 -0.3629,-0.13925 -0.48,0.0572 -0.48,0.80494 0,0.84295 0.071,0.93027 0.48,0.59078 0.264,-0.2191 0.48,-0.58133 0.48,-0.80495 z m 110.038,-0.2645 c 0.4228,-0.50939 0.1615,-0.85055 -0.6513,-0.85055 -0.3734,0 -0.5867,0.23272 -0.5867,0.64 0,0.72968 0.7074,0.84999 1.238,0.21055 z m 18.5418,-0.29423 c 0.074,-0.384 -0.098,-0.55632 -0.5563,-0.55632 -0.458,0 -0.6635,0.20551 -0.6635,0.66346 0,0.82005 1.0591,0.72702 1.2198,-0.10714 z m 64.64,0 c 0.074,-0.384 -0.098,-0.55632 -0.5563,-0.55632 -0.458,0 -0.6635,0.20551 -0.6635,0.66346 0,0.82005 1.0591,0.72702 1.2198,-0.10714 z m -60.6254,-0.30097 c 0.1886,-0.29956 0.2524,-0.63523 0.1417,-0.74593 -0.3248,-0.32481 -1.5361,0.46792 -1.5361,1.0053 0,0.63415 0.9421,0.45891 1.3944,-0.25937 z m -134.6674,-0.0777 c 2.185,-0.91293 2.7757,-4.35816 0.7871,-4.59046 -0.6848,-0.08 -0.7987,0.0403 -0.8279,0.87444 -0.019,0.53195 -0.4146,1.54261 -0.88,2.2459 -1.3198,1.9943 -1.1152,2.32083 0.9208,1.47012 z m 145.3728,-0.26137 c 0.074,-0.384 -0.098,-0.55632 -0.5563,-0.55632 -0.458,0 -0.6635,0.20551 -0.6635,0.66346 0,0.82005 1.0591,0.72702 1.2198,-0.10714 z m 4.8602,-0.45422 0.8,-0.78133 -0.96,0.19969 c -0.528,0.10983 -1.284,0.2654 -1.68,0.34571 -0.458,0.0929 -0.72,0.37891 -0.72,0.78602 0,0.5344 0.1452,0.60628 0.88,0.43562 0.484,-0.11241 1.24,-0.55598 1.68,-0.98571 z m -30.1434,-0.59353 c -0.4168,-0.91469 -0.6633,-0.97532 -1.223,-0.30084 -0.4431,0.53386 -0.4381,0.54475 0.4796,1.03874 0.882,0.47482 1.167,0.19188 0.7434,-0.7379 z m 6.5178,0.80167 c 0.6459,-0.1794 1.5099,-0.61228 1.92,-0.96194 l 0.7456,-0.63576 -2.88,0.20655 c -2.7837,0.19964 -4.64,0.76339 -4.64,1.40912 0,0.41013 3.3578,0.3977 4.8544,-0.018 z m 28.4256,-0.3102 c 0,-0.42667 -0.2133,-0.64 -0.64,-0.64 -0.4267,0 -0.64,0.21333 -0.64,0.64 0,0.42666 0.2133,0.64 0.64,0.64 0.4267,0 0.64,-0.21334 0.64,-0.64 z m 8.9551,-0.78857 c 0,-0.58207 -0.034,-0.58983 -0.5189,-0.10482 -0.3228,0.32288 -0.439,0.74462 -0.3027,1.09961 0.1879,0.48981 0.2654,0.50547 0.5188,0.10481 0.1639,-0.25907 0.3001,-0.75389 0.3028,-1.0996 z m 16.6449,0.97142 c 0,-1.3178 -2.9501,-2.02414 -4.3077,-1.0314 -0.7599,0.55561 -0.3718,1.29786 0.4488,0.85864 0.3977,-0.21282 1.0257,-0.1724 1.9806,0.1275 1.8381,0.57724 1.8783,0.57821 1.8783,0.0453 z m 8,0.13715 c 0,-0.176 -0.2913,-0.6113 -0.6473,-0.96734 -0.5142,-0.51415 -0.7775,-0.57767 -1.28,-0.30874 -0.9139,0.48908 -0.7803,0.89517 0.4073,1.23807 1.4035,0.40526 1.52,0.40817 1.52,0.038 z m 1.4919,-0.72 c -0.089,-0.22 -0.1614,-0.04 -0.1614,0.4 0,0.44 0.073,0.62 0.1614,0.4 0.089,-0.22 0.089,-0.58 0,-0.8 z m -18.1544,0.12207 c 0.4154,-0.77618 0.156,-1.00207 -1.1508,-1.00207 -1.169,0 -1.336,0.32498 -0.5638,1.09714 0.6711,0.67113 1.3239,0.63493 1.7146,-0.0951 z m -182.0575,-0.42607 c 0,-0.51694 -0.095,-0.60938 -0.3561,-0.34789 -0.1959,0.19587 -0.2594,0.51267 -0.1411,0.704 0.331,0.53558 0.4972,0.41653 0.4972,-0.35611 z m 143.04,0.064 c 0.7508,-0.75078 0.8264,-1.28 0.1829,-1.28 -0.4832,0 -1.4629,0.83686 -1.4629,1.24952 0,0.24665 0.3371,0.67048 0.5333,0.67048 0.059,0 0.3947,-0.288 0.7467,-0.64 z m 33.44,0.32 c 0.1088,-0.176 -0.027,-0.32 -0.3011,-0.32 -0.2744,0 -0.4989,0.144 -0.4989,0.32 0,0.176 0.1355,0.32 0.3011,0.32 0.1656,0 0.3901,-0.144 0.4989,-0.32 z m 16.3719,-0.72 c -0.089,-0.22 -0.1614,-0.04 -0.1614,0.4 0,0.44 0.073,0.62 0.1614,0.4 0.089,-0.22 0.089,-0.58 0,-0.8 z m 14.5176,-0.22226 c -0.2995,-0.55953 -0.6609,-0.65774 -2.4208,-0.65774 -2.0897,0 -2.4681,0.23013 -1.5844,0.96353 0.5401,0.44826 4.0986,0.93112 4.2565,0.57758 0.055,-0.1241 -0.058,-0.52162 -0.2513,-0.88337 z m -31.6048,-1.15351 c 3.0307,-0.62205 3.1141,-1.32028 0.1114,-0.93262 -1.0759,0.13889 -2.8201,0.2651 -3.8761,0.28046 l -1.92,0.0279 0.1083,1.31019 0.1082,1.31019 1.4918,-0.74307 c 0.8204,-0.40869 2.6098,-0.97258 3.9764,-1.25308 z m -25.4208,0.39811 c 0.096,-0.50767 -0.097,-0.56582 -1.594,-0.48 -1.3425,0.0769 -1.7272,0.22018 -1.8138,0.67531 -0.097,0.50767 0.097,0.56582 1.594,0.48 1.3425,-0.0769 1.7272,-0.22018 1.8138,-0.67531 z m -37.5701,0.22342 c 0.725,-0.2782 0.6265,-0.60824 -0.3089,-1.0344 -1.1778,-0.53664 -1.7449,-0.45799 -1.7449,0.24197 0,0.83497 0.9688,1.20878 2.0538,0.79243 z m 41.2619,-0.28576 c 0.1466,-0.38195 -0.104,-0.48 -1.2269,-0.48 -2.2663,0 -2.2316,0.87775 0.037,0.93473 0.617,0.0155 1.0769,-0.16026 1.1899,-0.45473 z m 4.5208,0.0421 c 0.5799,-0.42404 0.5775,-0.44932 -0.078,-0.8 -1.5331,-0.8205 -2.9734,-0.18483 -1.9347,0.85388 0.5067,0.5067 1.274,0.48616 2.0125,-0.0539 z m 27.8227,0.1258 c 0.4514,-0.17165 0.8208,-0.53165 0.8208,-0.8 0,-0.37217 -0.3796,-0.48792 -1.6,-0.48792 -1.3635,0 -1.6,0.0907 -1.6,0.61333 0,0.93226 0.9746,1.2086 2.3792,0.67459 z m 8.1808,-0.34681 c 0,-0.16561 -0.144,-0.30111 -0.32,-0.30111 -0.176,0 -0.32,0.2245 -0.32,0.49888 0,0.27439 0.144,0.40989 0.32,0.30112 0.176,-0.10878 0.32,-0.33328 0.32,-0.49889 z m 6.72,0 c 0,-0.16561 -0.144,-0.30111 -0.32,-0.30111 -0.176,0 -0.32,0.2245 -0.32,0.49888 0,0.27439 0.144,0.40989 0.32,0.30112 0.176,-0.10878 0.32,-0.33328 0.32,-0.49889 z m -35.5761,-0.39877 c 0.097,-0.50767 -0.097,-0.56582 -1.594,-0.48 -1.3425,0.0769 -1.7272,0.22018 -1.8138,0.67531 -0.096,0.50767 0.097,0.56582 1.594,0.48 1.3425,-0.0769 1.7272,-0.22018 1.8138,-0.67531 z m 2.188,-0.30234 c -0.089,-0.22 -0.1614,-0.04 -0.1614,0.4 0,0.44 0.073,0.62 0.1614,0.4 0.089,-0.22 0.089,-0.58 0,-0.8 z m 24.5651,0.75713 c 0.2011,-0.32529 -1.6606,-1.1802 -1.9468,-0.89401 -0.1041,0.1041 -0.104,0.41149 2e-4,0.68308 0.2021,0.52663 1.6543,0.68399 1.9466,0.21093 z m 159.543,-0.35711 c 0,-0.42667 -0.2133,-0.64 -0.64,-0.64 -0.4267,0 -0.64,0.21333 -0.64,0.64 0,0.42666 0.2133,0.64 0.64,0.64 0.4267,0 0.64,-0.21334 0.64,-0.64 z m -169.9681,-0.0312 c 0.554,-0.19315 0.927,-0.48115 0.8288,-0.64 -0.261,-0.42241 -2.1887,-0.35283 -2.6367,0.0952 -0.9096,0.90965 -0.013,1.17973 1.8079,0.54483 z m 173.1681,-0.9433 c 0,-0.33688 -0.9286,-1.26553 -1.2655,-1.26553 -0.4062,0 -0.6159,1.1906 -0.2705,1.536 0.3454,0.34539 1.536,0.13574 1.536,-0.27047 z m -340.48,-0.6255 c 0,-0.176 -0.2075,-0.32 -0.4611,-0.32 -0.2536,0 -0.5501,0.144 -0.6589,0.32 -0.1088,0.176 0.099,0.32 0.4611,0.32 0.3624,0 0.6589,-0.144 0.6589,-0.32 z m -2.56,-1.28 c 0,-0.35556 -0.2133,-0.64 -0.48,-0.64 -0.2667,0 -0.48,0.28444 -0.48,0.64 0,0.35555 0.2133,0.64 0.48,0.64 0.2667,0 0.48,-0.28445 0.48,-0.64 z m 92.16,-2.56 c 0,-0.42667 -0.2133,-0.64 -0.64,-0.64 -0.4267,0 -0.64,0.21333 -0.64,0.64 0,0.42666 0.2133,0.64 0.64,0.64 0.4267,0 0.64,-0.21334 0.64,-0.64 z m -81.6,-0.44 c 0,-1.03124 -0.4129,-2.3547 -0.9616,-3.08209 -0.587,-0.77824 -0.5922,-0.77888 -1.2801,-0.15634 -0.6466,0.58515 -0.7106,0.58974 -1.0004,0.0718 -0.1704,-0.30434 -0.5283,-0.55334 -0.7954,-0.55334 -0.6298,0 -0.3042,1.16103 0.6038,2.15338 0.604,0.65997 0.6825,0.67273 1.0499,0.17038 0.3536,-0.48355 0.4515,-0.41275 0.8941,0.64662 0.4788,1.14603 1.4897,1.6547 1.4897,0.74962 z m -5.3319,-1.08 c 0.08,-0.132 -0.1992,-0.49873 -0.6211,-0.81494 -0.5717,-0.42853 -0.767,-0.4652 -0.767,-0.144 0,0.79123 1.0494,1.51614 1.3881,0.95894 z m 80.5319,-0.72 c 0.4137,-0.26733 0.4052,-0.31088 -0.061,-0.3151 -0.2976,-0.003 -0.6301,0.1391 -0.7389,0.3151 -0.2503,0.40499 0.1733,0.40499 0.8,0 z m -97.0614,-1.02 c -0.1022,-0.25528 -0.178,-0.17945 -0.1933,0.19333 -0.014,0.33733 0.062,0.52633 0.168,0.42 0.1064,-0.10633 0.1177,-0.38233 0.025,-0.61333 z m 24.4214,-0.59126 c 0,-0.40792 -1.1867,-0.39864 -1.44,0.0113 -0.1088,0.176 -0.1085,0.46439 5e-4,0.64086 0.2341,0.37866 1.4395,-0.16745 1.4395,-0.65212 z m -17.28,0.17126 c 0,-0.264 -0.144,-0.48 -0.32,-0.48 -0.176,0 -0.32,0.216 -0.32,0.48 0,0.264 0.144,0.48 0.32,0.48 0.176,0 0.32,-0.216 0.32,-0.48 z m 105.28,-0.65889 c 0,-0.27439 -0.144,-0.40989 -0.32,-0.30111 -0.176,0.10877 -0.32,0.33327 -0.32,0.49888 0,0.16562 0.144,0.30112 0.32,0.30112 0.176,0 0.32,-0.2245 0.32,-0.49889 z m -85.9337,-0.439 c 0.1013,-0.16384 0.038,-0.38834 -0.1411,-0.49889 -0.1789,-0.11055 -0.3252,0.0235 -0.3252,0.29789 0,0.56209 0.192,0.64485 0.4663,0.201 z m -31.7623,-1.04611 c -0.2987,-0.29867 -0.384,-0.21334 -0.384,0.384 0,0.59733 0.085,0.68266 0.384,0.384 0.2987,-0.29867 0.2987,-0.46934 0,-0.768 z m 26.176,0.24429 c 0,-0.23206 -0.216,-0.60119 -0.48,-0.82029 -0.3913,-0.32479 -0.48,-0.30731 -0.48,0.0946 0,0.79862 0.3646,1.51559 0.6735,1.32463 0.1576,-0.0974 0.2865,-0.36691 0.2865,-0.59898 z m 2.24,-0.19918 c 0,-0.16561 -0.144,-0.30111 -0.32,-0.30111 -0.176,0 -0.32,0.2245 -0.32,0.49888 0,0.27439 0.144,0.40989 0.32,0.30112 0.176,-0.10878 0.32,-0.33328 0.32,-0.49889 z m 2.4964,-1.98891 c 0.8126,-0.34167 0.9165,-0.50317 0.6407,-0.99597 -0.181,-0.3235 -0.2504,-1.07335 -0.1542,-1.66634 0.2104,-1.29662 0.024,-1.44174 -1.1932,-0.92879 -0.6001,0.25292 -0.7705,0.4457 -0.48,0.54326 0.3756,0.12613 0.3839,0.33621 0.05,1.26615 -0.4686,1.30614 -0.5157,2.18949 -0.1167,2.18949 0.1558,0 0.7197,-0.18351 1.2531,-0.4078 z m -3.4564,-0.2322 c 0,-0.176 -0.2245,-0.32 -0.4989,-0.32 -0.2744,0 -0.4099,0.144 -0.3011,0.32 0.1088,0.176 0.3333,0.32 0.4989,0.32 0.1656,0 0.3011,-0.144 0.3011,-0.32 z m -25.92,-0.81889 c 0,-0.27439 -0.144,-0.40989 -0.32,-0.30111 -0.176,0.10877 -0.32,0.33327 -0.32,0.49888 0,0.16562 0.144,0.30112 0.32,0.30112 0.176,0 0.32,-0.2245 0.32,-0.49889 z m -5.44,-3.34111 c 0,-0.42667 -0.2133,-0.64 -0.64,-0.64 -0.4267,0 -0.64,0.21333 -0.64,0.64 0,0.42666 0.2133,0.64 0.64,0.64 0.4267,0 0.64,-0.21334 0.64,-0.64 z m 122.24,0 c 0,-0.42667 -0.2133,-0.64 -0.64,-0.64 -0.4267,0 -0.64,0.21333 -0.64,0.64 0,0.42666 0.2133,0.64 0.64,0.64 0.4267,0 0.64,-0.21334 0.64,-0.64 z m -79.424,-0.384 c 0.5455,-0.54555 0.4755,-0.896 -0.179,-0.896 -0.3097,0 -0.7429,0.288 -0.9627,0.64 -0.3444,0.55141 -0.3196,0.64 0.179,0.64 0.3183,0 0.7515,-0.1728 0.9627,-0.384 z m -2.7201,-0.77343 c 1.1081,-0.55987 2.4641,-1.69462 2.4641,-2.06203 0,-0.12535 -0.396,-0.29588 -0.88,-0.37897 -0.484,-0.0831 -1.1336,-0.25946 -1.4436,-0.39194 -0.4316,-0.18444 -0.5181,-0.12227 -0.3694,0.26533 0.1084,0.28259 -0.102,0.88285 -0.4764,1.35878 -0.6269,0.79706 -0.8932,1.72626 -0.4947,1.72626 0.097,0 0.6367,-0.23285 1.2,-0.51743 z m 84.5304,-0.42046 c 0.1013,-0.16384 0.038,-0.38834 -0.1411,-0.49889 -0.1789,-0.11055 -0.3252,0.0235 -0.3252,0.29789 0,0.56209 0.192,0.64485 0.4663,0.201 z m -111.5063,-0.98211 c 0,-0.176 -0.216,-0.32 -0.48,-0.32 -0.264,0 -0.48,0.144 -0.48,0.32 0,0.176 0.216,0.32 0.48,0.32 0.264,0 0.48,-0.144 0.48,-0.32 z m 20.16,-1.13889 c 0,-0.27439 -0.1463,-0.40844 -0.3252,-0.29789 -0.1789,0.11055 -0.2424,0.33505 -0.1411,0.49889 0.2743,0.44385 0.4663,0.36109 0.4663,-0.201 z m -17.1009,-0.92538 c 0.5527,-0.84354 0.5242,-1.80837 -0.059,-2.0026 -0.1981,-0.0659 -0.4385,0.21013 -0.5342,0.61349 -0.096,0.40336 -0.2745,1.05738 -0.3972,1.45338 -0.3023,0.97534 0.3366,0.93389 0.9906,-0.0643 z m 31.1809,-0.35462 c 0,-0.27439 -0.144,-0.40989 -0.32,-0.30111 -0.176,0.10877 -0.32,0.33327 -0.32,0.49888 0,0.16562 0.144,0.30112 0.32,0.30112 0.176,0 0.32,-0.2245 0.32,-0.49889 z m -42.3481,-0.86111 c -0.089,-0.22 -0.1614,-0.04 -0.1614,0.4 0,0.44 0.073,0.62 0.1614,0.4 0.089,-0.22 0.089,-0.58 0,-0.8 z m 38.3481,0.4 c 0,-0.25918 -0.252,-0.51977 -0.56,-0.57908 -0.3929,-0.0757 -0.56,0.0971 -0.56,0.57908 0,0.48196 0.1671,0.65475 0.56,0.57908 0.308,-0.0593 0.56,-0.3199 0.56,-0.57908 z m 2.4,-0.79279 c 0,-0.23926 0.5058,-0.74763 1.124,-1.12971 0.6183,-0.38209 1.2713,-0.96983 1.4513,-1.3061 0.2891,-0.54016 0.2127,-0.6114 -0.6553,-0.6114 -0.9029,0 -0.953,-0.0551 -0.6182,-0.6807 0.4209,-0.78655 -0.014,-1.22618 -1.2218,-1.2344 -0.839,-0.006 -0.9447,0.56023 -0.2056,1.10065 0.4539,0.33197 0.36,0.55438 -0.8,1.89474 -0.7229,0.83525 -1.3144,1.57727 -1.3144,1.64895 0,0.25397 1.7613,1.04886 1.9988,0.90208 0.1326,-0.082 0.2412,-0.34485 0.2412,-0.58411 z m 5.737,-1.57955 c 0.2065,-0.24878 0.707,-1.65278 1.1123,-3.12 0.4053,-1.46721 0.8454,-2.91966 0.978,-3.22766 0.3407,-0.79103 -0.6095,-0.73777 -1.4273,0.08 -0.4231,0.42313 -0.64,1.06666 -0.64,1.89917 0,0.69254 -0.1612,1.66454 -0.3581,2.16 -0.3678,0.92497 -0.4065,0.89225 -0.7422,-0.62787 -0.1943,-0.87973 -0.2041,-0.88296 -0.9779,-0.32 -1.0403,0.75683 -0.9986,1.21515 0.2286,2.51626 1.1586,1.22833 1.2979,1.27715 1.8266,0.6401 z m -31.337,-0.44366 c 0,-0.45222 -0.7505,-1.024 -1.344,-1.024 -0.6382,0 -0.661,0.0462 -0.3818,0.77382 0.195,0.50809 1.7258,0.73 1.7258,0.25018 z m 8.2591,-1.584 c -0.059,-0.308 -0.3199,-0.56 -0.5791,-0.56 -0.2592,0 -0.5198,0.252 -0.5791,0.56 -0.076,0.39291 0.097,0.56 0.5791,0.56 0.482,0 0.6547,-0.16709 0.5791,-0.56 z m 101.0209,-4.56 c 0.1088,-0.176 -0.018,-0.32 -0.2822,-0.32 -0.264,0 -0.569,0.144 -0.6778,0.32 -0.1088,0.176 0.018,0.32 0.2822,0.32 0.264,0 0.569,-0.144 0.6778,-0.32 z m -72.48,-2.08 c 0.339,-0.40853 0.2554,-0.48 -0.5616,-0.48 -0.528,0 -1.1393,0.216 -1.3584,0.48 -0.339,0.40852 -0.2554,0.48 0.5616,0.48 0.528,0 1.1393,-0.216 1.3584,-0.48 z m -14.4049,-0.88 c 0,-0.58222 -0.064,-0.62815 -0.3151,-0.24 -0.4009,0.6204 -0.4009,0.96 0,0.96 0.176,0 0.3178,-0.324 0.3151,-0.72 z m 16.7707,-1.06618 c 0.3307,-0.86189 0.2174,-1.14433 -0.3826,-0.95389 -0.3172,0.10069 -0.8572,-0.029 -1.2,-0.28826 -0.7753,-0.58633 -1.1032,-0.61096 -1.1032,-0.0829 0,1.38648 2.2384,2.49081 2.6858,1.32503 z m 2.4831,-2.51342 c 0.42,-0.92166 0.1697,-1.7804 -0.5189,-1.7804 -0.3583,0 -0.49,0.34389 -0.49,1.28 0,1.4387 0.4742,1.67392 1.0089,0.5004 z m -30.1289,-0.0393 c 0,-0.27439 -0.144,-0.40989 -0.32,-0.30111 -0.176,0.10877 -0.32,0.33327 -0.32,0.49888 0,0.16562 0.144,0.30112 0.32,0.30112 0.176,0 0.32,-0.2245 0.32,-0.49889 z m -8.64,-1.10111 c 0,-0.42667 -0.2133,-0.64 -0.64,-0.64 -0.4267,0 -0.64,0.21333 -0.64,0.64 0,0.42666 0.2133,0.64 0.64,0.64 0.4267,0 0.64,-0.21334 0.64,-0.64 z m 41.7611,-1.28172 c 0.1104,-0.17862 -0.1544,-0.31828 -0.6033,-0.31828 -0.86,0 -1.3182,0.44153 -0.9973,0.96086 0.2142,0.3466 1.245,-0.0672 1.6006,-0.64258 z m 3.0599,0.63046 c 0.3405,-0.18219 0.619,-0.6393 0.619,-1.01578 0,-0.68149 0,-0.68119 -0.8,0.067 -1.1726,1.10164 -1.0737,1.62025 0.181,0.94874 z m 63.979,-0.2987 c 0,-0.17048 -0.216,-0.22707 -0.48,-0.12576 -0.264,0.1013 -0.48,0.24078 -0.48,0.30995 0,0.0692 0.216,0.12577 0.48,0.12577 0.264,0 0.48,-0.13948 0.48,-0.30996 z m -95.68,-0.33003 c 0.3881,-0.25084 0.3422,-0.31114 -0.24,-0.3151 -0.396,-0.003 -0.72,0.1391 -0.72,0.3151 0,0.40093 0.3396,0.40093 0.96,0 z m 3.1951,-2.32 c 0,-0.56215 -0.069,-0.61812 -0.2989,-0.25528 -0.1617,0.2556 -0.223,0.5796 -0.1362,0.72 0.2776,0.4491 0.4401,0.27545 0.4351,-0.46472 z m 29.2176,-0.59934 c 0.741,-0.37363 1.3723,-0.69861 1.4028,-0.72217 0.031,-0.0236 -0.057,-0.54586 -0.1951,-1.16066 -0.2154,-0.9605 -0.2859,-1.02776 -0.5013,-0.47783 -0.1379,0.352 -0.7633,1.18 -1.3898,1.84 -1.3088,1.37863 -1.193,1.46683 0.6834,0.52066 z m 6.1473,-1.56066 c 0.1088,-0.176 -0.018,-0.32 -0.2822,-0.32 -0.264,0 -0.569,0.144 -0.6778,0.32 -0.1088,0.176 0.018,0.32 0.2822,0.32 0.264,0 0.569,-0.144 0.6778,-0.32 z m -1.7134,-2.1825 c 0.4657,-0.91163 0.8015,-1.6575 0.7462,-1.6575 -0.6359,0 -1.2836,0.66537 -1.784,1.83273 -0.7189,1.67725 -0.7323,1.78048 -0.2088,1.61143 0.22,-0.071 0.781,-0.87504 1.2466,-1.78666 z m -30.228,0.5225 c -0.1022,-0.25528 -0.178,-0.17945 -0.1933,0.19333 -0.014,0.33733 0.062,0.52633 0.168,0.42 0.1064,-0.10633 0.1177,-0.38233 0.025,-0.61333 z m 34.0245,-1.52116 c 0,-0.27437 0.3551,-1.25484 0.7853,-2.17884 l 0.7822,-1.68 h -0.9059 c -0.7804,0 -1,0.21882 -1.5853,1.57932 -0.7745,1.80037 -0.827,2.34687 -0.3173,3.29938 0.3507,0.65525 0.376,0.65771 0.8,0.0778 0.2409,-0.32936 0.4393,-0.82331 0.441,-1.09767 z m 56.3169,0.30116 c 0,-0.176 -0.216,-0.32 -0.48,-0.32 -0.264,0 -0.48,0.144 -0.48,0.32 0,0.176 0.216,0.32 0.48,0.32 0.264,0 0.48,-0.144 0.48,-0.32 z m -54.2067,-1.19334 c -0.3253,-0.32528 -0.5936,0.16445 -0.3268,0.59629 0.2017,0.32621 0.277,0.32646 0.3854,0.001 0.074,-0.22234 0.048,-0.49124 -0.059,-0.59758 z m 32.4467,-1.04666 c 0,-0.42667 -0.2133,-0.64 -0.64,-0.64 -0.4267,0 -0.64,0.21333 -0.64,0.64 0,0.42666 0.2133,0.64 0.64,0.64 0.4267,0 0.64,-0.21334 0.64,-0.64 z m -30.699,-2.57126 c 0.3405,-0.18219 0.619,-0.6393 0.619,-1.01578 0,-0.68149 0,-0.68119 -0.8,0.067 -1.1726,1.10164 -1.0737,1.62025 0.181,0.94874 z m -43.9691,-4.54874 c -0.089,-0.22 -0.1614,-0.04 -0.1614,0.4 0,0.44 0.073,0.62 0.1614,0.4 0.089,-0.22 0.089,-0.58 0,-0.8 z m 54.3344,0.10211 c 0.1013,-0.16384 0.038,-0.38834 -0.1411,-0.49889 -0.1789,-0.11055 -0.3252,0.0235 -0.3252,0.29789 0,0.56209 0.192,0.64485 0.4663,0.201 z m -35.6663,-0.98211 c 0,-0.176 -0.2965,-0.32 -0.6589,-0.32 -0.3624,0 -0.5699,0.144 -0.4611,0.32 0.1088,0.176 0.4053,0.32 0.6589,0.32 0.2536,0 0.4611,-0.144 0.4611,-0.32 z m 33.6,-1.47777 c 0,-0.264 -0.144,-0.39101 -0.32,-0.28223 -0.176,0.10877 -0.32,0.41377 -0.32,0.67777 0,0.264 0.144,0.391 0.32,0.28223 0.176,-0.10878 0.32,-0.41377 0.32,-0.67777 z m 6.96,-0.11786 c 0.5891,-0.004 0.72,-0.18267 0.72,-0.98541 0,-0.53957 -0.1616,-1.28295 -0.3591,-1.65195 -0.3466,-0.64768 -0.3735,-0.63659 -0.7758,0.32033 -0.2292,0.54518 -0.8806,1.2311 -1.4475,1.52426 -0.7994,0.41337 -0.9305,0.59854 -0.5842,0.82487 0.2456,0.16052 0.7346,0.21994 1.0866,0.13206 0.352,-0.0879 0.964,-0.16176 1.36,-0.16416 z m 3.12,-2.88437 c 0.1117,-0.18074 -0.1504,-0.32 -0.6022,-0.32 -0.44,0 -0.889,0.144 -0.9978,0.32 -0.1117,0.18074 0.1504,0.32 0.6022,0.32 0.44,0 0.889,-0.144 0.9978,-0.32 z m 38.56,-1.6 c 0,-0.42667 -0.2133,-0.64 -0.64,-0.64 -0.4267,0 -0.64,0.21333 -0.64,0.64 0,0.42666 0.2133,0.64 0.64,0.64 0.4267,0 0.64,-0.21334 0.64,-0.64 z m 0,-3.22104 c 0,-1.43917 -0.8443,-2.8388 -1.7216,-2.85406 -0.402,-0.007 -0.035,2.78059 0.4415,3.35492 0.6721,0.80984 1.2801,0.57195 1.2801,-0.50086 z m 203.04,-18.85896 c 0.1088,-0.176 -0.027,-0.32 -0.3011,-0.32 -0.2744,0 -0.4989,0.144 -0.4989,0.32 0,0.176 0.1355,0.32 0.3011,0.32 0.1656,0 0.3901,-0.144 0.4989,-0.32 z m 55.36,-3.2 c -0.1088,-0.176 -0.3333,-0.32 -0.4989,-0.32 -0.1656,0 -0.3011,0.144 -0.3011,0.32 0,0.176 0.2245,0.32 0.4989,0.32 0.2744,0 0.4099,-0.144 0.3011,-0.32 z m -313.76,211.52 c 0,-0.60723 0.1638,-0.96 0.4458,-0.96 0.6159,0 0.9233,0.94708 0.4805,1.48056 -0.5844,0.70419 -0.9263,0.51205 -0.9263,-0.52056 z m 91.36,-8 c 0.1088,-0.176 0.4138,-0.32 0.6778,-0.32 0.264,0 0.391,0.144 0.2822,0.32 -0.1088,0.176 -0.4138,0.32 -0.6778,0.32 -0.264,0 -0.391,-0.144 -0.2822,-0.32 z m -90.3413,-0.70934 c -0.4512,-0.45119 -0.5016,-1.21066 -0.08,-1.21066 0.3144,0 0.8134,1.23487 0.5895,1.45878 -0.072,0.0718 -0.301,-0.0399 -0.5092,-0.24812 z M 67.086192,385.17195 c -0.603489,-0.30773 -1.395489,-0.96586 -1.76,-1.46252 -0.641724,-0.87438 -0.665707,-1.32962 -0.756059,-14.35147 -0.09074,-13.07822 -0.07494,-13.48641 0.574145,-14.82723 0.451571,-0.93283 1.051015,-1.56954 1.853312,-1.96853 1.137695,-0.5658 3.91498,-0.59625 68.38585,-0.74975 l 67.2,-0.16 1.92,-0.89624 c 3.77189,-1.76069 5.9568,-4.94552 6.55533,-9.55539 0.39189,-3.01829 0.40628,-12.15657 0.0244,-15.47723 -0.79716,-6.93123 -4.02668,-10.28007 -10.64795,-11.04139 -1.56428,-0.17986 -22.21009,-0.30589 -50.34391,-0.30732 -54.113147,-0.003 -53.182717,0.035 -60.787837,-2.46369 -11.870588,-3.90005 -19.524958,-11.83198 -23.001594,-23.83567 -1.58252,-5.46392 -1.855871,-8.4386 -2.030431,-22.09565 -0.176907,-13.84064 0.05958,-17.89406 1.355128,-23.22679 2.138293,-8.80164 6.787363,-15.74547 13.748715,-20.535 3.723319,-2.56171 9.936052,-4.98124 16.014412,-6.23676 5.150667,-1.0639 12.095657,-1.15825 78.247887,-1.06306 62.45992,0.0899 65.49442,0.1206 66.33527,0.67157 0.48464,0.31757 1.16175,1.03757 1.50469,1.6 0.59203,0.97096 0.62359,1.70614 0.62472,14.55289 0.001,14.74383 -0.0418,15.13406 -1.79791,16.28484 -0.85496,0.56024 -3.59737,0.59164 -65.06673,0.74522 -59.70401,0.14916 -64.28662,0.19882 -65.78864,0.71294 -3.5583,1.21795 -5.94025,3.6078 -7.08874,7.11225 -0.68323,2.08477 -0.98239,14.82137 -0.42351,18.03069 0.95524,5.4854 4.22087,8.80976 9.50408,9.67502 1.12272,0.18388 21.31176,0.30615 50.82265,0.30781 33.50869,0.002 49.8689,0.11341 51.84,0.35338 3.83628,0.46705 9.37772,1.88728 12.78698,3.27722 1.52424,0.62143 4.17307,2.06303 5.88629,3.20357 8.30454,5.52856 13.27457,14.00304 15.1384,25.81279 0.3171,2.00919 0.42833,6.99377 0.42833,19.194 0,14.61878 -0.0648,16.78719 -0.57357,19.2 -2.87387,13.62849 -10.24917,22.42266 -22.62643,26.97931 -3.36364,1.23832 -8.12695,2.26342 -12.86739,2.76917 -2.04618,0.2183 -27.18131,0.33135 -73.6,0.33102 -66.47967,-4.7e-4 -70.555068,-0.0324 -71.589858,-0.56 z m 211.918468,-0.0614 c -0.82842,-0.37612 -1.56034,-1.01387 -1.92,-1.67298 -0.55735,-1.0214 -0.58122,-4.43633 -0.58122,-83.14514 0,-80.89941 0.009,-82.09489 0.62594,-83.11483 1.31971,-2.1818 1.18075,-2.16517 18.09406,-2.16517 17.29981,0 16.78836,-0.0728 17.95049,2.55439 0.60136,1.35947 0.61265,3.12774 0.53195,83.31383 l -0.0824,81.92488 -0.66275,0.90345 c -1.49775,2.04171 -1.33418,2.02312 -17.73725,2.01592 -13.92623,-0.006 -14.96581,-0.0455 -16.21878,-0.61435 z m 69.81878,0.0185 c -0.73523,-0.33848 -1.55238,-1.0505 -1.92,-1.67297 -0.63412,-1.07373 -0.64091,-1.74821 -0.73851,-73.40368 -0.0697,-51.19033 0.005,-73.46973 0.25696,-76.25513 0.83731,-9.26924 3.33224,-13.99881 8.73911,-16.56652 4.61188,-2.19017 4.89158,-2.21374 26.30244,-2.21617 21.48222,-0.002 22.36378,0.0712 26.91434,2.24934 4.36866,2.09104 7.18416,5.49585 10.83966,13.10848 1.09868,2.288 13.33982,30.368 27.20255,62.4 15.67038,36.20887 25.51481,58.57288 26.02407,59.12 0.78462,0.84294 0.94953,0.88 3.91561,0.88 2.84885,0 3.15757,-0.0618 3.86013,-0.77217 0.46486,-0.47004 10.83391,-24.03983 26.50139,-60.24 14.15576,-32.70726 26.45077,-60.90778 27.32225,-62.66778 4.82547,-9.74531 9.08765,-12.9857 18.27558,-13.89432 4.51039,-0.44604 32.05165,-0.4507 36.39051,-0.006 9.481,0.97139 13.97714,4.83409 15.77862,13.55563 1.05129,5.08963 1.1656,14.10191 1.06979,84.34484 l -0.0945,69.28 -0.72614,1.16771 c -1.35004,2.17098 -1.52004,2.19235 -17.44034,2.19179 -15.82099,-5.6e-4 -15.71324,0.0136 -17.02263,-2.2395 -0.64803,-1.11508 -0.65124,-1.4076 -0.7301,-66.56 l -0.0792,-65.44 -0.67625,-0.56 c -0.89795,-0.7436 -3.61473,-0.74333 -5.02962,4.9e-4 -1.00563,0.52867 -2.47217,3.68538 -26.6107,57.27902 -14.05054,31.19573 -26.22621,57.97973 -27.05705,59.52 -4.21647,7.81675 -8.22034,12.3577 -13.10653,14.86466 -5.14173,2.63806 -8.47304,3.13205 -21.12144,3.13205 -12.6484,0 -15.97971,-0.49399 -21.12144,-3.13205 -5.32217,-2.73064 -9.63857,-7.90481 -14.06841,-16.86417 -1.13128,-2.288 -13.0955,-28.64 -26.58716,-58.56 -13.49166,-29.92 -24.72678,-54.78039 -24.96692,-55.24531 -0.80696,-1.56227 -4.7604,-2.15775 -6.26062,-0.94299 l -0.75545,0.61156 -0.16,65.72241 c -0.1533,62.96934 -0.1845,65.7598 -0.74489,66.61502 -1.15661,1.76513 -1.4839,1.79979 -16.92483,1.79213 -13.07828,-0.006 -14.26892,-0.0524 -15.45028,-0.59632 z m 291.46122,-0.0185 c -0.82842,-0.37612 -1.56034,-1.01387 -1.92,-1.67298 -0.55664,-1.0201 -0.58471,-4.47449 -0.6637,-81.69471 -0.0725,-70.88364 -0.0245,-80.82911 0.39744,-82.28045 0.63647,-2.1894 2.35194,-3.76831 4.62351,-4.25547 2.19975,-0.47176 131.90427,-0.49657 139.54153,-0.0267 26.91191,1.65575 41.11591,13.01054 45.11997,36.06925 1.00295,5.7758 1.3746,14.59773 1.17635,27.92293 -0.17949,12.06388 -0.36451,14.54501 -1.50492,20.18069 -3.5216,17.40306 -14.16159,28.18148 -31.68414,32.09636 -8.98147,2.00664 -5.80674,1.90818 -65.6596,2.03641 l -54.63233,0.11704 -0.0877,24.60145 c -0.0866,24.30936 -0.0955,24.61218 -0.75041,25.50475 -1.49788,2.04156 -1.33434,2.02297 -17.73725,2.01577 -13.92623,-0.006 -14.96581,-0.0455 -16.21878,-0.61435 z m 137.17878,-84.6124 c 7.31117,-2.05276 11.2561,-5.95058 13.03351,-12.87785 0.83933,-3.27122 0.83888,-21.52845 -6.2e-4,-25.1017 -2.06698,-8.79789 -7.72285,-12.9508 -18.7175,-13.74359 -6.37559,-0.45973 -93.74839,-0.43115 -95.07439,0.0311 -0.55798,0.19451 -1.15547,0.61704 -1.32775,0.93896 -0.1968,0.36772 -0.31325,10.05265 -0.31325,26.0531 v 25.4678 l 50.16,-0.0919 c 47.42302,-0.0869 50.2735,-0.12378 52.24,-0.67591 z m 129.92,84.7516 c -18.86648,-1.53594 -31.40704,-6.25771 -40.33066,-15.18529 -8.4551,-8.45885 -12.89035,-20.1577 -14.38075,-37.93201 -0.19963,-2.38076 -0.32324,-24.69688 -0.32529,-58.725 -0.003,-52.93177 0.0179,-54.92467 0.59289,-56 0.32791,-0.61325 1.08391,-1.403 1.68,-1.755 1.04327,-0.61606 1.65841,-0.64 16.44381,-0.64 14.67897,0 15.40588,0.0277 16.39483,0.62594 0.56916,0.34426 1.28916,1.13626 1.6,1.76 0.53149,1.06648 0.57587,4.41394 0.74473,56.17406 0.17805,54.57457 0.1853,55.0657 0.85785,58.08 0.76351,3.42197 1.58543,5.91777 2.63962,8.01539 2.47843,4.93152 6.98917,8.26798 13.34811,9.87317 5.75949,1.45388 4.65007,1.42506 62.07152,1.61257 l 54.7766,0.17887 0.9034,0.66878 c 1.8783,1.39065 1.8633,1.25779 1.8633,16.45122 0,15.19354 0.015,15.06064 -1.8634,16.45122 l -0.9035,0.66878 -55.5765,0.0405 c -42.21358,0.0308 -56.76916,-0.0565 -60.53656,-0.36325 z m 193.91996,-0.0109 c -19.0332,-1.6002 -31.5915,-6.37662 -40.4562,-15.38711 -8.8001,-8.94489 -13.2704,-21.97877 -14.2536,-41.55926 -0.4214,-8.39311 -0.4201,-50.66916 0,-57.44 1.4811,-23.76869 8.4111,-38.01054 22.708,-46.66707 5.8628,-3.54985 14.6432,-6.42155 23.5662,-7.70757 10.2589,-1.47855 9.6097,-1.46536 72.1138,-1.46536 58.5754,0 59.3738,0.008 60.4068,0.63301 0.5757,0.34815 1.3317,1.22162 1.68,1.94103 0.5993,1.23809 0.6332,2.00835 0.6327,14.40699 -5e-4,14.4283 -0.01,14.47709 -2.0229,15.95622 l -0.9033,0.66275 -58.6167,0.18037 c -61.4506,0.1891 -60.5443,0.16698 -66.2966,1.61804 -11.9086,3.00403 -16.8,11.52261 -16.8,29.25798 v 4.94361 l 70,10e-4 c 68.8624,0.001 70.0166,0.0113 71.0245,0.62585 2.0016,1.22044 2.0155,1.31905 2.0155,14.25296 0,12.9339 -0.014,13.03251 -2.0155,14.25295 -1.0079,0.6145 -2.1621,0.62467 -71.0245,0.62585 l -70,0.001 v 5.42745 c 0,13.0541 1.9763,20.30597 6.852,25.14227 3.245,3.21885 6.1455,4.62803 12.348,5.99919 3.011,0.66563 3.6079,0.67376 62.56,0.85156 58.5706,0.17666 59.5367,0.18962 60.5668,0.81254 0.5757,0.34815 1.3363,1.23107 1.6902,1.96204 0.6179,1.27656 0.6398,1.8602 0.5532,14.7839 -0.087,13.03093 -0.1111,13.48333 -0.7529,14.35796 -0.3646,0.4967 -1.1566,1.15486 -1.76,1.46259 -1.0337,0.52708 -4.5093,0.55731 -59.9773,0.52169 -45.3615,-0.0291 -60.0188,-0.13356 -63.84,-0.45482 z m 537.12,-2.06637 c 0.1088,-0.176 0.3333,-0.32 0.4989,-0.32 0.1656,0 0.3011,0.144 0.3011,0.32 0,0.176 -0.2245,0.32 -0.4989,0.32 -0.2744,0 -0.4099,-0.144 -0.3011,-0.32 z m -58.24,-68.8 c 0.1088,-0.176 0.4053,-0.32 0.6589,-0.32 0.2536,0 0.4611,0.144 0.4611,0.32 0,0.176 -0.2965,0.32 -0.6589,0.32 -0.3624,0 -0.5699,-0.144 -0.4611,-0.32 z m -4.098,-1.16464 c -0.3691,-0.36909 0.1198,-0.75536 0.9561,-0.75536 0.6928,0 0.7584,0.0746 0.4219,0.48 -0.4165,0.5018 -1.0291,0.62423 -1.378,0.27536 z m 23.458,-1.6456 c 0,-0.37461 1.4496,-1.02976 2.2785,-1.02976 0.4447,0 0.615,0.17596 0.5422,0.56 -0.077,0.40849 -0.4734,0.58662 -1.4635,0.6584 -0.7464,0.0541 -1.3572,-0.0308 -1.3572,-0.18864 z m 4.3733,0.0369 c -0.3779,-0.3779 -0.228,-1.15963 0.3467,-1.80867 0.5533,-0.62486 0.533,-0.62997 -1.7061,-0.42797 -1.2464,0.11244 -2.725,0.2962 -3.2858,0.40836 -0.8226,0.16452 -0.9842,0.1116 -0.8362,-0.27389 0.3202,-0.83453 1.8248,-1.29821 4.7152,-1.45306 l 2.8071,-0.1504 -0.3402,0.89467 c -0.4275,1.12456 -0.2016,1.7443 0.636,1.7443 0.9143,0 0.8092,0.5953 -0.1708,0.96792 -0.9527,0.3622 -1.861,0.40361 -2.1659,0.0987 z m 3.9467,-1.38666 c 0,-0.78673 0.1225,-0.98335 0.56,-0.89908 0.3533,0.068 0.56,0.39994 0.56,0.89908 0,0.49914 -0.2067,0.83105 -0.56,0.89908 -0.4375,0.0843 -0.56,-0.11235 -0.56,-0.89908 z m 2.88,-0.32 c 0,-0.176 0.144,-0.32 0.32,-0.32 0.176,0 0.32,0.144 0.32,0.32 0,0.176 -0.144,0.32 -0.32,0.32 -0.176,0 -0.32,-0.144 -0.32,-0.32 z m 1.3367,-0.54404 c 0.089,-0.4695 0.4837,-0.5937 2.1331,-0.67192 1.8031,-0.0855 2.0113,-0.0333 1.9135,0.48 -0.089,0.4695 -0.4837,0.59369 -2.1331,0.67192 -1.8031,0.0855 -2.0113,0.0333 -1.9135,-0.48 z m 5.7033,-0.41596 c 0,-0.176 0.2245,-0.32 0.4989,-0.32 0.2744,0 0.4099,0.144 0.3011,0.32 -0.1088,0.176 -0.3333,0.32 -0.4989,0.32 -0.1656,0 -0.3011,-0.144 -0.3011,-0.32 z m 4.8,-0.46112 c 0,-0.27438 0.144,-0.49888 0.32,-0.49888 0.176,0 0.32,0.1355 0.32,0.30111 0,0.16561 -0.144,0.39011 -0.32,0.49889 -0.176,0.10877 -0.32,-0.0267 -0.32,-0.30112 z m 4.16,-0.22451 c 0,-0.3288 1.3795,-0.91437 2.1542,-0.91437 0.7325,0 0.2569,0.37568 -1.0402,0.8216 -0.6127,0.21064 -1.114,0.25239 -1.114,0.0928 z m 4.2381,-0.67437 c 0.072,-0.22 0.6602,-0.4447 1.3066,-0.49932 0.894,-0.0756 1.1753,0.0202 1.1753,0.4 0,0.3709 -0.3361,0.49932 -1.3067,0.49932 -0.902,0 -1.2659,-0.12386 -1.1752,-0.4 z m -16.7981,-0.42304 c -0.484,-0.26257 -0.88,-0.54435 -0.88,-0.62618 0,-0.0818 2.052,-0.13277 4.56,-0.11321 l 4.56,0.0356 -1.28,0.59504 c -1.6164,0.75144 -5.6589,0.81463 -6.96,0.10879 z m 21.9199,-0.21696 c 0.2016,-0.6055 1.2001,-0.69159 1.2001,-0.10347 0,0.29685 -0.2736,0.50347 -0.6667,0.50347 -0.391,0 -0.6116,-0.16538 -0.5334,-0.4 z m -11.1831,-0.15349 c -1.0108,-0.0916 -1.2993,-0.23611 -1.1658,-0.58409 0.2471,-0.64394 3.629,-0.65946 3.629,-0.0167 0,0.36024 -0.8625,0.98988 -1.0662,0.77833 -0.03,-0.0307 -0.6582,-0.11066 -1.397,-0.17758 z m 32.7195,-1.15672 c -0.449,-0.58861 -0.8163,-1.13188 -0.8163,-1.20727 0,-0.0754 0.576,-0.13707 1.28,-0.13707 1.2671,0 1.28,0.0121 1.28,1.20727 0,1.5401 -0.6355,1.59005 -1.7437,0.13707 z m -26.7363,-0.0498 c 0,-0.38469 0.4844,-0.48 2.4392,-0.48 2.1319,0 2.389,0.0605 2.0408,0.48 -0.2779,0.33485 -1.0155,0.48 -2.4392,0.48 -1.6007,0 -2.0408,-0.10351 -2.0408,-0.48 z m 15.36,-0.48 c 0,-0.35556 0.2133,-0.64 0.48,-0.64 0.2667,0 0.48,0.28444 0.48,0.64 0,0.35555 -0.2133,0.64 -0.48,0.64 -0.2667,0 -0.48,-0.28445 -0.48,-0.64 z m -5.5093,0.0837 c 0.9299,-0.0648 2.3699,-0.0642 3.2,0.002 0.8301,0.0657 0.069,0.11874 -1.6907,0.1179 -1.76,-8.3e-4 -2.4392,-0.0546 -1.5093,-0.11941 z m 7.6893,0.0177 c 0.231,-0.0924 0.507,-0.0811 0.6133,0.0253 0.1064,0.10634 -0.083,0.18197 -0.42,0.16807 -0.3727,-0.0154 -0.4486,-0.0912 -0.1933,-0.19333 z m 2.7125,-0.63662 c 0.5326,-0.5157 3.1615,-0.83301 3.7382,-0.45121 0.7985,0.5286 0.047,0.82643 -2.0849,0.82643 -1.5677,0 -1.9509,-0.087 -1.6533,-0.37522 z m 134.4675,-1.06478 c 0.1088,-0.176 0.4138,-0.32 0.6778,-0.32 0.264,0 0.391,0.144 0.2822,0.32 -0.1088,0.176 -0.4138,0.32 -0.6778,0.32 -0.264,0 -0.391,-0.144 -0.2822,-0.32 z m -188.48,-58.56 c 0.1088,-0.176 0.3333,-0.32 0.4989,-0.32 0.1656,0 0.3011,0.144 0.3011,0.32 0,0.176 -0.2245,0.32 -0.4989,0.32 -0.2744,0 -0.4099,-0.144 -0.3011,-0.32 z m 166.88,-48 c 0.6261,-0.40461 1.28,-0.40461 1.28,0 0,0.176 -0.396,0.31779 -0.88,0.3151 -0.6857,-0.004 -0.774,-0.0734 -0.4,-0.3151 z m 2.9533,-0.38 c 0.1978,-0.59335 0.8867,-0.69177 0.8867,-0.12667 0,0.27867 -0.228,0.50667 -0.5067,0.50667 -0.2786,0 -0.4496,-0.171 -0.38,-0.38 z"
       id="path1" />
  </g>
</svg>
