<?xml version="1.0" encoding="UTF-8" standalone="no"?>
<!-- Created with Inkscape (http://www.inkscape.org/) -->

<svg
   version="1.1"
   id="svg1"
   width="512"
   height="512"
   viewBox="0 0 512 512"
   xmlns="http://www.w3.org/2000/svg"
   xmlns:svg="http://www.w3.org/2000/svg">
  <defs
     id="defs1" />
  <g
     id="g1">
    <path
       style="fill:#000000"
       d="m 238.62185,456.36815 c -1.96729,-0.19411 -3.65365,-0.43129 -3.74747,-0.52706 -0.51771,-0.52849 1.80007,-2.58626 9.68162,-8.59553 7.9193,-6.03806 8.92721,-6.71109 10.53337,-7.03365 0.97685,-0.19618 1.96808,-0.35669 2.20273,-0.35669 0.59159,0 0.53471,0.87793 -0.33173,5.12 -0.88074,4.31212 -1.51257,5.46291 -5.08351,9.25883 l -2.42817,2.58117 -3.62498,-0.0471 c -1.99374,-0.0259 -5.23458,-0.20588 -7.20186,-0.4 z m 58.6737,-5.28529 c -0.80891,-0.86479 -1.56729,-1.95699 -1.68528,-2.4271 -0.34453,-1.37274 0.0728,-8.77299 0.62268,-11.04054 0.2774,-1.144 0.85637,-2.80872 1.28659,-3.69938 l 0.78222,-1.61938 2.53784,-0.54536 c 6.72011,-1.44408 21.5478,-6.3934 30.31913,-10.1202 4.13357,-1.75629 14.77442,-7.08678 18.88,-9.45786 26.24777,-15.15879 47.98044,-36.27543 64.3828,-62.55782 6.21525,-9.95904 11.85939,-21.14432 15.09777,-29.92 0.90925,-2.464 2.13246,-5.344 2.71824,-6.4 l 1.06505,-1.92 27.88807,-0.0818 27.88807,-0.0818 v 3.45325 3.45324 l -4.24,0.39982 c -15.90035,1.49932 -25.28511,3.37177 -30.45683,6.07674 -4.67619,2.44579 -7.25193,5.7422 -11.11401,14.22355 -7.96839,17.49908 -14.59889,27.9406 -27.6846,43.59692 -12.52427,14.9846 -23.61901,25.39173 -38.14608,35.78195 -21.29192,15.22865 -44.65884,26.00561 -70.58719,32.55524 -4.14302,1.04655 -7.65672,1.90281 -7.80823,1.90281 -0.15152,0 -0.93732,-0.70756 -1.74624,-1.57236 z m -81.85367,-0.61985 c -0.41973,-0.32572 -0.95148,-0.52695 -1.18167,-0.44717 -0.23018,0.0798 -0.68325,-0.0945 -1.00681,-0.38734 -0.46068,-0.41691 -0.62577,-0.44139 -0.76106,-0.11284 -0.11251,0.27322 -0.65206,-0.13852 -1.5469,-1.18044 -0.75577,-0.88 -1.85941,-2.07196 -2.45253,-2.6488 -1.35894,-1.32163 -1.62892,-3.09812 -1.64371,-10.81562 -0.0122,-6.37514 0.44155,-11.49984 1.2995,-14.67626 0.33563,-1.24263 1.32418,-5.21132 2.19678,-8.81932 0.87259,-3.608 1.96894,-7.856 2.43633,-9.44 0.46738,-1.584 0.92219,-3.132 1.01068,-3.44 0.2271,-0.79047 -0.7959,-0.72496 -3.91376,0.25065 -2.76991,0.86673 -6.32684,1.74935 -7.04981,1.74935 -0.26862,0 -0.37584,-0.19354 -0.26591,-0.48 0.10131,-0.264 0.0203,-0.48 -0.18009,-0.48 -0.20035,0 -0.45725,0.252 -0.57089,0.56 -0.11364,0.308 -0.36112,0.66813 -0.54996,0.80028 -0.94215,0.65935 -7.64002,2.55173 -9.61311,2.71604 -1.23763,0.10306 -2.39423,0.3692 -2.57023,0.59142 -0.29263,0.36947 -6.37725,2.28513 -22.72,7.15307 l -6.08,1.81102 -0.58933,1.26408 c -0.73856,1.58418 -2.83119,3.7686 -4.61067,4.81292 -0.86513,0.50772 -1.36,1.02612 -1.36,1.42466 0,0.34458 -0.12264,0.62651 -0.27254,0.62651 -0.54222,0 -2.28746,1.94046 -2.28746,2.54332 0,0.33977 -0.576,1.28327 -1.28,2.09668 -0.704,0.81341 -1.28,1.60965 -1.28,1.76942 0,0.15977 -0.22459,0.20431 -0.49909,0.099 -0.33338,-0.12794 -0.55827,0.0348 -0.67732,0.49004 -0.19108,0.7307 -0.5808,0.88384 -0.90682,0.35634 -0.35957,-0.5818 -0.80439,0.0234 -0.604,0.82185 0.13724,0.54681 0.0427,0.83591 -0.31883,0.97462 -0.28267,0.10847 -0.51701,0.43382 -0.52077,0.72299 -0.004,0.28917 -0.57976,0.9311 -1.28,1.42651 -0.70024,0.49542 -1.27317,1.15432 -1.27317,1.46422 0,0.30991 -0.37191,0.91257 -0.82646,1.33925 -0.45456,0.42668 -1.81656,2.16223 -3.02666,3.85679 -2.61628,3.66366 -4.63411,5.23461 -6.32066,4.92086 -0.57957,-0.10782 -2.13568,-0.31737 -3.45801,-0.46566 -1.44336,-0.16187 -2.63433,-0.47786 -2.97995,-0.79063 -0.31664,-0.28656 -0.80598,-0.43264 -1.08743,-0.32464 -0.58052,0.22276 -2.76077,-0.87151 -4.27965,-2.14798 -0.56035,-0.47092 -1.53235,-1.04191 -2.16,-1.26887 -1.08546,-0.39251 -1.14118,-0.48531 -1.14118,-1.90062 0,-2.49507 0.55875,-3.48088 3.98086,-7.02347 1.78515,-1.848 5.07724,-5.736 7.31575,-8.64 2.23852,-2.904 5.16244,-6.504 6.4976,-8 5.28125,-5.91742 6.20579,-7.00458 6.20579,-7.29735 0,-0.16736 -0.2394,-0.50192 -0.53201,-0.74347 -0.2926,-0.24155 -0.80193,-1.04801 -1.13185,-1.79214 -0.55725,-1.25686 -0.56364,-1.423 -0.0899,-2.33911 0.69769,-1.34918 2.64144,-3.4541 3.69065,-3.99666 0.57371,-0.29668 1.74597,-0.4244 3.48115,-0.37929 l 2.61617,0.068 1.5029,-1.60978 c 0.82659,-0.88537 4.82787,-5.13337 8.89174,-9.44 4.06387,-4.30662 8.59846,-9.19822 10.07688,-10.87022 3.26082,-3.68778 6.38203,-6.72 6.91723,-6.72 0.21699,0 0.56715,-0.32255 0.77813,-0.71679 0.53358,-0.997 13.37727,-14.06248 14.35891,-14.60686 0.44,-0.24401 1.196,-0.65055 1.68,-0.90344 0.484,-0.25288 0.88,-0.58503 0.88,-0.73811 0,-0.62725 3.61687,-4.12086 6.12055,-5.91197 1.4737,-1.05427 3.97106,-3.05024 5.54969,-4.43549 1.57864,-1.38526 4.24264,-3.49826 5.92,-4.69557 4.6765,-3.3381 12.70614,-8.31177 13.41877,-8.31177 0.35018,0 1.52547,-0.52089 2.61174,-1.15754 3.82221,-2.24013 6.2958,-2.76793 8.77925,-1.87323 0.704,0.25362 1.68002,0.4633 2.16894,0.46595 1.49393,0.008 7.35183,3.00787 8.55934,4.38314 0.64872,0.73885 1.29835,1.17958 1.65071,1.11988 0.43582,-0.0738 0.58101,0.10652 0.58101,0.72169 0,0.81993 0.98387,2.10011 1.61403,2.10011 0.18371,0 0.29171,0.252 0.24,0.56 -0.0691,0.41125 0.0897,0.53468 0.59762,0.46469 0.84255,-0.11611 1.00288,0.12139 1.35528,2.00768 0.19794,1.05955 0.17381,1.44167 -0.0857,1.35637 -0.1987,-0.0653 -0.44883,-0.68351 -0.55585,-1.37375 -0.13029,-0.84027 -0.2104,-0.25039 -0.24243,1.78501 -0.064,4.06389 -0.52392,7.86885 -1.16201,9.61237 -0.70395,1.92348 -0.73485,2.40259 -0.14895,2.30921 0.29968,-0.0478 0.51182,0.18444 0.54267,0.594 0.0408,0.54112 -0.095,0.64455 -0.69556,0.52976 -0.67335,-0.12872 -0.76567,7.6e-4 -0.94545,1.326 -0.10958,0.80776 -0.50734,2.39754 -0.88391,3.53284 -0.50725,1.52931 -0.58339,2.09795 -0.29382,2.19447 0.26305,0.0877 0.16272,0.37312 -0.30684,0.87294 -0.38373,0.40847 -0.63176,0.93296 -0.55119,1.16554 0.0806,0.23258 -0.11999,0.76629 -0.44571,1.18602 -0.32571,0.41974 -0.59221,1.02324 -0.59221,1.34112 0,0.31788 -0.15567,0.67417 -0.34593,0.79175 -0.19026,0.11759 -0.25952,0.55809 -0.1539,0.97889 0.13644,0.54361 0.0575,0.76509 -0.27251,0.76509 -0.47603,0 -1.0301,1.18423 -0.7058,1.50853 0.0992,0.0992 -0.1871,0.61691 -0.63614,1.15056 -0.6557,0.77926 -0.77689,1.18102 -0.61561,2.04075 0.14355,0.76515 0.0877,1.04618 -0.19564,0.98532 -0.21805,-0.0468 -0.45486,0.18389 -0.52623,0.51274 -0.0746,0.34368 0.007,0.51357 0.19116,0.39956 0.18205,-0.11252 0.26499,0.0442 0.19167,0.3621 -0.0711,0.30824 0.0745,0.82382 0.32362,1.14573 0.36037,0.46576 0.58368,0.51529 1.0934,0.24249 0.3523,-0.18854 1.6241,-0.48703 2.82623,-0.66331 1.20212,-0.17628 2.5322,-0.41608 2.95572,-0.5329 0.59088,-0.16297 0.70896,-0.11355 0.5075,0.2124 -0.19957,0.32292 -0.11564,0.36315 0.34997,0.16777 0.33687,-0.14136 1.84179,-0.35436 3.34426,-0.47333 1.50247,-0.11896 2.89417,-0.31667 3.09267,-0.43935 0.19849,-0.12268 0.41793,-0.052 0.48763,0.15714 0.096,0.28802 1.44098,0.23458 5.54733,-0.2204 8.81516,-0.9767 22.39055,-0.57435 23.86848,0.70743 0.3669,0.31821 0.87999,0.39177 1.68251,0.24121 1.10273,-0.20687 1.32382,-0.49905 4.91909,-6.50052 l 3.76447,-6.28392 -1.0439,-1.92 c -1.59497,-2.93355 -2.33005,-5.61521 -2.33005,-8.50022 v -2.5128 l 1.36,-0.78289 c 1.84343,-1.06117 7.97883,-3.43804 12.08,-4.67981 3.68506,-1.11579 4.11998,-1.44365 7.10766,-5.35805 2.04629,-2.68101 2.88567,-3.21224 4.20464,-2.66103 0.55423,0.23162 1.5837,0.48773 2.2877,0.56912 0.79303,0.0917 1.55885,0.4405 2.01295,0.91684 0.40312,0.42286 0.97912,0.77257 1.28,0.77714 1.23343,0.0187 8.38705,-1.79451 8.38705,-2.12585 0,-0.44011 2.72777,-1.21841 6.56,-1.87173 1.584,-0.27004 4.32,-0.77063 6.08,-1.11242 1.76,-0.34179 5,-0.76723 7.2,-0.94542 2.2,-0.1782 6.736,-0.62601 10.08,-0.99514 5.19015,-0.57293 6.44164,-0.61636 8.55094,-0.29674 1.35902,0.20593 2.71341,0.28138 3.00975,0.16766 0.33506,-0.12857 0.84201,0.0689 1.34066,0.52229 0.44102,0.40098 0.70428,0.559 0.58503,0.35116 -0.5324,-0.9279 0.51406,-0.6388 1.8392,0.5081 0.79956,0.69202 2.3584,1.71496 3.46409,2.27322 2.46873,1.24644 3.35651,2.04095 3.61974,3.23942 0.11144,0.50736 0.46234,1.06148 0.77979,1.23137 0.31745,0.16989 0.67397,0.7087 0.79227,1.19734 0.1183,0.48864 0.99886,2.56578 1.95681,4.61586 0.95795,2.05009 1.74172,3.98277 1.74172,4.29486 0,0.86369 -2.57622,3.1454 -4.0499,3.58693 -3.39273,1.01648 -5.5501,0.77737 -5.5501,-0.61516 0,-0.55581 -0.13587,-0.62933 -0.83759,-0.45321 -0.68032,0.17075 -1.00955,0.0176 -1.75344,-0.81559 l -0.91585,-1.02582 -6.00656,0.21406 c -3.30361,0.11774 -7.08656,0.34829 -8.40656,0.51234 -1.32,0.16406 -6,0.73873 -10.4,1.27707 -4.4,0.53833 -9.296,1.31734 -10.88,1.73113 -1.584,0.41379 -4.608,1.00856 -6.72,1.3217 -2.112,0.31315 -4.06734,0.76622 -4.3452,1.00682 -0.27786,0.2406 -0.93688,0.43745 -1.4645,0.43745 -0.52762,0 -2.49779,0.432 -4.37817,0.96 -1.88038,0.528 -3.58148,0.96 -3.78022,0.96 -0.46109,0 -0.74466,0.36569 -3.65409,4.71233 -2.51909,3.76348 -11.09822,18.03394 -10.93798,18.19417 0.15873,0.15874 8.51329,-1.44394 12.88016,-2.47083 4.9182,-1.15655 10.68575,-2.19567 12.18685,-2.19567 0.5882,0 1.81401,-0.29347 2.72401,-0.65216 0.93352,-0.36796 3.10874,-0.78995 4.99148,-0.96834 1.83531,-0.1739 3.89892,-0.5098 4.5858,-0.74645 0.94501,-0.32558 1.55582,-0.34834 2.51047,-0.0935 0.97549,0.26037 2.12111,0.20297 5.0515,-0.2531 2.08444,-0.32441 5.69789,-0.62202 8.02989,-0.66135 3.67066,-0.0619 4.24,-0.004 4.24,0.43108 0,0.27643 -0.3103,0.8329 -0.68956,1.23661 -0.64278,0.6842 -0.71699,0.69649 -1.09384,0.18112 -0.5846,-0.79949 -0.83862,-0.33736 -0.37325,0.67905 0.30833,0.67341 0.55697,0.82717 1.11665,0.69059 1.02262,-0.24957 0.89634,0.42079 -0.16,0.8493 l -0.88,0.35699 0.8,0.23019 0.8,0.23019 -0.8,0.31937 c -2.73886,1.09337 -4.91305,1.67426 -5.61095,1.4991 -0.43398,-0.10892 -0.79384,-0.0744 -0.7997,0.0767 -0.006,0.15108 -0.30386,0.627 -0.66223,1.0576 -0.52198,0.62718 -0.70644,0.69415 -0.92737,0.33669 -0.21364,-0.34568 -0.36283,-0.25517 -0.6621,0.40167 -0.47075,1.03318 -1.82562,1.69987 -4.05566,1.99566 -1.21388,0.16102 -1.95309,0.47954 -2.67253,1.1516 -0.54699,0.51097 -1.1088,0.8584 -1.24846,0.77209 -0.13967,-0.0863 -0.34877,0.0902 -0.46468,0.39225 -0.16424,0.42799 -0.26799,0.45657 -0.47013,0.12951 -0.20765,-0.33598 -0.50734,-0.29508 -1.50278,0.2051 -0.68388,0.34363 -1.97915,0.86537 -2.87838,1.15941 -0.89924,0.29405 -2.2314,1.04515 -2.96036,1.66911 -1.0843,0.92812 -1.36065,1.04258 -1.51926,0.62924 -0.28463,-0.74172 -0.84407,-0.61719 -0.60541,0.13476 0.24881,0.78394 -0.41061,0.87316 -0.70887,0.0959 -0.14922,-0.38885 -0.3518,-0.0921 -0.70996,1.04 -0.48212,1.52388 -0.54766,1.5854 -1.72442,1.61851 -1.29026,0.0363 -1.34884,-0.13971 -0.65142,-1.95715 0.15724,-0.40978 0.0599,-0.51405 -0.39864,-0.42696 -0.4578,0.0869 -0.63031,0.43752 -0.70294,1.42849 -0.11544,1.57512 -0.29355,1.67784 -4.6148,2.66149 -1.80198,0.41018 -3.60085,1.04056 -4.27509,1.49811 -0.64022,0.43447 -1.40025,0.755 -1.68895,0.71229 -0.2887,-0.0427 -0.98576,0.16692 -1.54902,0.46583 -0.56326,0.29891 -1.28326,0.5498 -1.6,0.55753 -1.00602,0.0245 -3.07979,0.89117 -3.36897,1.4079 -0.1533,0.27393 -0.62215,0.49805 -1.0419,0.49805 -1.27687,0 -5.15965,0.87342 -11.00619,2.47582 -4.6984,1.28772 -5.61327,1.6378 -5.897,2.25654 -0.1847,0.4028 -0.51565,0.66336 -0.73543,0.57903 -0.55074,-0.21134 -0.6742,-0.006 -3.14886,5.24861 -6.50416,13.80953 -8.63543,20.73425 -9.03633,29.36 -0.15038,3.23538 -0.2988,4.24 -0.62643,4.24 -0.23615,0 -0.59507,0.26535 -0.79761,0.58967 -0.35644,0.57075 -0.4512,0.56818 -2.95454,-0.08 -1.42245,-0.36832 -2.84196,-0.92167 -3.15446,-1.22967 -0.31249,-0.308 -0.68912,-0.56 -0.83695,-0.56 -0.14783,0 -0.4608,-0.58182 -0.69549,-1.29294 -0.26252,-0.79544 -0.58105,-1.23372 -0.82782,-1.13902 -0.59399,0.22793 -0.93475,-0.32994 -2.02316,-3.31225 -0.63714,-1.74582 -0.98475,-3.29793 -0.98475,-4.39704 0,-1.31212 -0.15674,-1.85549 -0.68869,-2.38744 -0.63033,-0.63033 -0.64389,-0.72145 -0.16,-1.07528 0.60502,-0.4424 0.72064,-2.39608 0.17415,-2.94257 -0.25656,-0.25656 -0.25915,-0.65009 -0.009,-1.424 0.18984,-0.5882 0.70763,-2.79746 1.15063,-4.90946 0.44301,-2.112 1.22205,-4.704 1.73121,-5.76 0.50917,-1.056 1.02161,-2.56319 1.13877,-3.34932 0.34668,-2.32613 1.70938,-5.89845 4.52059,-11.85068 2.30131,-4.8726 3.9827,-9.23068 3.9827,-10.32293 0,-0.44576 -13.87603,-0.0946 -21.6,0.54662 -3.168,0.263 -5.868,0.48226 -6,0.48724 -0.132,0.005 -0.24,0.15307 -0.24,0.32907 0,0.176 0.4405,0.32 0.97889,0.32 0.5711,0 0.89649,0.1333 0.78111,0.32 -0.33007,0.53407 -2.4,0.39366 -2.4,-0.1628 0,-0.39702 -0.32687,-0.44815 -1.84,-0.28778 -1.012,0.10726 -2.38,0.45045 -3.04,0.76265 -0.66,0.3122 -1.2,0.4417 -1.2,0.28778 0,-0.15392 -0.144,-0.27985 -0.32,-0.27985 -0.176,0 -0.32,0.216 -0.32,0.48 0,0.32 -0.32,0.48 -0.96,0.48 -0.67002,0 -0.96,0.15596 -0.96,0.51633 0,0.43368 0.24333,0.48094 1.52,0.29523 1.46833,-0.2136 1.50061,-0.20124 0.9497,0.36366 -0.44648,0.45782 -1.23186,0.61952 -3.61741,0.74478 -2.87713,0.15107 -3.01043,0.13036 -2.38969,-0.37129 0.36157,-0.29222 0.6574,-0.68822 0.6574,-0.88 0,-0.52593 -0.95334,-0.41842 -1.16428,0.13129 -0.27794,0.7243 -0.82938,0.5762 -0.59572,-0.16 0.25457,-0.80208 -0.19438,-0.82005 -1.99832,-0.08 -0.77109,0.31634 -1.30233,0.72553 -1.22091,0.94044 0.0793,0.20924 -0.17197,0.44252 -0.55832,0.51839 -0.38635,0.0759 0.23355,0.0801 1.37755,0.009 1.91383,-0.11838 2.03038,-0.0895 1.45884,0.36161 -0.34164,0.26965 -1.13364,0.50462 -1.76,0.52217 -1.97685,0.0554 -2.75041,0.40228 -2.63911,1.18354 0.0549,0.38502 -0.12515,1.02109 -0.4,1.4135 -0.27485,0.3924 -0.49973,1.11178 -0.49973,1.5986 0,0.48683 -0.252,1.17556 -0.56,1.53051 -0.308,0.35495 -0.79155,1.39378 -1.07456,2.30851 -0.5787,1.87046 -1.23854,2.39493 -1.25825,1.00011 l -0.0128,-0.90667 -0.50787,0.93813 c -0.39193,0.72398 -0.42553,1.06995 -0.14718,1.51565 0.5562,0.89063 0.43033,1.77336 -0.27933,1.95894 -0.74376,0.1945 -0.86787,0.86728 -0.16,0.86728 0.6203,0 0.62156,0.51721 0.002,0.75502 -0.83918,0.32202 -1.76077,2.21604 -1.73464,3.56498 l 0.0248,1.28 0.43958,-0.96 c 0.24176,-0.528 0.4552,-1.392 0.47429,-1.92 0.0305,-0.84346 0.0674,-0.87936 0.30352,-0.29568 0.57543,1.42209 -0.91877,6.11146 -2.20285,6.91338 -0.66439,0.41492 -0.93415,1.5423 -0.36905,1.5423 0.16361,0 -0.0405,0.612 -0.45355,1.36 -0.97414,1.76403 -1.47821,3.71788 -1.49192,5.7829 -0.008,1.19249 -0.31675,2.32021 -1.1015,4.02217 l -1.0905,2.36506 0.007,5.95494 c 0.004,3.78466 0.16617,6.71298 0.44433,8.03493 0.4646,2.20803 0.51135,1.98977 -0.97462,4.55009 -0.23059,0.39732 -0.44237,0.4991 -0.57889,0.27822 -0.36269,-0.58685 -0.76762,-0.38673 -0.59021,0.29169 0.2054,0.78546 -0.43238,0.86135 -0.67232,0.08 -0.0946,-0.308 -0.12511,-0.164 -0.0678,0.32 0.15272,1.29059 -0.41377,1.07257 -1.03088,-0.39675 -0.63841,-1.52 -1.15731,-1.69402 -0.84768,-0.28427 0.21733,0.98949 0.20854,0.99771 -0.92541,0.86532 -0.74598,-0.0871 -1.20025,0.0108 -1.30394,0.28103 -0.21719,0.56599 -0.59581,0.52105 -1.49606,-0.17754 z m 6.43685,-2.60779 c 0,-0.352 -0.144,-0.64 -0.32,-0.64 -0.176,0 -0.32,0.288 -0.32,0.64 0,0.352 0.144,0.64 0.32,0.64 0.176,0 0.32,-0.288 0.32,-0.64 z m 3.2,-21.45889 c 0,-0.16561 -0.144,-0.30111 -0.32,-0.30111 -0.176,0 -0.32,0.2245 -0.32,0.49889 0,0.27438 0.144,0.40988 0.32,0.30111 0.176,-0.10877 0.32,-0.33327 0.32,-0.49889 z m 46.08,-2.86111 c 0,-0.176 -0.144,-0.32 -0.32,-0.32 -0.176,0 -0.32,0.144 -0.32,0.32 0,0.176 0.144,0.32 0.32,0.32 0.176,0 0.32,-0.144 0.32,-0.32 z m -42.24,-10.75545 c 0,-0.4205 -0.0793,-0.76455 -0.17633,-0.76455 -0.23232,0 -1.10668,2.10361 -1.09302,2.62972 0.0195,0.74975 1.26935,-1.08684 1.26935,-1.86517 z m -54.4,-4.60455 c 0,-0.176 -0.144,-0.32 -0.32,-0.32 -0.176,0 -0.32,0.144 -0.32,0.32 0,0.176 0.144,0.32 0.32,0.32 0.176,0 0.32,-0.144 0.32,-0.32 z m 7.68,-2.56 c 0,-0.176 -0.144,-0.32 -0.32,-0.32 -0.176,0 -0.32,0.144 -0.32,0.32 0,0.176 0.144,0.32 0.32,0.32 0.176,0 0.32,-0.144 0.32,-0.32 z m 5.12,-1.6 c 0,-0.176 -0.144,-0.32 -0.32,-0.32 -0.176,0 -0.32,0.144 -0.32,0.32 0,0.176 0.144,0.32 0.32,0.32 0.176,0 0.32,-0.144 0.32,-0.32 z m 4.64,-2.56 c 0.10877,-0.176 0.0453,-0.32 -0.14111,-0.32 -0.18639,0 -0.33889,0.144 -0.33889,0.32 0,0.176 0.0635,0.32 0.14111,0.32 0.0776,0 0.23012,-0.144 0.33889,-0.32 z m 3.52,-0.32 c 0.10877,-0.176 0.0453,-0.32 -0.14111,-0.32 -0.18639,0 -0.33889,0.144 -0.33889,0.32 0,0.176 0.0635,0.32 0.14111,0.32 0.0776,0 0.23012,-0.144 0.33889,-0.32 z m 8.48,-2.88 c 0,-0.176 -0.1355,-0.32 -0.30111,-0.32 -0.16562,0 -0.39012,0.144 -0.49889,0.32 -0.10877,0.176 0.0267,0.32 0.30111,0.32 0.27439,0 0.49889,-0.144 0.49889,-0.32 z m 3.84,-0.67345 c 0.3537,-0.19681 0.25534,-0.26965 -0.37383,-0.27682 -1.04979,-0.012 -1.86617,0.2814 -1.86617,0.6706 0,0.30854 1.4294,0.0573 2.24,-0.39378 z m 6.74872,-1.64438 c 0.16467,-0.61572 0.11476,-0.79435 -0.18936,-0.67765 -0.50149,0.19245 -0.87005,1.79238 -0.37486,1.62731 0.18734,-0.0624 0.44123,-0.48979 0.56422,-0.94966 z m 19.33128,0.71783 c 0.10877,-0.176 0.0453,-0.32 -0.14111,-0.32 -0.18639,0 -0.33889,0.144 -0.33889,0.32 0,0.176 0.0635,0.32 0.14111,0.32 0.0776,0 0.23012,-0.144 0.33889,-0.32 z m -28.64,-0.96 c 0,-0.176 -0.216,-0.32 -0.48,-0.32 -0.264,0 -0.48,0.144 -0.48,0.32 0,0.176 0.216,0.32 0.48,0.32 0.264,0 0.48,-0.144 0.48,-0.32 z m 29.13018,-0.72 c 0.006,-0.572 0.22159,-1.31952 0.48,-1.66116 0.64047,-0.84679 0.64531,-1.68284 0.007,-1.15282 -0.62151,0.51581 -1.57913,3.07722 -1.31204,3.50939 0.41394,0.66977 0.81533,0.33158 0.82538,-0.69541 z m -23.21018,-0.56 c 0.10877,-0.176 -0.0182,-0.32 -0.28223,-0.32 -0.264,0 -0.569,0.144 -0.67777,0.32 -0.10877,0.176 0.0182,0.32 0.28223,0.32 0.264,0 0.569,-0.144 0.67777,-0.32 z m -8.8,-0.96 c 0,-0.176 -0.144,-0.32 -0.32,-0.32 -0.176,0 -0.32,0.144 -0.32,0.32 0,0.176 0.144,0.32 0.32,0.32 0.176,0 0.32,-0.144 0.32,-0.32 z m 12.96,-1.28 c -0.10877,-0.176 -0.33327,-0.32 -0.49889,-0.32 -0.16561,0 -0.30111,0.144 -0.30111,0.32 0,0.176 0.2245,0.32 0.49889,0.32 0.27438,0 0.40988,-0.144 0.30111,-0.32 z m -6.56,-0.99777 c 0,-0.176 -0.144,-0.231 -0.32,-0.12223 -0.176,0.10877 -0.32,0.34177 -0.32,0.51777 0,0.176 0.144,0.231 0.32,0.12223 0.176,-0.10877 0.32,-0.34177 0.32,-0.51777 z m -3.2,-0.60223 c 0,-0.352 -0.144,-0.64 -0.32,-0.64 -0.176,0 -0.32,0.288 -0.32,0.64 0,0.352 0.144,0.64 0.32,0.64 0.176,0 0.32,-0.288 0.32,-0.64 z m 39.1632,-0.14874 c 0.75452,-1.15155 0.65457,-1.49638 -0.3632,-1.25311 -1.29156,0.30871 -1.43355,0.44765 -0.99612,0.97473 0.31663,0.3815 0.30384,0.53356 -0.0645,0.76661 -0.35913,0.22725 -0.31028,0.29178 0.22378,0.29561 0.37686,0.003 0.91492,-0.34876 1.2,-0.78384 z m -32.7632,0.32763 c 0,-0.0776 -0.144,-0.23012 -0.32,-0.33889 -0.176,-0.10877 -0.32,-0.0453 -0.32,0.14111 0,0.18639 0.144,0.33889 0.32,0.33889 0.176,0 0.32,-0.0635 0.32,-0.14111 z m 122.70633,-0.79678 c 0.32063,-0.51877 -0.37609,-0.67642 -0.78925,-0.17859 -0.32153,0.38742 -0.30193,0.47648 0.10485,0.47648 0.27517,0 0.58315,-0.13405 0.6844,-0.29789 z m -87.82633,-0.66211 c 0,-0.176 -0.0635,-0.32 -0.14111,-0.32 -0.0776,0 -0.23012,0.144 -0.33889,0.32 -0.10877,0.176 -0.0453,0.32 0.14111,0.32 0.18639,0 0.33889,-0.144 0.33889,-0.32 z m -6.1472,-0.91358 c 0.10327,-0.31331 -0.0451,-0.3739 -0.53494,-0.21844 -0.49367,0.15669 -0.67786,0.0789 -0.67786,-0.28642 0,-0.76941 1.48712,-0.64779 1.69272,0.13844 0.18708,0.71539 0.86728,0.87978 0.86728,0.2096 0,-0.53597 -0.90018,-1.34708 -1.79779,-1.61992 -0.54156,-0.16461 -0.7568,-0.0153 -1.07083,0.74284 -0.21616,0.52187 -0.29357,1.10978 -0.17201,1.30647 0.29277,0.47371 1.51212,0.27745 1.69343,-0.27257 z m -2.1728,-0.70531 c 0,-0.16561 -0.144,-0.30111 -0.32,-0.30111 -0.176,0 -0.32,0.2245 -0.32,0.49889 0,0.27438 0.144,0.40988 0.32,0.30111 0.176,-0.10877 0.32,-0.33327 0.32,-0.49889 z m 4.96,0.33889 c 0.10877,-0.176 -0.0267,-0.32 -0.30111,-0.32 -0.27439,0 -0.49889,0.144 -0.49889,0.32 0,0.176 0.1355,0.32 0.30111,0.32 0.16562,0 0.39012,-0.144 0.49889,-0.32 z m 1.76,-0.4641 c 0,-0.25525 0.252,-0.61087 0.56,-0.79027 0.47127,-0.27449 0.48011,-0.32771 0.0558,-0.3359 -0.27732,-0.005 -0.84242,0.35027 -1.25578,0.79027 l -0.75156,0.8 h 0.69578 c 0.39454,0 0.69578,-0.20093 0.69578,-0.4641 z m 1.53867,0.1201 c -0.0631,-0.1892 -0.25147,-0.344 -0.41867,-0.344 -0.1672,0 -0.3556,0.1548 -0.41867,0.344 -0.0631,0.1892 0.12534,0.344 0.41867,0.344 0.29333,0 0.48173,-0.1548 0.41867,-0.344 z m -64.70965,-0.85364 c -0.22192,-0.22192 -0.82902,0.22897 -0.82902,0.61571 0,0.21219 0.18361,0.18791 0.48773,-0.0645 0.26826,-0.22263 0.42184,-0.47068 0.34129,-0.55122 z m 67.59684,0.37915 c 0.0582,-0.0476 0.0582,-0.3786 0,-0.73555 -0.0998,-0.61151 -0.17055,-0.59484 -1.22586,0.28863 l -1.12,0.93762 1.12,-0.20207 c 0.616,-0.11114 1.16764,-0.24102 1.22586,-0.28863 z m -6.34586,-0.46151 c 0,-0.176 -0.144,-0.32 -0.32,-0.32 -0.176,0 -0.32,0.144 -0.32,0.32 0,0.176 0.144,0.32 0.32,0.32 0.176,0 0.32,-0.144 0.32,-0.32 z m 10.69752,0.0364 c 0.0964,-0.15599 -0.1111,-0.35851 -0.46112,-0.45004 -0.41242,-0.10785 -0.6364,-0.008 -0.6364,0.28362 0,0.49446 0.81811,0.61851 1.09752,0.16642 z m -65.41752,-1.27877 c 1.144,-0.16175 3.736,-0.83624 5.76,-1.49888 2.024,-0.66264 4.02289,-1.18099 4.44198,-1.15188 0.41909,0.0291 1.69501,-0.23527 2.83537,-0.58749 1.14036,-0.35222 4.25347,-1.0797 6.91802,-1.61661 2.66455,-0.53691 5.7837,-1.25297 6.93145,-1.59125 1.37663,-0.40572 2.50982,-0.54639 3.32975,-0.41333 0.8993,0.14593 1.17972,0.0994 1.0143,-0.16825 -0.14957,-0.242 0.0463,-0.36994 0.56639,-0.36994 0.72949,0 0.95773,-0.41542 2.76898,-5.04 4.29882,-10.97593 10.33386,-27.7797 10.16209,-28.295 -0.12671,-0.38015 -3.1735,1.59056 -8.24833,5.33514 -6.1185,4.51467 -8.64311,6.1126 -8.92833,5.6511 -0.25905,-0.41915 -1.31167,-0.17599 -1.31167,0.303 0,0.15717 0.288,0.28576 0.64,0.28576 0.352,0 0.64,0.13364 0.64,0.29697 0,0.4022 -4.93878,4.90284 -8.48,7.72769 -1.584,1.26357 -3.38861,2.96294 -4.01024,3.77637 -0.62164,0.81343 -1.64363,1.75632 -2.27111,2.09531 -0.62748,0.33898 -1.29313,1.01973 -1.47924,1.51278 -0.1861,0.49305 -0.84324,1.19433 -1.46031,1.55841 -0.61707,0.36408 -1.20229,0.87133 -1.30048,1.12722 -0.0982,0.25589 -0.38158,0.46525 -0.62975,0.46525 -0.24818,0 -0.61731,0.396 -0.82031,0.88 -0.39339,0.93794 -2.90856,3.23123 -2.90856,2.65197 0,-0.21111 -0.3226,-0.26319 -0.83445,-0.13473 -0.77266,0.19392 -0.80737,0.15883 -0.46874,-0.4739 0.41079,-0.76758 0.8495,-0.88139 1.09216,-0.28334 0.12214,0.30102 0.24631,0.28122 0.50177,-0.08 0.46431,-0.65654 0.43433,-0.85888 -0.16112,-1.08738 -0.33163,-0.12726 -0.92004,0.21763 -1.68,0.98468 l -1.16962,1.18053 1.3781,0.34132 1.3781,0.34132 -0.64728,0.69476 c -0.356,0.38213 -0.92811,0.7839 -1.27135,0.89285 -0.34324,0.10894 -0.77259,0.62409 -0.9541,1.14478 -0.46624,1.33746 -1.86556,2.52392 -3.23499,2.7429 -1.079,0.17254 -1.15791,0.25867 -1.03074,1.12511 0.11463,0.78103 0.19842,0.85721 0.49998,0.45456 0.20639,-0.27557 1.25731,-0.61026 2.44228,-0.7778 z m 59.69316,0.90108 c 0.11601,-0.18771 0.14512,-0.4071 0.0647,-0.48753 -0.22319,-0.2232 -1.19784,0.21868 -1.19784,0.54306 0,0.40057 0.87786,0.35755 1.13316,-0.0555 z m 4.04458,-0.37871 c 0.0737,-0.51862 0.28127,-0.69014 0.74226,-0.61326 0.516,0.0861 0.5625,0.0272 0.24,-0.304 -0.22,-0.22591 -0.4,-0.66994 -0.4,-0.98674 0,-0.3168 -0.144,-0.576 -0.32,-0.576 -0.176,0 -0.32,0.13463 -0.32,0.29917 0,0.16454 -0.15227,0.69966 -0.33837,1.18916 -0.26518,0.69746 -0.39986,0.7905 -0.6226,0.43009 -0.15633,-0.25294 -0.38718,-0.35694 -0.513,-0.23111 -0.24023,0.24023 0.75348,1.51269 1.18131,1.51269 0.13648,0 0.29416,-0.324 0.3504,-0.72 z m 7.05925,0.24056 c 1.80566,-0.037 3.63976,-1.16963 2.80524,-1.73232 -0.3612,-0.24354 -0.53498,-0.16744 -0.71231,0.31191 -0.33047,0.89335 -1.2193,1.16354 -1.59851,0.48592 -0.28874,-0.51596 -0.34856,-0.51734 -0.8973,-0.0207 -0.4212,0.38118 -1.02304,0.50125 -2.12212,0.42337 -1.29839,-0.092 -1.55281,-0.0156 -1.65542,0.49737 -0.11041,0.55193 0.003,0.58193 1.27109,0.33583 0.76579,-0.14863 2.07499,-0.28424 2.90933,-0.30134 z m -77.20626,-0.14806 c 0.25891,-0.16374 0.38752,-0.38092 0.2858,-0.48263 -0.25208,-0.25208 -1.23653,0.14947 -1.23653,0.50437 0,0.36473 0.35238,0.35667 0.95073,-0.0217 z m 72.96927,-0.6525 c 0,-0.176 -0.1355,-0.32 -0.30111,-0.32 -0.16562,0 -0.39012,0.144 -0.49889,0.32 -0.10877,0.176 0.0267,0.32 0.30111,0.32 0.27439,0 0.49889,-0.144 0.49889,-0.32 z m 10.03257,-0.97543 c -0.37018,-0.37018 -2.03257,-0.0829 -2.03257,0.35124 0,0.43568 0.57962,0.66077 0.79677,0.30941 0.33708,-0.54539 0.796,-0.36207 0.58776,0.23478 -0.18581,0.53253 -0.16637,0.53265 0.39632,0.002 0.41769,-0.39368 0.49172,-0.65772 0.25172,-0.89772 z m 1.49168,0.32517 c 0.45928,-1.1088 0.23929,-1.55022 -0.47652,-0.95616 -0.51895,0.4307 -0.67933,1.92642 -0.20655,1.92642 0.15465,0 0.46203,-0.43662 0.68307,-0.97026 z m 2.87598,0.1891 c 1.2e-4,0.16564 0.35149,0.32139 0.78082,0.34611 0.67581,0.0389 0.73219,-0.0326 0.41995,-0.53253 -0.23423,-0.37506 -0.84444,-0.61597 -1.74082,-0.68726 -1.25169,-0.0995 -1.38018,-0.0425 -1.38018,0.61253 0,0.77423 0.48193,0.98187 0.74807,0.32231 0.0888,-0.22 0.17735,-0.112 0.19684,0.24 0.035,0.63159 0.0416,0.63184 0.50527,0.0188 0.2584,-0.34164 0.46992,-0.48564 0.47005,-0.32 z m 3.19977,0.30116 c 0,-0.52009 0.81024,-0.66121 1.10044,-0.19165 0.098,0.15859 0.67112,0.27437 1.27356,0.25729 0.88065,-0.025 1.12328,-0.17707 1.23777,-0.77598 0.19511,-1.02069 -0.25742,-1.20401 -1.0401,-0.42133 -0.75814,0.75814 -1.11286,0.84117 -0.86805,0.2032 0.1061,-0.27649 -0.0955,-0.51878 -0.52576,-0.63183 -0.38382,-0.10085 -0.74578,-0.0433 -0.80434,0.12792 -0.0586,0.1712 -0.45457,0.22392 -0.88,0.11714 -0.66506,-0.16692 -0.77352,-0.0808 -0.77352,0.61388 0,0.72248 0.32209,1.08053 1.04,1.1561 0.132,0.0139 0.24,-0.19074 0.24,-0.45474 z m -16.13171,-1.03838 c -0.34957,-0.34957 -0.58927,0.20635 -0.3383,0.78458 0.23798,0.54828 0.25523,0.54778 0.38782,-0.0113 0.0763,-0.32177 0.054,-0.66977 -0.0495,-0.77333 z m 2.21171,0.87838 c 0.10877,-0.176 -0.0987,-0.32 -0.46111,-0.32 -0.36239,0 -0.65889,0.144 -0.65889,0.32 0,0.176 0.2075,0.32 0.46111,0.32 0.25362,0 0.55012,-0.144 0.65889,-0.32 z m 18.72,0.01 c 0,-0.17047 0.216,-0.22707 0.48,-0.12576 0.36433,0.13981 0.48,-0.0598 0.48,-0.82814 V 383.179 l -0.96,0.56708 c -0.93169,0.55036 -1.18487,1.05756 -0.74667,1.49577 0.31495,0.31495 0.74667,0.25908 0.74667,-0.0966 z m 5.44,-0.26604 c 0,-0.3168 0.1728,-0.7488 0.384,-0.96 0.44699,-0.44699 -0.0149,-0.50652 -0.67729,-0.0873 -0.24931,0.15781 -0.75729,0.17134 -1.12885,0.0301 -0.53344,-0.20281 -0.74997,-0.0992 -1.02916,0.4924 -0.44925,0.95195 -0.28365,1.10081 1.22463,1.10081 0.9679,0 1.22667,-0.12151 1.22667,-0.576 z m -3.04,-0.384 c 0.56217,-0.62119 0.55892,-0.64 -0.1104,-0.64 -0.37928,0 -0.6896,0.0602 -0.6896,0.13383 0,0.0736 -0.0874,0.3616 -0.19424,0.64 -0.27184,0.70841 0.30191,0.63118 0.99424,-0.13383 z m -33.12,-0.48 c 0,-0.264 -0.144,-0.48 -0.32,-0.48 -0.176,0 -0.32,0.216 -0.32,0.48 0,0.264 0.144,0.48 0.32,0.48 0.176,0 0.32,-0.216 0.32,-0.48 z m 3.52,0.16 c 0,-0.176 -0.144,-0.32 -0.32,-0.32 -0.176,0 -0.32,0.144 -0.32,0.32 0,0.176 0.144,0.32 0.32,0.32 0.176,0 0.32,-0.144 0.32,-0.32 z m 8.96,-0.96 c 0,-0.176 -0.2245,-0.32 -0.49889,-0.32 -0.27438,0 -0.40988,0.144 -0.30111,0.32 0.10877,0.176 0.33327,0.32 0.49889,0.32 0.16561,0 0.30111,-0.144 0.30111,-0.32 z m -74.524,-1.052 c -0.26133,-0.26133 -0.356,-0.22552 -0.356,0.13467 0,0.63611 0.4303,1.06642 0.58933,0.58933 0.0675,-0.2024 -0.0375,-0.5282 -0.23333,-0.724 z m 69.084,0.732 c 0,-0.176 -0.144,-0.32 -0.32,-0.32 -0.176,0 -0.32,0.144 -0.32,0.32 0,0.176 0.144,0.32 0.32,0.32 0.176,0 0.32,-0.144 0.32,-0.32 z m -88.26133,-0.70933 c -0.22962,-0.22962 -0.37867,-0.24852 -0.37867,-0.048 0,0.42713 0.37844,0.80556 0.592,0.592 0.0909,-0.0909 -0.005,-0.33574 -0.21333,-0.544 z m 21.06133,0.38937 c 0,-0.176 -0.0635,-0.32 -0.14111,-0.32 -0.0776,0 -0.23012,0.144 -0.33889,0.32 -0.10877,0.176 -0.0453,0.32 0.14111,0.32 0.18639,0 0.33889,-0.144 0.33889,-0.32 z m 2.24,-1.4773 c 0,-0.54449 -0.69659,-0.57811 -1.216,-0.0587 -0.5982,0.5982 -0.45648,0.82111 0.416,0.65432 0.44,-0.0841 0.8,-0.35214 0.8,-0.59562 z m 64.2186,0.1373 c -0.10216,-0.25527 -0.17798,-0.17945 -0.19334,0.19333 -0.0139,0.33734 0.0617,0.52634 0.16807,0.42 0.10634,-0.10633 0.11771,-0.38233 0.0253,-0.61333 z m 5.2214,0.55889 c 0,-0.0776 -0.144,-0.23012 -0.32,-0.33889 -0.176,-0.10877 -0.32,-0.0453 -0.32,0.14111 0,0.18639 0.144,0.33889 0.32,0.33889 0.176,0 0.32,-0.0635 0.32,-0.14111 z m 3.91268,-0.23421 c 0.57212,0.57212 1.11327,0.44955 1.30832,-0.29633 0.0966,-0.36941 0.0889,-0.58491 -0.0171,-0.47888 -0.10602,0.10603 -0.52827,-0.027 -0.93832,-0.29572 -0.41005,-0.26868 -0.74554,-0.34118 -0.74554,-0.16113 0,0.18006 -0.252,0.32959 -0.56,0.33228 -0.80311,0.007 -1.47812,0.50509 -1.22957,0.90726 0.15042,0.24338 0.44513,0.23768 1.00968,-0.0195 0.60042,-0.27357 0.88991,-0.27059 1.17257,0.0121 z m 7.44732,-0.26468 c 0.10877,-0.176 0.0453,-0.32 -0.14111,-0.32 -0.18639,0 -0.33889,0.144 -0.33889,0.32 0,0.176 0.0635,0.32 0.14111,0.32 0.0776,0 0.23012,-0.144 0.33889,-0.32 z m -14.19061,-0.71861 c -0.36646,-0.36646 -1.10296,-0.0117 -0.84436,0.40675 0.0965,0.15615 0.39653,0.19908 0.66673,0.0954 0.32085,-0.12312 0.38247,-0.2973 0.17763,-0.50214 z m 10.7624,-0.75962 c 0.0854,-0.56023 0.0678,-0.56312 -0.2559,-0.0418 -0.42613,0.68634 -0.95589,0.73068 -0.95589,0.08 0,-0.264 -0.1355,-0.48 -0.30111,-0.48 -0.54023,0 -0.6961,0.61254 -0.32997,1.29667 0.32513,0.60751 0.42336,0.62692 1.0548,0.20838 0.38295,-0.25383 0.73758,-0.73231 0.78807,-1.06328 z m -8.41179,0.83823 c 0.11217,-0.18149 -0.15668,-0.32 -0.62111,-0.32 -0.45039,0 -0.81889,0.144 -0.81889,0.32 0,0.176 0.2795,0.32 0.62111,0.32 0.34162,0 0.71012,-0.144 0.81889,-0.32 z m 19.13444,-0.56 c 0.2136,-1.11191 0.0299,-1.30147 -0.62582,-0.64577 -0.28387,0.28388 -0.42896,0.74331 -0.32242,1.02096 0.29958,0.78068 0.76129,0.598 0.94824,-0.37519 z m -8.69473,-0.16533 c -0.31604,-0.31369 -0.3528,-0.27693 -0.17914,0.17913 0.12017,0.31559 0.29911,0.49319 0.39763,0.39467 0.0985,-0.0985 2e-4,-0.35674 -0.21849,-0.5738 z m 5.87824,-0.50338 c -0.0603,-0.0603 -0.41615,-0.0125 -0.79068,0.1064 -0.54751,0.17378 -0.60669,0.30563 -0.30199,0.67277 0.3246,0.39112 0.43804,0.37586 0.79068,-0.10641 0.22644,-0.30967 0.36234,-0.61242 0.30199,-0.67276 z m 6.63642,0.67157 c 0.26438,0.10145 0.45896,-0.0145 0.45896,-0.27337 0,-0.25756 -0.31882,-0.44949 -0.74666,-0.44949 -0.56244,0 -0.74546,0.17765 -0.74177,0.72 0.004,0.54125 0.0751,0.60912 0.2877,0.27337 0.15555,-0.24565 0.48934,-0.36737 0.74177,-0.27051 z m 2.73621,-0.34979 c 0.0956,-0.29008 -0.0935,-0.39265 -0.58987,-0.32 -0.40182,0.0588 -0.7939,0.29905 -0.87129,0.53386 -0.0956,0.29008 0.0935,0.39265 0.58987,0.32 0.40182,-0.0588 0.7939,-0.29905 0.87129,-0.53386 z m -94.33058,-0.0531 c 0,-0.176 -0.144,-0.32 -0.32,-0.32 -0.176,0 -0.32,0.144 -0.32,0.32 0,0.176 0.144,0.32 0.32,0.32 0.176,0 0.32,-0.144 0.32,-0.32 z m 82.61867,-0.38933 c -0.22962,-0.22962 -0.37867,-0.24852 -0.37867,-0.048 0,0.42713 0.37844,0.80556 0.592,0.592 0.0909,-0.0909 -0.005,-0.33574 -0.21333,-0.544 z m 14.02133,0.38933 c 0,-0.176 -0.0635,-0.32 -0.14111,-0.32 -0.0776,0 -0.23012,0.144 -0.33889,0.32 -0.10877,0.176 -0.0453,0.32 0.14111,0.32 0.18639,0 0.33889,-0.144 0.33889,-0.32 z m -32,-0.32 c 0,-0.176 -0.144,-0.32 -0.32,-0.32 -0.176,0 -0.32,0.144 -0.32,0.32 0,0.176 0.144,0.32 0.32,0.32 0.176,0 0.32,-0.144 0.32,-0.32 z m 21.6,0 c 0.10877,-0.176 0.0538,-0.32 -0.12223,-0.32 -0.176,0 -0.409,0.144 -0.51777,0.32 -0.10877,0.176 -0.0538,0.32 0.12223,0.32 0.176,0 0.409,-0.144 0.51777,-0.32 z m -9.96428,-1.44 c -0.19475,-0.50751 -0.75572,-0.66587 -0.75572,-0.21333 0,0.3384 0.34979,0.69333 0.68329,0.69333 0.14114,0 0.17374,-0.216 0.0724,-0.48 z m -15.63572,-1.12 c 0.10877,-0.176 0.0453,-0.32 -0.14111,-0.32 -0.18639,0 -0.33889,0.144 -0.33889,0.32 0,0.176 0.0635,0.32 0.14111,0.32 0.0776,0 0.23012,-0.144 0.33889,-0.32 z m 2.24,-0.32 c 0.10877,-0.176 0.0453,-0.32 -0.14111,-0.32 -0.18639,0 -0.33889,0.144 -0.33889,0.32 0,0.176 0.0635,0.32 0.14111,0.32 0.0776,0 0.23012,-0.144 0.33889,-0.32 z m -57.44,-0.32 c 0,-0.176 -0.144,-0.32 -0.32,-0.32 -0.176,0 -0.32,0.144 -0.32,0.32 0,0.176 0.144,0.32 0.32,0.32 0.176,0 0.32,-0.144 0.32,-0.32 z m 62.72,-0.32 c 0,-0.176 -0.144,-0.32 -0.32,-0.32 -0.176,0 -0.32,0.144 -0.32,0.32 0,0.176 0.144,0.32 0.32,0.32 0.176,0 0.32,-0.144 0.32,-0.32 z m 31.36,0 c 0,-0.176 -0.144,-0.32 -0.32,-0.32 -0.176,0 -0.32,0.144 -0.32,0.32 0,0.176 0.144,0.32 0.32,0.32 0.176,0 0.32,-0.144 0.32,-0.32 z m -94.56012,-0.75491 c 0.46093,-0.70347 0.37864,-1.80509 -0.13485,-1.80509 -0.20206,0 -1.30503,2.03759 -1.30503,2.41086 0,0.46466 1.01956,0.0357 1.43988,-0.60577 z m 65.12012,0.43491 c 0,-0.176 -0.0635,-0.32 -0.14111,-0.32 -0.0776,0 -0.23012,0.144 -0.33889,0.32 -0.10877,0.176 -0.0453,0.32 0.14111,0.32 0.18639,0 0.33889,-0.144 0.33889,-0.32 z m 5.12,0 c 0,-0.176 -0.144,-0.32 -0.32,-0.32 -0.176,0 -0.32,0.144 -0.32,0.32 0,0.176 0.144,0.32 0.32,0.32 0.176,0 0.32,-0.144 0.32,-0.32 z m 2.24,-0.16 c 0.43241,-0.52103 0.32898,-0.58616 -0.45383,-0.28576 -0.27839,0.10683 -0.50617,0.32283 -0.50617,0.48 0,0.44263 0.51851,0.33772 0.96,-0.19424 z m -14.4,-0.14111 c 0,-0.16562 -0.144,-0.39012 -0.32,-0.49889 -0.176,-0.10877 -0.32,0.0267 -0.32,0.30111 0,0.27439 0.144,0.49889 0.32,0.49889 0.176,0 0.32,-0.1355 0.32,-0.30111 z m 3.69884,-0.20133 c 0.57902,-0.46835 0.51349,-0.48985 -0.96591,-0.31693 -2.0394,0.23838 -2.70456,0.81937 -0.93809,0.81937 0.70556,0 1.56236,-0.2261 1.904,-0.50244 z m 13.26116,0.18244 c 0,-0.176 -0.144,-0.32 -0.32,-0.32 -0.176,0 -0.32,0.144 -0.32,0.32 0,0.176 0.144,0.32 0.32,0.32 0.176,0 0.32,-0.144 0.32,-0.32 z m 4.32,0 c 0.10877,-0.176 0.0453,-0.32 -0.14111,-0.32 -0.18639,0 -0.33889,0.144 -0.33889,0.32 0,0.176 0.0635,0.32 0.14111,0.32 0.0776,0 0.23012,-0.144 0.33889,-0.32 z m 4,-0.33889 c 0,-0.16561 -0.216,-0.30111 -0.48,-0.30111 -0.49485,0 -0.63575,0.37759 -0.27537,0.73797 0.25566,0.25565 0.75537,-0.0333 0.75537,-0.43686 z m 4.06145,0.20324 c -0.14475,-0.43426 -1.89154,-0.45517 -2.03374,-0.0244 -0.0581,0.176 0.40156,0.33096 1.02145,0.34435 0.67138,0.0145 1.08066,-0.11488 1.01229,-0.32 z m 3.93855,0.16989 c 0,-0.40416 -0.90435,-0.70318 -1.11175,-0.3676 -0.0947,0.15329 0.009,0.35163 0.22976,0.44077 0.63407,0.25563 0.88199,0.23506 0.88199,-0.0732 z m -26.88,-0.69313 c 0,-0.16561 -0.144,-0.30111 -0.32,-0.30111 -0.176,0 -0.32,0.2245 -0.32,0.49889 0,0.27438 0.144,0.40988 0.32,0.30111 0.176,-0.10877 0.32,-0.33327 0.32,-0.49889 z m 31.15572,0.17889 c -0.10499,-0.27361 -0.58225,-0.48 -1.10996,-0.48 -1.63039,0 -0.98005,0.8065 0.7442,0.92288 0.36432,0.0246 0.48778,-0.1249 0.36576,-0.44288 z m -14.33383,-1.04477 c -0.32933,-0.32934 -3.70189,0.3016 -3.70189,0.69255 0,0.31466 0.41772,0.29968 1.92726,-0.0691 1.05999,-0.25895 1.85858,-0.53951 1.77463,-0.62345 z m -31.72261,0.5983 c 0.0974,-0.15756 -0.0587,-0.37695 -0.34692,-0.48753 -0.62299,-0.23907 -0.89886,-0.0419 -0.60552,0.43271 0.25718,0.41612 0.71293,0.44235 0.95244,0.0548 z m 18.26072,-0.0335 c 0.1117,-0.18074 -0.15038,-0.32 -0.60223,-0.32 -0.44,0 -0.889,0.144 -0.99777,0.32 -0.1117,0.18074 0.15038,0.32 0.60223,0.32 0.44,0 0.889,-0.144 0.99777,-0.32 z m 1.76,0 c 0,-0.176 -0.2965,-0.32 -0.65889,-0.32 -0.36238,0 -0.56988,0.144 -0.46111,0.32 0.10877,0.176 0.40527,0.32 0.65889,0.32 0.25361,0 0.46111,-0.144 0.46111,-0.32 z m 2.06633,-0.34211 c -0.23763,-0.38449 -1.10633,-0.38807 -1.10633,-0.005 0,0.34679 0.69451,0.64007 1.04522,0.44138 0.13487,-0.0764 0.16237,-0.27298 0.0611,-0.43682 z m 3.69367,0.0221 c 0,-0.176 -0.3515,-0.32 -0.78111,-0.32 -0.42962,0 -0.87012,0.144 -0.97889,0.32 -0.11538,0.1867 0.21001,0.32 0.78111,0.32 0.53839,0 0.97889,-0.144 0.97889,-0.32 z m 8,0 c 0.38815,-0.25084 0.34222,-0.31114 -0.24,-0.3151 -0.396,-0.003 -0.72,0.1391 -0.72,0.3151 0,0.40094 0.3396,0.40094 0.96,0 z m 2.24,0 c 0,-0.176 -0.288,-0.32 -0.64,-0.32 -0.352,0 -0.64,0.144 -0.64,0.32 0,0.176 0.288,0.32 0.64,0.32 0.352,0 0.64,-0.144 0.64,-0.32 z m 2.88,0.19424 c 0,-0.0692 -0.216,-0.20865 -0.48,-0.30996 -0.264,-0.10131 -0.48,-0.0447 -0.48,0.12576 0,0.17048 0.216,0.30996 0.48,0.30996 0.264,0 0.48,-0.0566 0.48,-0.12576 z m 77.76,-0.19424 c 0,-0.176 -0.144,-0.32 -0.32,-0.32 -0.176,0 -0.32,0.144 -0.32,0.32 0,0.176 0.144,0.32 0.32,0.32 0.176,0 0.32,-0.144 0.32,-0.32 z m 1.31322,-0.73478 c -0.41072,-0.41072 -0.82722,-0.0933 -0.52315,0.39871 0.11778,0.19058 0.36075,0.25591 0.53992,0.14517 0.21856,-0.13508 0.21304,-0.31407 -0.0168,-0.54388 z m -167.23322,-0.54522 c 0.10877,-0.176 0.0453,-0.32 -0.14111,-0.32 -0.18639,0 -0.33889,0.144 -0.33889,0.32 0,0.176 0.0635,0.32 0.14111,0.32 0.0776,0 0.23012,-0.144 0.33889,-0.32 z m 44.96,-1.28 c 0,-0.176 -0.144,-0.32 -0.32,-0.32 -0.176,0 -0.32,0.144 -0.32,0.32 0,0.176 0.144,0.32 0.32,0.32 0.176,0 0.32,-0.144 0.32,-0.32 z m -39.68,-0.34104 c 0,-0.78931 -0.67213,-1.49896 -1.4197,-1.49896 -0.68725,0 -0.75407,0.0858 -0.4741,0.60896 0.17925,0.33493 0.4637,0.52381 0.63212,0.41972 0.16841,-0.10408 0.39259,0.0359 0.49818,0.31104 0.21698,0.56546 0.7635,0.67944 0.7635,0.15924 z m -2.72,-0.61896 c -0.10877,-0.176 -0.34177,-0.32 -0.51777,-0.32 -0.176,0 -0.231,0.144 -0.12223,0.32 0.10877,0.176 0.34177,0.32 0.51777,0.32 0.176,0 0.231,-0.144 0.12223,-0.32 z m 3.84,-0.96 c 0.10877,-0.176 0.0538,-0.32 -0.12223,-0.32 -0.176,0 -0.409,0.144 -0.51777,0.32 -0.10877,0.176 -0.0538,0.32 0.12223,0.32 0.176,0 0.409,-0.144 0.51777,-0.32 z m 0.71028,-1.85778 c 0.26951,-0.17124 0.30674,-0.54104 0.1203,-1.1951 l -0.26997,-0.94712 -0.36031,0.90083 c -0.57572,1.43942 -0.4155,1.82943 0.50998,1.24139 z m -17.19028,-2.30222 c 0,-0.176 -0.0635,-0.32 -0.14111,-0.32 -0.0776,0 -0.23012,0.144 -0.33889,0.32 -0.10877,0.176 -0.0453,0.32 0.14111,0.32 0.18639,0 0.33889,-0.144 0.33889,-0.32 z m 59.84,0.17889 c 0,-0.0776 -0.144,-0.23012 -0.32,-0.33889 -0.176,-0.10877 -0.32,-0.0453 -0.32,0.14111 0,0.18639 0.144,0.33889 0.32,0.33889 0.176,0 0.32,-0.0635 0.32,-0.14111 z m -38.72,-0.49889 c 0,-0.176 -0.0635,-0.32 -0.14111,-0.32 -0.0776,0 -0.23012,0.144 -0.33889,0.32 -0.10877,0.176 -0.0453,0.32 0.14111,0.32 0.18639,0 0.33889,-0.144 0.33889,-0.32 z m -0.78116,-0.47392 c 0.53765,-0.4102 0.55663,-0.5171 0.14116,-0.7951 -0.6061,-0.40555 -1.05515,-0.42382 -0.81367,-0.0331 0.10126,0.16384 0.0378,0.38834 -0.14111,0.49888 -0.3875,0.23949 -0.43409,0.80323 -0.0664,0.80323 0.14236,0 0.53836,-0.21326 0.88,-0.47392 z m -12.12926,-1.61988 c 0.29768,-0.77576 -0.1177,-0.91581 -0.51491,-0.17361 -0.24767,0.46278 -0.25254,0.66741 -0.0159,0.66741 0.18772,0 0.42658,-0.22221 0.5308,-0.4938 z m 13.23042,0.0327 c 0,-0.0776 -0.144,-0.23012 -0.32,-0.33889 -0.176,-0.10877 -0.32,-0.0453 -0.32,0.14111 0,0.18639 0.144,0.33889 0.32,0.33889 0.176,0 0.32,-0.0635 0.32,-0.14111 z m 0.96,-0.46209 c 0,-0.15576 0.36964,-0.52539 0.82142,-0.82141 0.65197,-0.42718 0.9176,-0.45837 1.28773,-0.1512 0.59992,0.49789 0.75132,0.324 1.40872,-1.6179 0.43167,-1.27512 0.45622,-1.60629 0.11905,-1.60629 -0.2336,0 -0.5115,0.396 -0.61755,0.88 -0.36633,1.67183 -0.50468,1.9026 -0.74879,1.24898 -0.20039,-0.53659 -0.25979,-0.54395 -0.64483,-0.08 -0.49814,0.60021 -1.02022,0.67516 -0.90575,0.13002 0.044,-0.20954 -0.19301,-0.44015 -0.52669,-0.51245 -0.46762,-0.10133 -0.55754,-0.003 -0.39229,0.42727 0.12673,0.33025 0.002,0.79328 -0.30465,1.13229 -0.28549,0.31546 -0.42446,0.72664 -0.30883,0.91373 0.25457,0.4119 0.81246,0.45102 0.81246,0.057 z m -12.64,-1.31681 c -0.10877,-0.176 -0.34177,-0.32 -0.51777,-0.32 -0.176,0 -0.231,0.144 -0.12223,0.32 0.10877,0.176 0.34177,0.32 0.51777,0.32 0.176,0 0.231,-0.144 0.12223,-0.32 z m 4.32,-0.46111 c 0,-0.0776 -0.144,-0.23012 -0.32,-0.33889 -0.176,-0.10877 -0.32,-0.0453 -0.32,0.14111 0,0.18639 0.144,0.33889 0.32,0.33889 0.176,0 0.32,-0.0635 0.32,-0.14111 z m 13.76,-3.37889 c 0,-0.176 -0.1355,-0.32 -0.30111,-0.32 -0.16562,0 -0.39012,0.144 -0.49889,0.32 -0.10877,0.176 0.0267,0.32 0.30111,0.32 0.27439,0 0.49889,-0.144 0.49889,-0.32 z m 1.28,-0.92576 c 0,-0.32438 -0.97465,-0.76626 -1.19784,-0.54306 -0.0804,0.0804 -0.0513,0.29982 0.0647,0.48753 0.2553,0.41308 1.13316,0.4561 1.13316,0.0555 z m 1.28,-1.47424 c 0,-0.264 -0.144,-0.48 -0.32,-0.48 -0.176,0 -0.32,0.216 -0.32,0.48 0,0.264 0.144,0.48 0.32,0.48 0.176,0 0.32,-0.216 0.32,-0.48 z m -18.88,-0.16 c 0,-0.176 -0.144,-0.32 -0.32,-0.32 -0.176,0 -0.32,0.144 -0.32,0.32 0,0.176 0.144,0.32 0.32,0.32 0.176,0 0.32,-0.144 0.32,-0.32 z m 20.16,-0.64 c 0,-0.176 -0.144,-0.32 -0.32,-0.32 -0.176,0 -0.32,0.144 -0.32,0.32 0,0.176 0.144,0.32 0.32,0.32 0.176,0 0.32,-0.144 0.32,-0.32 z m 1.92,-0.35777 c 0,-0.176 -0.144,-0.231 -0.32,-0.12223 -0.176,0.10877 -0.32,0.34177 -0.32,0.51777 0,0.176 0.144,0.231 0.32,0.12223 0.176,-0.10877 0.32,-0.34177 0.32,-0.51777 z m 0.27149,-1.20547 c 0.23731,-0.1504 0.38131,-0.49503 0.32,-0.76585 -0.0865,-0.38191 -0.2405,-0.31945 -0.68643,0.27835 -0.5814,0.7794 -0.4242,0.98854 0.36643,0.4875 z m 1.96851,-1.83453 c 0,-0.264 -0.144,-0.391 -0.32,-0.28223 -0.176,0.10877 -0.32,0.41377 -0.32,0.67777 0,0.264 0.144,0.391 0.32,0.28223 0.176,-0.10877 0.32,-0.41377 0.32,-0.67777 z m 1.70348,-0.0422 c 0.0777,-0.132 0.23711,-0.744 0.35426,-1.36 l 0.21299,-1.12 -0.65536,0.75545 c -0.67445,0.77745 -0.88851,1.96455 -0.35426,1.96455 0.16562,0 0.36468,-0.108 0.44237,-0.24 z m 16.85652,-1.36003 c 0,-0.176 -0.144,-0.32 -0.32,-0.32 -0.176,0 -0.32,0.144 -0.32,0.32 0,0.176 0.144,0.32 0.32,0.32 0.176,0 0.32,-0.144 0.32,-0.32 z m -14.53098,-1.83764 c -0.22192,-0.22192 -0.82902,0.22897 -0.82902,0.61571 0,0.21219 0.18361,0.18791 0.48773,-0.0645 0.26826,-0.22263 0.42184,-0.47068 0.34129,-0.55122 z m 7.13761,-2.93496 c 0.24877,-0.15753 0.35831,-0.51297 0.24726,-0.80236 -0.17677,-0.46066 -0.27274,-0.44619 -0.84663,0.1277 -0.35599,0.35599 -0.64726,0.71926 -0.64726,0.80726 0,0.25627 0.76018,0.17541 1.24663,-0.1326 z m 20.19337,-1.9474 c 0,-0.176 -0.144,-0.32 -0.32,-0.32 -0.176,0 -0.32,0.144 -0.32,0.32 0,0.176 0.144,0.32 0.32,0.32 0.176,0 0.32,-0.144 0.32,-0.32 z m -0.0577,-1.97494 c -0.0562,-0.38221 -0.26338,-0.74792 -0.46031,-0.81268 -0.22596,-0.0743 -0.30074,0.18206 -0.20269,0.69494 0.1888,0.98765 0.80716,1.09747 0.663,0.11774 z m -60.75202,105.99779 c -8.72227,-2.9073 -14.59136,-5.24232 -22.59952,-8.99124 -3.91926,-1.83475 -3.85585,-1.64724 -2.21418,-6.54782 0.97374,-2.90671 1.18549,-3.269 2.33791,-4 1.42263,-0.90238 4.53148,-3.55557 6.84742,-5.84379 0.84613,-0.836 1.59687,-1.52 1.66832,-1.52 0.0714,0 1.22555,0.4993 2.56467,1.10956 3.43809,1.56678 8.07095,3.44758 12.50499,5.07663 l 3.80462,1.3978 -0.0682,5.88801 c -0.0414,3.57822 0.12492,7.6992 0.42407,10.50503 0.27074,2.53936 0.45352,4.65576 0.40618,4.70309 -0.0473,0.0473 -2.60167,-0.75243 -5.6763,-1.77727 z m 33.92972,-13.32174 c 0,-0.27438 0.14635,-0.40843 0.32522,-0.29788 0.17887,0.11054 0.24237,0.33504 0.14111,0.49888 -0.27431,0.44386 -0.46633,0.36109 -0.46633,-0.201 z m -105.92,-28.18815 c -9.60831,-8.34484 -19.201912,-18.88861 -28.463872,-31.28299 -3.53801,-4.73457 -6.73929,-9.43446 -12.335458,-18.10997 -2.065469,-3.20202 -5.70517,-10.01626 -9.220671,-17.26294 -3.740912,-7.71133 -5.107135,-9.97234 -7.220021,-11.9487 -3.710018,-3.47029 -8.4951,-4.78304 -25.319976,-6.94635 -4.136,-0.5318 -8.708,-1.12468 -10.16,-1.31751 l -2.64,-0.3506 v -3.32695 -3.32695 l 28.08,0.003 28.08,0.003 1.898146,4.71697 c 5.76346,14.32243 8.13549,19.4776 12.34872,26.83766 4.47327,7.8143 11.192322,17.99871 15.161142,22.98049 3.82713,4.80392 14.60641,16.4922 19.65625,21.31384 l 4.45251,4.2513 -1.36872,1.78684 c -0.75279,0.98276 -2.03643,3.03446 -2.85254,4.55933 l -1.48383,2.77248 0.37277,2.14058 0.37276,2.14058 -2.19002,2.20693 c -1.20451,1.21382 -2.26589,2.20307 -2.35861,2.19835 -0.0927,-0.005 -2.25658,-1.82203 -4.80858,-4.03845 z m 120.48,-13.87296 c 0.10877,-0.176 0.26127,-0.32 0.33889,-0.32 0.0776,0 0.14111,0.144 0.14111,0.32 0,0.176 -0.1525,0.32 -0.33889,0.32 -0.18638,0 -0.24988,-0.144 -0.14111,-0.32 z m 11.6,-0.85193 c 0.22,-0.0888 0.58,-0.0888 0.8,0 0.22,0.0888 0.04,0.1614 -0.4,0.1614 -0.44,0 -0.62,-0.0726 -0.4,-0.1614 z m 1.79572,-0.26807 c 0.14755,-0.3845 -0.11623,-0.48097 -1.32576,-0.4849 -1.09287,-0.004 -1.37737,-0.0906 -1.02996,-0.3151 0.264,-0.17061 1.092,-0.3124 1.84,-0.3151 1.12866,-0.004 1.36,0.0994 1.36,0.60843 0,0.33734 0.18,0.68597 0.4,0.77474 0.22,0.0888 -0.0114,0.17277 -0.51424,0.18667 -0.68677,0.019 -0.8684,-0.0942 -0.73004,-0.45474 z m 2.14954,-0.34667 c 0.0154,-0.37278 0.0912,-0.4486 0.19334,-0.19333 0.0924,0.231 0.0811,0.507 -0.0253,0.61333 -0.10633,0.10634 -0.18196,-0.0827 -0.16807,-0.42 z m 2.21474,-0.13333 c -0.35994,-0.23261 -0.19985,-0.3102 0.64,-0.3102 0.83985,0 0.99994,0.0776 0.64,0.3102 -0.264,0.17061 -0.552,0.3102 -0.64,0.3102 -0.088,0 -0.376,-0.13959 -0.64,-0.3102 z m 8.96,-0.96 c 0,-0.176 0.2965,-0.32 0.65889,-0.32 0.36238,0 0.56988,0.144 0.46111,0.32 -0.10877,0.176 -0.40527,0.32 -0.65889,0.32 -0.25361,0 -0.46111,-0.144 -0.46111,-0.32 z m -8.32,-0.32 c -0.33593,-0.2171 0.17398,-0.31167 1.69889,-0.3151 1.37224,-0.003 2.10566,0.11357 1.98111,0.3151 -0.25275,0.40895 -3.04719,0.40895 -3.68,0 z m 4.8,-0.32 c 0,-0.176 0.36,-0.32 0.8,-0.32 0.44,0 0.8,0.144 0.8,0.32 0,0.176 -0.36,0.32 -0.8,0.32 -0.44,0 -0.8,-0.144 -0.8,-0.32 z m 3.52,-0.35188 c 0,-0.15846 0.528,-0.28812 1.17333,-0.28812 0.64534,0 1.07331,0.10003 0.95106,0.22228 -0.33848,0.33848 -2.12439,0.39383 -2.12439,0.0658 z m 12.8,-0.12812 c -0.33282,-0.40102 -0.28662,-0.48 0.28082,-0.48 0.39038,0 0.67918,0.2041 0.67918,0.48 0,0.264 -0.12637,0.48 -0.28082,0.48 -0.15445,0 -0.46008,-0.216 -0.67918,-0.48 z m -7.75627,-0.0663 c 0.39805,-0.0765 0.97405,-0.0736 1.28,0.006 0.30595,0.0801 -0.0197,0.14272 -0.72373,0.13917 -0.704,-0.004 -0.95432,-0.0691 -0.55627,-0.14562 z m 2.31627,-0.0937 c 0,-0.176 0.144,-0.32 0.32,-0.32 0.176,0 0.32,0.144 0.32,0.32 0,0.176 -0.144,0.32 -0.32,0.32 -0.176,0 -0.32,-0.144 -0.32,-0.32 z m 2.988,-0.38126 c 0.64435,-0.23471 1.01137,-0.22737 1.264,0.0253 0.26133,0.26133 0.0199,0.34928 -0.908,0.33074 -1.24997,-0.025 -1.25392,-0.0289 -0.356,-0.356 z M 5.0787316,284.59942 c -0.352,-0.20323 -0.745795,-0.52581 -0.8751,-0.71685 -0.129305,-0.19104 -0.237305,-3.01983 -0.24,-6.28619 -0.0038,-4.62931 0.09523,-6.0758 0.449204,-6.56 0.442385,-0.60513 1.220659,-0.62529 30.1599994,-0.78116 l 29.705897,-0.16 1.167713,-0.72614 c 1.765637,-1.09797 2.192287,-2.51357 2.192287,-7.27386 0,-4.76029 -0.42665,-6.17589 -2.192287,-7.27386 l -1.167713,-0.72614 -23.36,-0.17949 C 19.820001,253.75361 17.374561,253.68137 15.656156,253.16941 9.6814456,251.38938 5.8555626,247.38268 4.4544616,241.4383 c -0.59297,-2.51577 -0.694924,-15.63638 -0.142103,-18.28733 0.90479,-4.33875 4.013735,-8.47919 7.7010804,-10.25617 4.332291,-2.0878 2.420625,-1.97931 36.709989,-2.08333 28.843198,-0.0875 31.20904,-0.0544 31.76,0.4442 0.54093,0.48954 0.5953,1.09854 0.5953,6.66798 0,4.78779 -0.0994,6.2652 -0.45411,6.75041 -0.44207,0.60469 -1.207816,0.6254 -28.879999,0.78116 -20.697718,0.1165 -28.599884,0.26076 -29.065887,0.53062 -1.980885,1.14711 -2.719679,3.05226 -2.710393,6.98938 0.0075,3.17321 0.457319,5.20951 1.369904,6.20124 1.528569,1.66114 1.195657,1.63829 23.970211,1.6451 11.990913,0.004 22.183928,0.14193 23.450278,0.31829 4.939259,0.68786 9.055405,2.71206 11.378026,5.59537 1.57961,1.96093 2.80512,4.95117 3.37244,8.22874 0.71024,4.10322 0.4928,15.86893 -0.34173,18.49126 -0.90369,2.8396 -2.04242,4.79683 -3.801104,6.53324 -2.016922,1.99137 -4.175803,3.17943 -7.463785,4.10742 -2.49661,0.70463 -2.595874,0.70692 -34.343847,0.78986 -23.620855,0.0617 -32.0052094,-0.0122 -32.4800004,-0.28632 z m 92.3199964,0.15373 c -1.30592,-0.46673 -1.28,0.2848 -1.28,-37.10095 v -35.92069 l 0.71121,-0.49814 c 1.06176,-0.74369 14.041672,-0.73955 14.785932,0.005 0.45121,0.4512 0.50286,4.21307 0.50286,36.62185 v 36.119 l -0.7112,0.49814 c -0.58944,0.41286 -1.80843,0.49382 -7.12,0.47289 -3.52484,-0.0139 -6.624802,-0.10246 -6.888802,-0.19681 z m 30.080002,-0.18219 -0.8,-0.41472 v -33.93326 -33.93327 l 0.96087,-1.8787 c 0.79211,-1.54874 1.24002,-2.02246 2.55028,-2.69724 1.58053,-0.81398 1.64088,-0.81912 10.8016,-0.92054 7.73353,-0.0856 9.49642,-0.0194 10.98295,0.41279 2.01144,0.58474 3.93555,2.14592 5.10543,4.14243 0.42114,0.71873 5.93401,13.21611 12.25082,27.77197 6.31681,14.55585 11.66991,26.68785 11.89576,26.96 0.50045,0.60299 2.98858,0.6711 3.46371,0.0948 0.18138,-0.22 5.31782,-11.92 11.41431,-26 6.09649,-14.08 11.53117,-26.52524 12.07706,-27.65608 1.36802,-2.83392 3.25791,-4.65508 5.51026,-5.30985 1.50027,-0.43614 3.23692,-0.50192 10.98448,-0.41606 8.79415,0.0975 9.26147,0.13354 10.53222,0.81306 1.66528,0.8905 2.51936,1.96473 3.22232,4.05294 0.50407,1.49738 0.55942,4.43537 0.65328,34.67659 l 0.10254,33.0406 -0.7994,0.7994 c -0.79676,0.79676 -0.81958,0.7994 -6.91498,0.7994 -5.56774,0 -6.86625,-0.14721 -7.67351,-0.86994 -0.088,-0.0788 -0.232,-13.12728 -0.32,-28.99665 l -0.16,-28.85341 -0.96,-0.0941 c -0.528,-0.0518 -1.20643,0.0922 -1.50762,0.32 -0.30118,0.22776 -5.53003,11.5021 -11.61966,25.0541 -6.08963,13.552 -11.62727,25.576 -12.30587,26.72 -0.6786,1.144 -1.84041,2.68819 -2.5818,3.43153 -2.74744,2.75466 -5.43622,3.42358 -12.94505,3.22053 -4.78082,-0.12929 -5.25356,-0.1986 -7.13615,-1.04621 -2.32722,-1.0478 -4.29416,-3.04035 -5.97353,-6.05133 -0.59958,-1.07498 -6.014,-12.89852 -12.03205,-26.27452 -6.01804,-13.376 -11.1614,-24.572 -11.42968,-24.88 -0.56001,-0.64292 -1.99892,-0.74167 -2.56459,-0.176 -0.29289,0.29289 -0.384,7.11174 -0.384,28.73884 0,23.96676 -0.0702,28.45097 -0.45365,28.976 -0.41875,0.57339 -0.94174,0.62772 -6.8,0.70639 -4.71331,0.0633 -6.55221,-0.0215 -7.14635,-0.32949 z m 126.72,-3e-4 -0.8,-0.41432 -0.0814,-35.92372 -0.0814,-35.92373 0.797,-0.797 0.797,-0.797 32.40438,0.0958 32.40438,0.0958 2.56,0.73938 c 5.63273,1.62684 9.39845,4.59396 11.53183,9.08624 1.9194,4.04171 2.19391,6.00241 2.20699,15.76312 0.0133,9.93966 -0.25436,11.75165 -2.36983,16.04283 -2.22576,4.51487 -6.42644,7.60553 -12.16899,8.95337 -2.15813,0.50653 -4.90737,0.57487 -27.28,0.67815 l -24.88,0.11486 v 10.64423 c 0,8.68158 -0.0837,10.75877 -0.45367,11.2654 -0.42027,0.57542 -0.94459,0.62741 -7.12,0.70604 -4.97073,0.0633 -6.86981,-0.0205 -7.46633,-0.32944 z m 60.96,-37.13242 c 1.62619,-0.73302 2.91413,-1.95486 3.77686,-3.58302 0.58723,-1.10822 0.69505,-1.95173 0.80347,-6.28537 0.188,-7.51509 -0.80736,-9.97523 -4.66661,-11.53399 l -1.83372,-0.74064 h -21.69154 c -18.93313,0 -21.73015,0.061 -21.9951,0.48 -0.17592,0.27817 -0.30562,5.09365 -0.30846,11.45231 l -0.005,10.97231 22.32,-0.0923 c 20.70348,-0.0856 22.4127,-0.1341 23.6,-0.66929 z m 54.4,37.18293 c -12.19144,-1.00958 -19.40979,-6.31111 -21.91157,-16.09297 -1.13922,-4.45432 -1.28843,-8.24204 -1.28843,-32.70689 0,-23.37942 0.0115,-23.81756 0.64,-24.44609 0.59995,-0.59995 1.06667,-0.64 7.45884,-0.64 5.3825,0 6.94968,0.0956 7.44,0.45401 0.60311,0.44082 0.62607,1.17778 0.79003,25.36 0.15828,23.34571 0.20651,25.00622 0.76972,26.50599 1.5729,4.18843 4.10313,5.97089 9.30141,6.55251 1.66089,0.18584 12.45386,0.32335 25.49714,0.32486 19.75453,0.002 22.67838,0.0639 23.10097,0.48645 0.7224,0.7224 0.91292,2.72029 0.79146,8.29982 -0.10536,4.84037 -0.1386,5.05729 -0.86502,5.64508 -0.72967,0.59041 -1.57072,0.60976 -24.64,0.56675 -13.1365,-0.0245 -25.32455,-0.16377 -27.08455,-0.30952 z m 84.30023,-0.005 c -3.63853,-0.32243 -8.4955,-1.5018 -11.21984,-2.72441 -6.54963,-2.9393 -10.35555,-8.92187 -11.46887,-18.02807 -0.54455,-4.45402 -0.42631,-29.96807 0.15551,-33.55553 1.9381,-11.95034 8.51927,-17.79388 21.66036,-19.23265 1.93724,-0.2121 12.93306,-0.34022 29.2,-0.34022 25.66594,0 26.10308,0.0105 26.73261,0.64 0.59487,0.59487 0.63965,1.06305 0.6351,6.64 -0.003,3.3 -0.1107,6.15844 -0.24,6.35209 -0.70395,1.05427 -1.53446,1.08789 -27.01406,1.09347 -21.1516,0.005 -25.75293,0.0843 -27.61277,0.47829 -5.47623,1.16001 -7.48975,4.14036 -8.04734,11.9114 l -0.21204,2.95525 30.7914,0.0847 c 30.05958,0.0827 30.8022,0.0995 31.24556,0.70591 0.34825,0.47631 0.45415,1.83815 0.45415,5.84 0,4.79217 -0.0523,5.27116 -0.64,5.85884 -0.63106,0.63106 -1.06667,0.64 -31.2,0.64 h -30.56 l 0.009,1.2 c 0.0186,2.56662 0.60675,7.20085 1.10399,8.69791 1.13819,3.42676 4.07375,5.51732 8.56694,6.10093 1.27622,0.16577 13.5164,0.30585 27.2004,0.31128 24.44657,0.01 24.89115,0.021 25.52,0.64988 0.59487,0.59487 0.63965,1.06305 0.6351,6.64 -0.003,3.3 -0.1107,6.15844 -0.24,6.35209 -0.70601,1.05736 -1.50248,1.08814 -27.01406,1.04392 -13.95957,-0.0242 -26.75794,-0.166 -28.44081,-0.31513 z M 23.478732,186.09522 c 0,-2.00974 0.130427,-3.52 0.30399,-3.52 1.32866,0 12.699032,-1.0931 16.81601,-1.61663 12.115499,-1.54063 17.239231,-3.33377 21.155423,-7.40373 2.452963,-2.54928 3.357694,-4.05438 8.619719,-14.33964 5.324329,-10.40705 9.055437,-16.8181 14.153754,-24.32 15.956172,-23.47864 34.919802,-42.231854 57.991102,-57.347634 28.76332,-18.845068 60.62527,-29.908162 95.36,-33.110865 7.72672,-0.712439 28.685,-0.812408 35.68,-0.17019 38.26087,3.512768 69.38155,14.57853 99.52,35.386915 20.929,14.44993 34.61316,27.607364 49.965,48.041774 7.07765,9.42086 10.88503,15.76284 18.23877,30.38045 5.56444,11.06089 7.05288,13.52836 9.48831,15.72929 4.22574,3.81886 10.94714,5.49666 31.47454,7.85667 l 6.44662,0.74117 0.19338,1.41087 c 0.10636,0.77598 0.19338,2.32756 0.19338,3.44795 v 2.03708 l -28.19467,-0.0817 -28.19467,-0.0817 -1.83505,-5.28 c -3.12296,-8.98575 -7.57813,-18.75269 -12.34241,-27.05795 -4.84931,-8.45349 -12.79422,-19.50416 -20.11779,-27.98205 -3.91898,-4.53668 -12.87412,-13.63248 -17.91194,-18.19326 C 363.31209,95.077676 343.93307,83.300296 322.35873,75.298066 291.31346,63.782921 257.80825,60.696436 224.29574,66.26454 c -28.85025,4.79347 -57.58884,17.037396 -79.85701,34.02268 -21.56167,16.44638 -39.07934,36.44711 -51.972732,59.33965 -5.11569,9.08302 -10.56493,21.72309 -12.34195,28.62835 l -0.349984,1.36 H 51.626398 23.478732 Z"
       id="path1" />
  </g>
</svg>
